<?xml version="1.0" standalone="no"?>
<!DOCTYPE svg PUBLIC "-//W3C//DTD SVG 1.1//EN" "http://www.w3.org/Graphics/SVG/1.1/DTD/svg11.dtd" >
<svg>
<metadata>
Created by FontForge 20090914 at Sun Sep 16 18:17:17 2018
 By www-data
Copyright Ray Meadows 2009
</metadata>
<defs>
<font id="RM-Typerighter-medium" horiz-adv-x="288" >
  <font-face 
    font-family="RM Typerighter medium"
    font-weight="400"
    font-stretch="normal"
    units-per-em="1024"
    panose-1="0 0 4 0 0 0 0 0 0 0"
    ascent="819"
    descent="-205"
    x-height="232"
    cap-height="336"
    bbox="-104 -140 512 448"
    underline-thickness="51"
    underline-position="126"
    unicode-range="U+000D-U+FB02"
  />
<missing-glyph horiz-adv-x="640" 
d="M224 63v71h-72v-71h72zM295 146v72h-143v-72h143zM224 229v72h-72v-72h72zM295 313v70h-71c-20 0 -37 -6.66699 -51 -20c-14 -14 -21 -30.667 -21 -50h143zM0 0v448h448v-448h-448z" />
    <glyph glyph-name=".notdef" horiz-adv-x="640" 
d="M224 63v71h-72v-71h72zM295 146v72h-143v-72h143zM224 229v72h-72v-72h72zM295 313v70h-71c-20 0 -37 -6.66699 -51 -20c-14 -14 -21 -30.667 -21 -50h143zM0 0v448h448v-448h-448z" />
    <glyph glyph-name="glyph1" horiz-adv-x="24" 
 />
    <glyph glyph-name="glyph1" horiz-adv-x="24" 
 />
    <glyph glyph-name="uni000D" unicode="&#xd;" horiz-adv-x="0" 
 />
    <glyph glyph-name="space" unicode=" " horiz-adv-x="144" 
 />
    <glyph glyph-name="exclam" unicode="!" horiz-adv-x="88" 
d="M24 0l-8 4l-8 4l-4 8l-4 8v8l4 8l4 8l8 4l8 4h8l8 -4l8 -4l4 -8l4 -8v-8l-4 -8l-4 -8l-8 -4l-8 -4h-8zM20 80l-4 8v240c0 2 0.666992 3.66699 2 5c1.33301 2 3.33301 3 6 3h16c2 0 3.66699 -1 5 -3c2 -1.33301 3 -3 3 -5v-240l-4 -8h-24z" />
    <glyph glyph-name="quotedbl" unicode="&#x22;" horiz-adv-x="152" 
d="M24 264l-4 8l-4 8v24l-4 8l-4 8l-4 8l-4 8v8l4 8l4 8l8 4l8 4h8l8 -4l8 -4l4 -8l4 -8v-8l-4 -8l-4 -8l-4 -8l-4 -8v-24l-4 -8l-4 -8h-8zM88 264l-4 8l-4 8v24l-4 8l-4 8l-4 8l-4 8v8l4 8l4 8l8 4l8 4h8l8 -4l8 -4l4 -8l4 -8v-8l-4 -8l-4 -8l-4 -8l-4 -8v-24l-4 -8l-4 -8
h-8z" />
    <glyph glyph-name="numbersign" unicode="#" horiz-adv-x="264" 
d="M142 148l2 4l4 8l4 8l4 8l4 8l2 4h-56l-2 -4l-4 -8l-4 -8l-4 -8l-4 -8l-2 -4h56zM24 56l-8 8v8l4 8l4 8l4 8l4 8l4 8l4 8h-16l-8 4v20l8 4h30l2 4l4 8l4 8l4 8l4 8l2 4h-18l-8 4v20l8 4h32l4 8l4 8l4 8l4 8l4 8l4 8l4 8l4 4l8 4h16l4 -8l-4 -8l-4 -8l-4 -8l-4 -8l-4 -8
l-4 -8l-4 -8h56l4 8l4 8l4 8l4 8l4 8l4 8l4 8l4 4l4 4h12l8 -8v-8l-4 -8l-4 -8l-4 -8l-4 -8l-4 -8l-4 -8h16l8 -4v-20l-8 -4h-30l-2 -4l-4 -8l-4 -8l-4 -8l-4 -8l-2 -4h18l8 -4v-20l-8 -4h-32l-4 -8l-4 -8l-4 -8l-4 -8l-4 -8l-4 -8l-4 -8h-1l-3 -4l-4 -4h-20l-4 8l4 8l4 8
l4 8l4 8l4 8l4 8l4 8h-56l-4 -8l-4 -8l-4 -8l-4 -8l-4 -8l-4 -8l-4 -8h-1l-3 -4l-4 -4h-12z" />
    <glyph glyph-name="dollar" unicode="$" horiz-adv-x="208" 
d="M108 48l8 4l8 4l8 4l4 4l4 4l4 4l4 8l4 8v16l-4 8l-4 8l-4 4v0l-4 4l-4 4l-8 4l-8 4l-8 4l-8 4v-100h8zM68 192v96l-8 -4l-8 -4l-8 -4l-4 -4h-1l-3 -4l-4 -4l-4 -8l-4 -8v-16l4 -8l4 -8l4 -4v-1l4 -3l4 -4l8 -4l8 -4l8 -4v0zM72 0l-4 8v12l-8 4l-8 4l-8 4l-8 8l-4 4v-20
l-4 -8h-24l-4 8v88l4 8h24l4 -8v-16l4 -8l4 -8l4 -8l4 -8l4 -4v-1l4 -3l4 -4l8 -4v108l-8 4l-8 4l-8 4l-8 4l-8 4l-8 8l-8 8l-8 8l-4 8l-4 8l-4 8v32l4 8l4 8l4 8l8 8l8 8l8 8l8 4l8 4l8 4h16v12l4 8h24l4 -8v-12h8l8 -4l8 -4l8 -4l4 -4v12l4 8h24l4 -8v-72l-4 -8h-24l-4 8
v16l-4 8l-4 8l-4 4v0l-4 4l-4 4l-8 4h-8v-104l8 -4l8 -4l8 -4l8 -4l8 -4l8 -4l8 -8l8 -8l8 -8l4 -8l4 -8l4 -8v-32l-4 -8l-4 -8l-4 -8l-8 -8l-8 -8l-8 -8l-8 -4l-8 -4l-8 -4h-24v-12l-4 -8h-24z" />
    <glyph glyph-name="percent" unicode="%" horiz-adv-x="240" 
d="M152 28l8 4l4 8l4 8l4 8l4 8v24l-4 8l-4 4h-8l-8 -4l-4 -8l-4 -8l-4 -8l-4 -8v-24l4 -8l4 -4h8zM136 0l-8 4l-8 4l-8 8l-4 8l-4 8v40l4 8l4 8l4 8l4 8l8 8l8 8l8 4l8 4h24l8 -4l8 -4l8 -8l4 -8l4 -8v-40l-4 -8l-4 -8l-4 -8l-4 -8l-8 -8l-8 -8l-8 -4l-8 -4h-24zM48 180
l8 4l4 8l4 8l4 8l4 8v24l-4 8l-4 4h-8l-8 -4l-4 -8l-4 -8l-4 -8l-4 -8v-24l4 -8l4 -4h8zM16 0l4 8l4 8l4 8l4 8l4 8l4 8l4 8l4 8l4 8l4 8l4 8l4 8l4 8l4 8l4 8l4 8l4 8l4 8l4 8l4 8l4 8l4 8l4 8l4 8l4 8l4 8l4 8l4 8l4 8l4 8l-8 -4h-16l-8 4v-32l-4 -8l-4 -8l-4 -8l-4 -8
l-8 -8l-8 -8l-8 -4l-8 -4h-24l-8 4l-8 4l-8 8l-4 8l-4 8v40l4 8l4 8l4 8l4 8l8 8l8 8l8 4l8 4h24l8 -4l8 -4l8 -4l8 -4h24l8 4l8 4l8 8l8 8l4 8l4 8h32l-4 -8l-4 -8l-4 -8l-4 -8l-4 -8l-4 -8l-4 -8l-4 -8l-4 -8l-4 -8l-4 -8l-4 -8l-4 -8l-4 -8l-4 -8l-4 -8l-4 -8l-4 -8
l-4 -8l-4 -8l-4 -8l-4 -8l-4 -8l-4 -8l-4 -8l-4 -8l-4 -8l-4 -8l-4 -8l-4 -8l-4 -8l-4 -8l-4 -8l-4 -8l-4 -8l-4 -8l-4 -8l-4 -8h-32z" />
    <glyph glyph-name="ampersand" unicode="&#x26;" horiz-adv-x="300" 
d="M92 32l8 4l8 4l8 8l8 8l8 8l8 8l2 5l-2 3l-8 8l-8 8l-8 8l-8 8l-8 8l-8 8l-8 8l-8 8l-8 8l-8 -8l-8 -8l-8 -8l-4 -8l-4 -8l-4 -8v-24l4 -8l4 -8l4 -8l8 -8l8 -8l8 -4l8 -4h16zM76 192l8 4l8 4l4 8l4 8l4 8v8l-4 8l-8 8l-8 4h-16l-8 -4l-8 -8l-4 -8v-16l4 -8l8 -8l8 -8h8z
M60 4l-8 4l-8 4v0l-4 4l-4 4v0l-4 4l-4 4v0l-4 4l-4 4v0l-4 4l-4 8l-4 8l-4 8l-4 8v40l4 8l4 8l4 8l4 8l4 4l4 4l4 4l4 4l4 4l4 4l4 4l2 1l-2 3l-8 8l-4 8l-4 8l-4 8l-4 8v24l4 8l4 8l8 8l8 8l8 4l8 4h32l8 -4l8 -4l8 -8l8 -8l4 -8l4 -8v-24l-4 -8l-4 -8l-4 -8h-1l-3 -4
l-4 -4h-1l-3 -4l-4 -4h-1l-3 -4l-8 -4l8 -8l8 -8l8 -8l8 -8l8 -8l8 -8l8 -8l8 -8l4 8l4 8l4 8l4 8l8 8l8 8l8 4l8 4h16l8 -4v-1l4 -3l4 -8v-16l-4 -8h-1l-3 -4l-8 -4h-16l-8 4l-4 -4l-4 -8l-4 -8l-4 -8l-3 -6l3 -2l8 -8l8 -8l8 -8l8 -8l8 -8l8 -4h8l8 4l4 8l4 4l8 4h4l4 -8
v-8l-4 -8l-4 -8l-8 -8l-8 -4l-8 -4h-16l-8 4l-8 4l-8 8l-8 8l-8 8l-8 8l-8 8l-4 -8h-1l-3 -4l-4 -4h-1l-3 -4l-4 -4h-1l-3 -4l-4 -4h-1l-3 -4l-4 -4h-1l-3 -4l-8 -4l-8 -4h-48z" />
    <glyph glyph-name="quotesingle" unicode="'" horiz-adv-x="84" 
d="M0 260v8l8 4l8 8l4 8l4 8v16l-8 4l-8 4l-4 8l-4 8v8l4 8l4 8l8 4l8 4h8l8 -4l8 -4l4 -8l4 -8l4 -8v-16l-4 -8l-4 -8l-4 -8l-8 -8l-8 -8l-8 -8l-8 -4l-8 -4l-8 -4v0z" />
    <glyph glyph-name="parenleft" unicode="(" horiz-adv-x="152" 
d="M104 -68v1l-4 3l-4 4v1l-4 3l-4 4v1l-4 3l-4 4v1l-4 3l-4 4v1l-4 3l-4 4v1l-4 3l-4 4v1l-4 3l-4 4v1l-4 3l-4 8l-4 8l-4 8l-4 8l-4 8l-4 8l-4 8l-4 8l-4 8l-4 8l-4 8v176l4 8l4 8l4 8l4 8l4 8l4 8l4 8l4 8l4 8l4 8l4 8l4 4l4 4l4 4l4 4l4 4l4 4l4 4l4 4l4 4l4 4l4 4l4 4
l4 4l4 4l4 4h8l8 -4v-8l-4 -8l-4 -8l-8 -8l-8 -8l-8 -8l-8 -8l-8 -8l-4 -8l-4 -8l-4 -8l-4 -8l-4 -8l-4 -8l-4 -8l-4 -8l-4 -8l-4 -8v-176l4 -8l4 -8l4 -8l4 -8l4 -8l4 -8l4 -8l4 -8l4 -8l4 -8l8 -8l8 -8l8 -8l8 -8l8 -8l4 -8l4 -8v-8l-8 -4h-8z" />
    <glyph glyph-name="parenright" unicode=")" horiz-adv-x="152" 
d="M8 -68l-8 4v8l4 8l4 8l8 8l8 8l8 8l8 8l8 8l4 8l4 8l4 8l4 8l4 8l4 8l4 8l4 8l4 8l4 8v176l-4 8l-4 8l-4 8l-4 8l-4 8l-4 8l-4 8l-4 8l-4 8l-4 8l-8 8l-8 8l-8 8l-8 8l-8 8l-4 8l-4 8v8l8 4h8v-1l4 -3l4 -4v-1l4 -3l4 -4v-1l4 -3l4 -4v-1l4 -3l4 -4v-1l4 -3l4 -4v-1l4 -3
l4 -4v-1l4 -3l4 -4v-1l4 -3l4 -8l4 -8l4 -8l4 -8l4 -8l4 -8l4 -8l4 -8l4 -8l4 -8l4 -8v-176l-4 -8l-4 -8l-4 -8l-4 -8l-4 -8l-4 -8l-4 -8l-4 -8l-4 -8l-4 -8l-4 -8h-1l-3 -4l-4 -4h-1l-3 -4l-4 -4h-1l-3 -4l-4 -4h-1l-3 -4l-4 -4h-1l-3 -4l-4 -4h-1l-3 -4l-4 -4h-1l-3 -4
l-4 -4h-1l-3 -4h-8z" />
    <glyph glyph-name="asterisk" unicode="*" horiz-adv-x="176" 
d="M40 264l-8 8l-8 8l4 8l4 8l4 8l4 8h-32l-8 4v24l8 4h32l-4 8l-4 8l-4 8l-4 8l8 8l8 8h12l4 -8l4 -8l4 -8l4 -8l4 -8l4 8l4 8l4 8l4 8l4 8h12l8 -8l8 -8l-4 -8l-4 -8l-4 -8l-4 -8h32l8 -4v-24l-8 -4h-32l4 -8l4 -8l4 -8l4 -8l-8 -8l-8 -8h-12l-4 8l-4 8l-4 8l-4 8l-4 8
l-4 -8l-4 -8l-4 -8l-4 -8l-4 -8h-12z" />
    <glyph glyph-name="plus" unicode="+" horiz-adv-x="208" 
d="M76 88l-4 8v60h-64l-8 4v20l8 4h64v56l4 8h24l4 -8v-56h64l8 -4v-20l-8 -4h-64v-60l-4 -8h-24z" />
    <glyph glyph-name="comma" unicode="," horiz-adv-x="84" 
d="M0 -52v8l8 4l8 8l4 8l4 8v16l-8 4l-8 4l-4 8l-4 8v8l4 8l4 8l8 4l8 4h8l8 -4l8 -4l4 -8l4 -8l4 -8v-16l-4 -8l-4 -8l-4 -8l-8 -8l-8 -8l-8 -8l-8 -4l-8 -4l-8 -4v0z" />
    <glyph glyph-name="hyphen" unicode="-" horiz-adv-x="208" 
d="M8 156l-8 4v20l8 4h160l8 -4v-20l-8 -4h-160z" />
    <glyph glyph-name="period" unicode="." horiz-adv-x="88" 
d="M24 0l-8 4l-8 4l-4 8l-4 8v8l4 8l4 8l8 4l8 4h8l8 -4l8 -4l4 -8l4 -8v-8l-4 -8l-4 -8l-8 -4l-8 -4h-8z" />
    <glyph glyph-name="slash" unicode="/" horiz-adv-x="216" 
d="M4 0l-4 8l4 8l4 8l4 8l4 8l4 8l4 8l4 8l4 8l4 8l4 8l4 8l4 8l4 8l4 8l4 8l4 8l4 8l4 8l4 8l4 8l4 8l4 8l4 8l4 8l4 8l4 8l4 8l4 8l4 8l4 8l4 8l4 8l4 8l4 8l4 8l4 8l4 8l4 8l4 8l4 8l4 4l4 4h20l4 -8l-4 -8l-4 -8l-4 -8l-4 -8l-4 -8l-4 -8l-4 -8l-4 -8l-4 -8l-4 -8l-4 -8
l-4 -8l-4 -8l-4 -8l-4 -8l-4 -8l-4 -8l-4 -8l-4 -8l-4 -8l-4 -8l-4 -8l-4 -8l-4 -8l-4 -8l-4 -8l-4 -8l-4 -8l-4 -8l-4 -8l-4 -8l-4 -8l-4 -8l-4 -8l-4 -8l-4 -8l-4 -8l-4 -8l-4 -8l-4 -8h-1l-3 -4l-4 -4h-20z" />
    <glyph glyph-name="zero" unicode="0" horiz-adv-x="264" 
d="M124 24l8 4l8 4l8 4l8 4l8 4l4 4l4 4l4 4l4 4l4 4l4 8l4 8l4 8l4 8l4 8l4 8v112l-4 8l-4 8l-4 8l-4 8l-4 8l-4 8l-4 4v0l-4 4l-4 4v0l-4 4l-4 4l-8 4l-8 4l-8 4l-8 4l-8 4h-16l-8 -4l-8 -4l-8 -4l-8 -4l-8 -4l-4 -4h-1l-3 -4l-4 -4h-1l-3 -4l-4 -4l-4 -8l-4 -8l-4 -8
l-4 -8l-4 -8l-4 -8v-112l4 -8l4 -8l4 -8l4 -8l4 -8l4 -8l4 -4v-1l4 -3l4 -4v-1l4 -3l4 -4l8 -4l8 -4l8 -4l8 -4l8 -4h16zM92 -4l-8 4l-8 4l-8 4l-8 4l-8 4l-8 8l-8 8l-8 8l-8 8l-4 8l-4 8l-4 8l-4 8l-4 8l-4 8l-4 8v128l4 8l4 8l4 8l4 8l4 8l4 8l4 8l8 8l8 8l8 8l8 8l8 4
l8 4l8 4l8 4l8 4h48l8 -4l8 -4l8 -4l8 -4l8 -4l8 -8l8 -8l8 -8l8 -8l4 -8l4 -8l4 -8l4 -8l4 -8l4 -8l4 -8v-128l-4 -8l-4 -8l-4 -8l-4 -8l-4 -8l-4 -8l-4 -8l-8 -8l-8 -8l-8 -8l-8 -8l-8 -4l-8 -4l-8 -4l-8 -4l-8 -4h-48z" />
    <glyph glyph-name="one" unicode="1" horiz-adv-x="208" 
d="M8 0l-8 4v20l8 4h64v272l-8 -4l-8 -4l-8 -4l-8 -4l-8 -4l-8 -4l-8 -4h-8l-4 8l-4 8l4 8l4 4l8 4l8 4l8 4l8 4l8 4l8 4l8 4l8 4l8 4h16c2 0 3.66699 -1 5 -3c2 -1.33301 3 -3 3 -5v-300h64l8 -4v-20l-8 -4h-160z" />
    <glyph glyph-name="two" unicode="2" horiz-adv-x="264" 
d="M0 0v24l4 8l4 8l4 8l4 8l4 8l4 8l4 8l4 8l8 8l8 8l8 8l8 8l8 8l8 8l8 8l8 8l8 4l8 4l8 4l8 4l8 4l8 4l8 4l8 4l8 4l8 4l8 8l8 8l4 8l4 8v24l-4 8l-4 8l-4 8l-4 8l-8 8l-8 8l-8 4l-8 4l-8 4l-8 4h-32l-8 -4l-8 -4l-8 -4l-8 -4l-8 -8l-8 -8l-4 -8l-4 -8l-4 -8l-4 -8l-4 -8
l-4 -8h-24l-4 8v8l4 8l4 8l4 8l4 8l4 8l8 8l8 8l8 8l8 8l8 4l8 4l8 4l8 4l8 4h48l8 -4l8 -4l8 -4l8 -4l8 -4l8 -8l8 -8l8 -8l8 -8l4 -8l4 -8l4 -8l4 -8v-32l-4 -8l-4 -8l-4 -8l-4 -8l-4 -8h-1l-3 -4l-4 -4h-1l-3 -4l-4 -4h-1l-3 -4l-8 -4l-8 -4l-8 -4l-8 -4l-8 -4l-8 -4
l-8 -4l-8 -4l-8 -4l-8 -4l-4 -4h-1l-3 -4l-4 -4h-1l-3 -4l-4 -4h-1l-3 -4l-4 -4h-1l-3 -4l-4 -4h-1l-3 -4l-4 -4l-4 -8l-4 -8l-4 -8l-4 -8l-4 -8l-4 -8l-2 -4h182l8 -4v-20l-8 -4h-224z" />
    <glyph glyph-name="three" unicode="3" horiz-adv-x="260" 
d="M44 -64l-8 4v20l8 4h48l8 4l8 4l8 4l8 4l8 4l8 4l8 4l8 4l4 4l4 4l4 4l4 4l4 4l4 8l4 8l4 8l4 8l4 8v24l-4 8l-4 8l-4 8l-4 4v0l-4 4l-4 4v0l-4 4l-4 4l-8 4l-8 4l-8 4l-8 4l-8 4l-8 4h-24l-8 4v20l8 4h16l8 4l8 4l8 4l8 4l8 4l8 4l8 4l4 4l4 4l4 4l4 8l4 8l4 8v8l-4 8
l-4 8l-4 8l-4 4v0l-4 4l-4 4v0l-4 4l-4 4l-8 4l-8 4l-8 4l-8 4l-8 4h-24l-8 -4l-8 -4l-8 -4l-8 -4l-8 -4l-4 -4h-1l-3 -4l-4 -4h-1l-3 -4l-4 -4l-4 -8h-8l-8 4l-8 4l-4 8l4 8l8 8l8 8l8 8l8 8l8 4l8 4l8 4l8 4l8 4h56l8 -4l8 -4l8 -4l8 -4l8 -4l8 -8l8 -8l8 -8l8 -8l4 -8
l4 -8l4 -8l4 -8v-24l-4 -8l-4 -8l-4 -8l-4 -8l-4 -8h-1l-3 -4l-4 -4h-1l-3 -4l-8 -4l-8 -4l-8 -4l-8 -4l8 -4l8 -4l8 -4l8 -8l8 -8l8 -8l8 -8l4 -8l4 -8l4 -8l4 -8v-40l-4 -8l-4 -8l-4 -8l-4 -8l-4 -8l-4 -8l-4 -8h-1l-3 -4l-4 -4h-1l-3 -4l-4 -4h-1l-3 -4l-8 -4l-8 -4
l-8 -4l-8 -4l-8 -4l-8 -4l-8 -4l-8 -4l-8 -4h-64z" />
    <glyph glyph-name="four" unicode="4" horiz-adv-x="260" 
d="M156 0c-2.66699 0 -4.66699 0.666992 -6 2s-2 3.33301 -2 6v56h-144l-4 8l4 8l4 8l4 8l4 8l4 8l4 8l4 8l4 8l4 8l4 8l4 8v144l-4 8l-4 8l-4 8l-4 8l-4 8l-4 8l-4 8l-4 8l-4 8l4 4l4 4h20l8 -8l4 -8l4 -8l4 -8l4 -8l4 -8l4 -8l4 -8l4 -8v-160l-4 -8l-4 -8l-4 -8l-4 -8
l-4 -8l-4 -8l-4 -8l-2 -4h102v148c0 2 0.666992 3.66699 2 5c1.33301 2 3.33301 3 6 3h16c2 0 3.66699 -1 5 -3c2 -1.33301 3 -3 3 -5v-148h40l8 -4v-20l-8 -4h-40v-56c0 -2.66699 -1 -4.66699 -3 -6c-1.33301 -1.33301 -3 -2 -5 -2h-16z" />
    <glyph glyph-name="five" unicode="5" horiz-adv-x="240" 
d="M16 -48l-8 4v16l8 4h8l8 4l8 4l8 4l8 4l8 4l8 4l8 4l8 4l8 4l8 4l8 8l8 8l8 8l8 8l8 8l8 8l4 8l4 8l4 8l4 8l4 8l4 8v24l-4 8l-4 8l-8 8l-8 8l-8 8l-8 4l-8 4l-8 4l-8 4h-48l-8 -4l-8 -4l-8 -4l-8 -4h-24c-2.66699 0 -4.66699 0.666992 -6 2s-2 3.33301 -2 6v144
c0 2 0.666992 3.66699 2 5c1.33301 2 3.33301 3 6 3h192l8 -4v-20l-8 -4h-168v-96l8 4l8 4h72l8 -4l8 -4l8 -4l8 -4l8 -4l8 -8l8 -8l8 -8l8 -8l4 -8l4 -8l4 -8l4 -8v-24l-4 -8l-4 -8l-4 -8l-4 -8l-4 -8l-4 -8l-4 -8l-4 -8l-4 -8h-1l-3 -4l-4 -4h-1l-3 -4l-4 -4h-1l-3 -4
l-4 -4h-1l-3 -4l-4 -4h-1l-3 -4l-4 -4h-1l-3 -4l-4 -4h-1l-3 -4l-8 -4l-8 -4l-8 -4l-8 -4l-8 -4l-8 -4l-8 -4l-8 -4l-8 -4h-32z" />
    <glyph glyph-name="six" unicode="6" horiz-adv-x="256" 
d="M132 24l8 4l8 4l8 4l4 4l4 4l4 4l4 4l4 4l4 4l4 4l4 4l4 4l4 8l4 8v56l-4 8l-4 8l-4 4v0l-4 4l-4 4v0l-4 4l-4 4v0l-4 4l-4 4v0l-4 4l-4 4l-8 4l-8 4l-8 4h-40l-8 -4l-8 -4l-8 -4l-4 -4h-1l-3 -4l-4 -4h-1l-3 -4l-4 -4h-1l-3 -4l-4 -4h-1l-3 -4l-4 -4l-4 -8l-4 -8v-56
l4 -8l4 -8l4 -4v-1l4 -3l4 -4v-1l4 -3l4 -4v-1l4 -3l4 -4v-1l4 -3l4 -4l8 -4l8 -4l8 -4h40zM84 -4l-8 4l-8 4l-8 4l-8 4l-8 4l-8 8l-8 8l-8 8l-8 8l-4 8l-4 8l-4 8l-4 8l-4 8v112l4 8l4 8l4 8l4 8l4 8l4 8l4 8l4 8l4 8l4 8l4 8l8 8l8 8l8 8l8 8l8 8l8 8l8 8l8 4l8 4l8 4l8 4
l8 4l8 4l8 4l8 4l8 4l8 4h8c2 0 3.66699 -1 5 -3c2 -1.33301 3 -3 3 -5v-8l-4 -8h-1l-3 -4l-8 -4l-8 -4l-8 -4l-8 -4l-8 -4l-8 -4l-8 -4l-8 -4l-8 -4l-8 -8l-8 -8l-8 -8l-8 -8l-8 -8l-8 -8l-4 -8l-4 -8l-4 -8l-4 -8l-4 -8l-4 -8l-4 -8l-4 -8h-8v-8h8l8 8l8 8l8 4l8 4l8 4
l8 4l8 4h56l8 -4l8 -4l8 -4l8 -4l8 -4l8 -8l8 -8l8 -8l8 -8l4 -8l4 -8l4 -8l4 -8l4 -8v-56l-4 -8l-4 -8l-4 -8l-4 -8l-4 -8l-8 -8l-8 -8l-8 -8l-8 -8l-8 -4l-8 -4l-8 -4l-8 -4l-8 -4h-56z" />
    <glyph glyph-name="seven" unicode="7" horiz-adv-x="320" 
d="M104 -48c-2.66699 0 -4.66699 1 -6 3c-1.33301 1.33301 -2 3 -2 5v192l4 8l4 8l4 8l4 8l4 8l4 8l4 8l4 8l4 8l4 8l4 8l4 8l4 8l4 8l4 8l4 4l4 4l4 4l4 4l4 4l4 4l4 4l4 4l4 4h-184l-8 4v20l8 4h224c2 0 3.66699 -1 5 -3c2 -1.33301 3 -3 3 -5v-8l-8 -8l-8 -8l-8 -8l-8 -8
l-8 -8l-8 -8l-8 -8l-4 -8l-4 -8l-4 -8l-4 -8l-4 -8l-4 -8l-4 -8l-4 -8l-4 -8l-4 -8l-4 -8l-4 -8l-4 -8l-4 -8v-192l-4 -8h-20z" />
    <glyph glyph-name="eight" unicode="8" horiz-adv-x="256" 
d="M140 24l8 4l8 4l8 8l8 8l8 8l8 8l4 8l4 8l4 8v64l-4 8l-4 8l-4 8l-8 8l-8 8l-8 8l-8 8l-8 4l-8 4h-56l-8 -4l-8 -4l-8 -8l-8 -8l-8 -8l-8 -8l-4 -8l-4 -8l-4 -8v-64l4 -8l4 -8l4 -8l8 -8l8 -8l8 -8l8 -8l8 -4l8 -4h56zM132 244l8 4l8 8l8 8l8 8l4 8v48l-4 8l-8 8l-8 8
l-8 4l-8 4h-40l-8 -4l-8 -4l-8 -8l-8 -8l-4 -8v-48l4 -8l8 -8l8 -8l8 -8l8 -4h40zM84 -4l-8 4l-8 4l-8 4l-8 4l-8 4l-8 8l-8 8l-8 8l-8 8l-4 8l-4 8l-4 8l-4 8l-4 8v64l4 8l4 8l4 8l4 8l4 8l8 8l8 8l8 8l8 8l8 4l8 4l-8 8l-8 8l-4 8l-4 8l-4 8l-4 8v48l4 8l4 8l4 8l4 8l8 8
l8 8l8 4l8 4l8 4h56l8 -4l8 -4l8 -4l8 -8l8 -8l4 -8l4 -8l4 -8l4 -8v-48l-4 -8l-4 -8l-4 -8l-4 -8l-8 -8l-8 -8l8 -4l8 -4l8 -8l8 -8l8 -8l8 -8l4 -8l4 -8l4 -8l4 -8l4 -8v-64l-4 -8l-4 -8l-4 -8l-4 -8l-4 -8l-8 -8l-8 -8l-8 -8l-8 -8l-8 -4l-8 -4l-8 -4l-8 -4l-8 -4h-56z
" />
    <glyph glyph-name="nine" unicode="9" horiz-adv-x="256" 
d="M132 128l8 4l8 4l8 4l4 4l4 4l4 4l4 4l4 4l4 4l4 4l4 4l4 4l4 8l4 8v56l-4 8l-4 8l-4 4v0l-4 4l-4 4v0l-4 4l-4 4v0l-4 4l-4 4v0l-4 4l-4 4l-8 4l-8 4l-8 4h-40l-8 -4l-8 -4l-8 -4l-4 -4h-1l-3 -4l-4 -4h-1l-3 -4l-4 -4h-1l-3 -4l-4 -4h-1l-3 -4l-4 -4l-4 -8l-4 -8v-56
l4 -8l4 -8l4 -4v-1l4 -3l4 -4v-1l4 -3l4 -4v-1l4 -3l4 -4v-1l4 -3l4 -4l8 -4l8 -4l8 -4h40zM36 -48l-8 4v20l8 4h24l8 4l8 4l8 4l8 4l8 4l8 4l8 4l8 4l4 4l4 4l4 4l4 4l4 4l4 4l4 4l4 4l4 4l4 4l4 4l4 8l4 8l4 8l4 8l4 8l4 8l4 8l4 8v20l-4 -4l-8 -8l-8 -8l-8 -4l-8 -4
l-8 -4l-8 -4l-8 -4h-56l-8 4l-8 4l-8 4l-8 4l-8 4l-8 8l-8 8l-8 8l-8 8l-4 8l-4 8l-4 8l-4 8l-4 8v56l4 8l4 8l4 8l4 8l4 8l8 8l8 8l8 8l8 8l8 4l8 4l8 4l8 4l8 4h56l8 -4l8 -4l8 -4l8 -4l8 -4l8 -8l8 -8l8 -8l8 -8l4 -8l4 -8l4 -8l4 -8l4 -8v-128l-4 -8l-4 -8l-4 -8l-4 -8
l-4 -8l-4 -8l-4 -8l-4 -8l-4 -8l-4 -8h-1l-3 -4l-4 -4h-1l-3 -4l-4 -4h-1l-3 -4l-4 -4h-1l-3 -4l-4 -4h-1l-3 -4l-4 -4h-1l-3 -4l-4 -4h-1l-3 -4l-8 -4l-8 -4l-8 -4l-8 -4l-8 -4l-8 -4l-8 -4l-8 -4l-8 -4h-32z" />
    <glyph glyph-name="colon" unicode=":" horiz-adv-x="88" 
d="M24 0l-8 4l-8 4l-4 8l-4 8v8l4 8l4 8l8 4l8 4h8l8 -4l8 -4l4 -8l4 -8v-8l-4 -8l-4 -8l-8 -4l-8 -4h-8zM24 144l-8 4l-8 4l-4 8l-4 8v8l4 8l4 8l8 4l8 4h8l8 -4l8 -4l4 -8l4 -8v-8l-4 -8l-4 -8l-8 -4l-8 -4h-8z" />
    <glyph glyph-name="semicolon" unicode=";" horiz-adv-x="84" 
d="M0 -52v8l8 4l8 8l4 8l4 8v16l-8 4l-8 4l-4 8l-4 8v8l4 8l4 8l8 4l8 4h8l8 -4l8 -4l4 -8l4 -8l4 -8v-16l-4 -8l-4 -8l-4 -8l-8 -8l-8 -8l-8 -8l-8 -4l-8 -4l-8 -4v0zM24 144l-8 4l-8 4l-4 8l-4 8v8l4 8l4 8l8 4l8 4h8l8 -4l8 -4l4 -8l4 -8v-8l-4 -8l-4 -8l-8 -4l-8 -4h-8z
" />
    <glyph glyph-name="less" unicode="&#x3c;" horiz-adv-x="204" 
d="M164 84l-8 4l-8 4l-8 4l-8 4l-8 4l-8 4l-8 4l-8 4l-8 4l-8 4l-8 4l-8 4l-8 4l-8 4l-8 4l-8 4l-8 4l-8 4l-8 4l-8 4v0l-4 4l4 4l8 4l8 4l8 4l8 4l8 4l8 4l8 4l8 4l8 4l8 4l8 4l8 4l8 4l8 4l8 4l8 4l8 4l8 4l8 4l8 4l8 -4v-24l-8 -4l-8 -4l-8 -4l-8 -4l-8 -4l-8 -4l-8 -4
l-8 -4l-8 -4l-8 -4l-8 -4l-8 -4l-8 -4l-8 -4l8 -4l8 -4l8 -4l8 -4l8 -4l8 -4l8 -4l8 -4l8 -4l8 -4l8 -4l8 -4l8 -4l8 -4v-24l-8 -4v0z" />
    <glyph glyph-name="equal" unicode="=" horiz-adv-x="208" 
d="M8 132l-8 4v20l8 4h160l8 -4v-20l-8 -4h-160zM8 188l-8 4v20l8 4h160l8 -4v-20l-8 -4h-160z" />
    <glyph glyph-name="greater" unicode="&#x3e;" horiz-adv-x="196" 
d="M8 84l-8 4v24l8 4l8 4l8 4l8 4l8 4l8 4l8 4l8 4l8 4l8 4l8 4l8 4l8 4l8 4l-8 4l-8 4l-8 4l-8 4l-8 4l-8 4l-8 4l-8 4l-8 4l-8 4l-8 4l-8 4l-8 4l-8 4v24l8 4l8 -4l8 -4l8 -4l8 -4l8 -4l8 -4l8 -4l8 -4l8 -4l8 -4l8 -4l8 -4l8 -4l8 -4l8 -4l8 -4l8 -4l8 -4l8 -4l8 -4v-1
l3 -3h1h-1l-3 -4l-8 -4l-8 -4l-8 -4l-8 -4l-8 -4l-8 -4l-8 -4l-8 -4l-8 -4l-8 -4l-8 -4l-8 -4l-8 -4l-8 -4l-8 -4l-8 -4l-8 -4l-8 -4l-8 -4l-8 -4v0z" />
    <glyph glyph-name="question" unicode="?" horiz-adv-x="216" 
d="M80 0l-8 4l-8 4l-4 8l-4 8v8l4 8l4 8l8 4l8 4h8l8 -4l8 -4l4 -8l4 -8v-8l-4 -8l-4 -8l-8 -4l-8 -4h-8zM76 80l-4 8v72l4 8l4 4l4 4l4 4l4 4l4 4l8 4l8 4l8 4l8 8l8 8l8 8l4 8l4 8v24l-4 8l-4 8l-8 8l-8 8l-8 8l-8 4l-8 4h-32l-8 -4l-8 -4l-4 -8l4 -8v-8l-4 -8l-4 -8
l-8 -4l-8 -4h-8l-8 4l-8 4l-4 8l-4 8v8l4 8l4 8l8 8l8 8l8 4l8 4l8 4l8 4l8 4h48l8 -4l8 -4l8 -4l8 -4l8 -4l8 -8l8 -8l4 -8l4 -8l4 -8l4 -8v-40l-4 -8l-4 -8l-4 -8l-4 -8l-8 -8l-8 -8l-8 -4l-8 -4l-8 -4l-8 -4l-8 -8l-4 -8l-4 -8v-56l-4 -8h-24z" />
    <glyph glyph-name="at" unicode="@" horiz-adv-x="264" 
d="M112 116l8 4l4 8l4 8l4 8l4 8v32l-4 8l-4 4h-8l-8 -4l-4 -8l-4 -8l-4 -8l-4 -8v-32l4 -8l4 -4h8zM80 0l-8 4l-8 4l-8 4l-8 4l-8 8l-8 8l-8 8l-8 8l-4 8l-4 8l-4 8l-4 8v104l4 8l4 8l4 8l4 8l4 8l4 8l4 8l4 8l8 8l8 8l8 8l8 8l8 4l8 4l8 4l8 4l8 4l8 4h40l8 -4l8 -4l8 -4
l8 -4l8 -8l8 -8l8 -8l8 -8l4 -8l4 -8l4 -8l4 -8v-112l-4 -8h-1l-3 -4l-4 -4h-1l-3 -4l-8 -4l-8 -4h-24l-8 4l-8 4v0l-4 4l-4 4v0l-4 4l-2 2l-2 -2l-8 -8l-8 -4l-8 -4h-24l-8 4l-8 4l-8 8l-4 8l-4 8v48l4 8l4 8l4 8l4 8l8 8l8 8l8 4l8 4h24l8 -4l8 -4l8 -8l4 -8l4 -8v-64
l4 -8l4 -8h8l8 4l4 4l4 8v88l-4 8l-4 8l-4 8l-4 8l-8 8l-8 8l-8 4l-8 4l-8 4h-24l-8 -4l-8 -4l-8 -4l-8 -4l-4 -4h-1l-3 -4l-4 -4h-1l-3 -4l-4 -4h-1l-3 -4l-4 -4l-4 -8l-4 -8l-4 -8l-4 -8l-4 -8l-4 -8l-4 -8v-88l4 -8l4 -8l4 -8l4 -8l8 -8l8 -8l8 -4l8 -4l8 -4h64l8 4l8 4
l8 4l8 4l8 4l8 4l8 4l8 4l8 -4l8 -8v-8l-8 -8l-8 -4l-8 -4l-8 -4l-8 -4l-8 -4l-8 -4l-8 -4l-8 -4h-80z" />
    <glyph glyph-name="A" unicode="A" horiz-adv-x="432" 
d="M284 104l-4 8l-4 8l-4 8l-4 8l-4 8l-4 8l-4 8l-4 8l-4 8l-4 8l-4 8l-4 8l-4 8l-4 8l-4 8l-4 8l-4 8l-4 8l-4 8l-4 8l-4 8l-4 -8l-4 -8l-4 -8l-4 -8l-4 -8l-4 -8l-4 -8l-4 -8l-4 -8l-4 -8l-4 -8l-4 -8l-4 -8l-4 -8l-4 -8l-4 -8l-4 -8l-4 -8l-4 -8l-4 -8l-4 -8h168zM8 0
l-8 4v24l8 4h32l4 8l4 8l4 8l4 8l4 8l4 8l4 8l4 8l4 8l4 8l4 8l4 8l4 8l4 8l4 8l4 8l4 8l4 8l4 8l4 8l4 8l4 8l4 8l4 8l4 8l4 8l4 8l4 8l4 8l4 8l4 8l4 8l4 8l4 8l4 8l4 8l4 8l4 4l8 4l8 -4v-1l4 -3l4 -8l4 -8l4 -8l4 -8l4 -8l4 -8l4 -8l4 -8l4 -8l4 -8l4 -8l4 -8l4 -8l4 -8
l4 -8l4 -8l4 -8l4 -8l4 -8l4 -8l4 -8l4 -8l4 -8l4 -8l4 -8l4 -8l4 -8l4 -8l4 -8l4 -8l4 -8l4 -8l4 -8l4 -8l4 -8l4 -8l4 -8h32l8 -4v-24l-8 -4h-96l-8 4v24l8 4h24l-4 8l-4 8l-4 8l-4 8l-4 8h-200l-4 -8l-4 -8l-4 -8l-4 -8l-4 -8h24l8 -4v-24l-8 -4h-96z" />
    <glyph glyph-name="B" unicode="B" horiz-adv-x="300" 
d="M192 32l8 4l8 4l8 4l4 4l4 4l4 4l4 8l4 8l4 8v16l-4 8l-4 8l-4 8l-4 4v0l-4 4l-4 4v0l-4 4l-4 4l-8 4l-8 4l-8 4l-8 4l-8 4h-80v-128h104zM168 192l8 4l8 4l8 4l4 4l4 4l4 4l4 4l4 4l4 8l4 8l4 8v8l-4 8l-4 8l-4 8l-4 4v0l-4 4l-4 4l-8 4l-8 4l-8 4h-88v-112h80zM8 0
l-8 4v24l8 4h40v272h-40l-8 4v24l8 4h184l8 -4l8 -4l8 -4l8 -4l8 -8l8 -8l8 -8l4 -8l4 -8l4 -8v-40l-4 -8l-4 -8l-4 -8l-8 -8l-8 -8l-8 -8l-8 -4l-8 -4l8 -4l8 -4l8 -4l8 -4l8 -8l8 -8l8 -8l4 -8l4 -8l4 -8v-48l-4 -8l-4 -8l-4 -8l-8 -8l-8 -8l-8 -8l-8 -4l-8 -4l-8 -4
l-8 -4h-200z" />
    <glyph glyph-name="C" unicode="C" 
d="M100 -4l-8 4l-8 4l-8 4l-8 4l-8 4l-8 8l-8 8l-8 8l-8 8l-4 8l-4 8l-4 8l-4 8l-4 8l-4 8l-4 8v128l4 8l4 8l4 8l4 8l4 8l4 8l4 8l8 8l8 8l8 8l8 8l8 4l8 4l8 4l8 4l8 4h72l8 -4l8 -4l8 -4l8 -4l8 -4l8 -8l4 -4v20l4 8h32l4 -8v-112l-4 -8h-32l-4 8v24l-4 8l-4 8l-4 8l-4 8
l-4 4v0l-4 4l-4 4v0l-4 4l-4 4l-8 4l-8 4l-8 4l-8 4h-40l-8 -4l-8 -4l-8 -4l-8 -4l-4 -4h-1l-3 -4l-4 -4h-1l-3 -4l-4 -4l-4 -8l-4 -8l-4 -8l-4 -8l-4 -8l-4 -8v-112l4 -8l4 -8l4 -8l4 -8l4 -8l4 -8l4 -4v-1l4 -3l4 -4v-1l4 -3l4 -4l8 -4l8 -4l8 -4l8 -4h40l8 4l8 4l8 4l8 4
l4 4l4 4l4 4l4 4l4 4l4 8l4 8l4 8l8 4h24l8 -4v-8l-4 -8l-4 -8l-4 -8l-4 -8l-8 -8l-8 -8l-8 -8l-8 -8l-8 -4l-8 -4l-8 -4l-8 -4l-8 -4h-72z" />
    <glyph glyph-name="D" unicode="D" horiz-adv-x="300" 
d="M168 32l8 4l8 4l8 4l4 4l4 4l4 4l4 4l4 4l4 8l4 8l4 8l4 8l4 8l4 8v112l-4 8l-4 8l-4 8l-4 8l-4 8l-4 8l-4 4v0l-4 4l-4 4v0l-4 4l-4 4l-8 4l-8 4l-8 4h-80v-272h80zM8 0l-8 4v24l8 4h40v272h-40l-8 4v24l8 4h176l8 -4l8 -4l8 -4l8 -4l8 -8l8 -8l8 -8l8 -8l4 -8l4 -8
l4 -8l4 -8l4 -8l4 -8l4 -8v-128l-4 -8l-4 -8l-4 -8l-4 -8l-4 -8l-4 -8l-4 -8l-8 -8l-8 -8l-8 -8l-8 -8l-8 -4l-8 -4l-8 -4l-8 -4h-176z" />
    <glyph glyph-name="E" unicode="E" horiz-adv-x="304" 
d="M8 0l-8 4v24l8 4h40v272h-40l-8 4v24l8 4h256c2 0 3.66699 -1 5 -3c2 -1.33301 3 -3 3 -5v-112l-4 -8h-32l-4 8v88h-144v-112h48v32l4 8h32l4 -8v-96l-4 -8h-32l-4 8v32h-48v-128h144v88l4 8h32l4 -8v-112c0 -2.66699 -1 -4.66699 -3 -6c-1.33301 -1.33301 -3 -2 -5 -2
h-256z" />
    <glyph glyph-name="F" unicode="F" horiz-adv-x="304" 
d="M8 0l-8 4v24l8 4h40v272h-40l-8 4v24l8 4h256c2 0 3.66699 -1 5 -3c2 -1.33301 3 -3 3 -5v-112l-4 -8h-32l-4 8v88h-144v-112h48v32l4 8h32l4 -8v-96l-4 -8h-32l-4 8v32h-48v-128h40l8 -4v-24l-8 -4h-120z" />
    <glyph glyph-name="G" unicode="G" horiz-adv-x="324" 
d="M92 -4l-8 4l-8 4l-8 4l-8 4l-8 4l-8 8l-8 8l-8 8l-8 8l-4 8l-4 8l-4 8l-4 8l-4 8l-4 8l-4 8v128l4 8l4 8l4 8l4 8l4 8l4 8l4 8l8 8l8 8l8 8l8 8l8 4l8 4l8 4l8 4l8 4h72l8 -4l8 -4l8 -4l8 -4l8 -4l8 -8l4 -4v20l4 8h32l4 -8v-112l-4 -8h-32l-4 8v24l-4 8l-4 8l-4 8l-4 8
l-4 4v0l-4 4l-4 4v0l-4 4l-4 4l-8 4l-8 4l-8 4l-8 4h-40l-8 -4l-8 -4l-8 -4l-8 -4l-4 -4h-1l-3 -4l-4 -4h-1l-3 -4l-4 -4l-4 -8l-4 -8l-4 -8l-4 -8l-4 -8l-4 -8v-112l4 -8l4 -8l4 -8l4 -8l4 -8l4 -8l4 -4v-1l4 -3l4 -4v-1l4 -3l4 -4l8 -4l8 -4l8 -4l8 -4h40l8 4l8 4l8 4l8 4
l4 4l4 4l4 4l4 4l4 4l4 8l4 8l4 8l4 8v20h-36l-8 4v24l8 4h112l8 -4v-24l-8 -4h-36v-108l-4 -8h-32l-4 8v20l-4 -4l-8 -8l-8 -4l-8 -4l-8 -4l-8 -4l-8 -4h-72z" />
    <glyph glyph-name="H" unicode="H" horiz-adv-x="352" 
d="M8 0l-8 4v24l8 4h40v272h-40l-8 4v24l8 4h120l8 -4v-24l-8 -4h-40v-112h144v112h-40l-8 4v24l8 4h120l8 -4v-24l-8 -4h-40v-272h40l8 -4v-24l-8 -4h-120l-8 4v24l8 4h40v128h-144v-128h40l8 -4v-24l-8 -4h-120z" />
    <glyph glyph-name="I" unicode="I" horiz-adv-x="248" 
d="M8 0l-8 4v24l8 4h80v272h-80l-8 4v24l8 4h200l8 -4v-24l-8 -4h-80v-272h80l8 -4v-24l-8 -4h-200z" />
    <glyph glyph-name="J" unicode="J" horiz-adv-x="312" 
d="M72 -4l-8 4l-8 4l-8 4l-8 8l-8 8l-8 8l-8 8l-4 8l-4 8l-4 8l-4 8v24l4 8l4 8l8 4l8 4h8l8 -4l8 -4l4 -8l4 -8v-8l-4 -8l-4 -8v-8l4 -8l4 -4v-1l4 -3l4 -4v-1l4 -3l4 -4l8 -4l8 -4h32l8 4l8 4l4 4l4 4l4 4l4 4l4 4l4 8l4 8l4 8l4 8l4 8v208h-56l-8 4v24l8 4h152l8 -4v-24
l-8 -4h-56v-216l-4 -8l-4 -8l-4 -8l-4 -8l-4 -8l-4 -8l-8 -8l-8 -8l-8 -8l-8 -8l-8 -4l-8 -4l-8 -4h-64z" />
    <glyph glyph-name="K" unicode="K" horiz-adv-x="312" 
d="M8 0l-8 4v24l8 4h32v272h-32l-8 4v24l8 4h96l8 -4v-24l-8 -4h-24v-100l4 4l4 4l4 4l4 4l4 4l4 4l4 4l4 4l4 4l4 4l4 4l4 4l4 4l4 4l4 4l4 4l4 4l4 4l4 4l4 4l4 4l4 4l4 4l4 4l4 4h-28l-8 4v24l8 4h96l8 -4v-24l-8 -4h-24l-8 -8l-8 -8l-8 -8l-8 -8l-8 -8l-8 -8l-8 -8
l-8 -8l-8 -8l-8 -8l4 -8l4 -8l4 -8l4 -8l4 -8l4 -8l4 -8l4 -8l4 -8l4 -8l4 -8l4 -8l4 -8l4 -8l4 -8l4 -8l4 -8l4 -8l4 -8l4 -8l4 -8l4 -8l4 -8l4 -8h32l8 -4v-24l-8 -4h-112l-8 4v24l8 4h40l-4 8l-4 8l-4 8l-4 8l-4 8l-4 8l-4 8l-4 8l-4 8l-4 8l-4 8l-4 8l-4 8l-4 8l-4 8
l-4 8l-4 8l-4 8l-4 8l-4 8v8l-8 -8l-8 -8l-8 -8l-8 -8l-8 -8v-128h24l8 -4v-24l-8 -4h-96z" />
    <glyph glyph-name="L" unicode="L" 
d="M8 0l-8 4v24l8 4h40v272h-40l-8 4v24l8 4h120l8 -4v-24l-8 -4h-40v-272h128v88l4 8h32l4 -8v-112c0 -2.66699 -1 -4.66699 -3 -6c-1.33301 -1.33301 -3 -2 -5 -2h-240z" />
    <glyph glyph-name="M" unicode="M" horiz-adv-x="432" 
d="M8 0l-8 4v24l8 4h40v272h-40l-8 4v24l8 4h104l4 -8l4 -8l4 -8l4 -8l4 -8l4 -8l4 -8l4 -8l4 -8l4 -8l4 -8l4 -8l4 -8l4 -8l4 -8l4 -8l4 -8l4 -8l4 -8l4 -8l4 -8l4 -8l4 8l4 8l4 8l4 8l4 8l4 8l4 8l4 8l4 8l4 8l4 8l4 8l4 8l4 8l4 8l4 8l4 8l4 8l4 8l4 8l4 8l4 8h104l8 -4
v-24l-8 -4h-40v-272h40l8 -4v-24l-8 -4h-120l-8 4v24l8 4h40v272l-4 -8l-4 -8l-4 -8l-4 -8l-4 -8l-4 -8l-4 -8l-4 -8l-4 -8l-4 -8l-4 -8l-4 -8l-4 -8l-4 -8l-4 -8l-4 -8l-4 -8l-4 -8l-4 -8l-4 -8l-4 -8l-4 -8l-4 -8l-4 -8l-4 -8l-4 -8h-16l-4 8l-4 8l-4 8l-4 8l-4 8l-4 8
l-4 8l-4 8l-4 8l-4 8l-4 8l-4 8l-4 8l-4 8l-4 8l-4 8l-4 8l-4 8l-4 8l-4 8l-4 8l-4 8l-4 8l-4 8l-4 8l-4 8v-272h40l8 -4v-24l-8 -4h-120z" />
    <glyph glyph-name="N" unicode="N" horiz-adv-x="376" 
d="M8 0l-8 4v24l8 4h40v272h-40l-8 4v24l8 4h104l4 -8l4 -8l4 -8l4 -8l4 -8l4 -8l4 -8l4 -8l4 -8l4 -8l4 -8l4 -8l4 -8l4 -8l4 -8l4 -8l4 -8l4 -8l4 -8l4 -8l4 -8l4 -8l4 -8l4 -8l4 -8l4 -8l4 -8l4 -8l4 -8l4 -8l4 -8l4 -8l4 -8l4 -8l4 -8l4 -8v256h-40l-8 4v24l8 4h120
l8 -4v-24l-8 -4h-40v-296l-4 -8h-52l-4 8l-4 8l-4 8l-4 8l-4 8l-4 8l-4 8l-4 8l-4 8l-4 8l-4 8l-4 8l-4 8l-4 8l-4 8l-4 8l-4 8l-4 8l-4 8l-4 8l-4 8l-4 8l-4 8l-4 8l-4 8l-4 8l-4 8l-4 8l-4 8l-4 8l-4 8l-4 8l-4 8l-4 8l-4 8l-4 8l-4 8l-4 8v-272h40l8 -4v-24l-8 -4h-120z
" />
    <glyph glyph-name="O" unicode="O" 
d="M148 28l8 4l8 4l8 4l8 4l4 4l4 4l4 4l4 4l4 4l4 8l4 8l4 8l4 8l4 8l4 8v112l-4 8l-4 8l-4 8l-4 8l-4 8l-4 8l-4 4v0l-4 4l-4 4v0l-4 4l-4 4l-8 4l-8 4l-8 4l-8 4h-40l-8 -4l-8 -4l-8 -4l-8 -4l-4 -4h-1l-3 -4l-4 -4h-1l-3 -4l-4 -4l-4 -8l-4 -8l-4 -8l-4 -8l-4 -8l-4 -8
v-112l4 -8l4 -8l4 -8l4 -8l4 -8l4 -8l4 -4v-1l4 -3l4 -4v-1l4 -3l4 -4l8 -4l8 -4l8 -4l8 -4h40zM92 -4l-8 4l-8 4l-8 4l-8 4l-8 4l-8 8l-8 8l-8 8l-8 8l-4 8l-4 8l-4 8l-4 8l-4 8l-4 8l-4 8v128l4 8l4 8l4 8l4 8l4 8l4 8l4 8l8 8l8 8l8 8l8 8l8 4l8 4l8 4l8 4l8 4h72l8 -4
l8 -4l8 -4l8 -4l8 -4l8 -8l8 -8l8 -8l8 -8l4 -8l4 -8l4 -8l4 -8l4 -8l4 -8l4 -8v-128l-4 -8l-4 -8l-4 -8l-4 -8l-4 -8l-4 -8l-4 -8l-8 -8l-8 -8l-8 -8l-8 -8l-8 -4l-8 -4l-8 -4l-8 -4l-8 -4h-72z" />
    <glyph glyph-name="P" unicode="P" horiz-adv-x="284" 
d="M184 200l8 4l4 4l4 4l4 4l4 4l4 4l4 8l4 8v24l-4 8l-4 8l-4 4v0l-4 4l-4 4v0l-4 4l-4 4l-8 4h-96v-104h96zM8 0l-8 4v24l8 4h40v272h-40l-8 4v24l8 4h184l8 -4l8 -4l8 -4l8 -4l8 -8l8 -8l8 -8l4 -8l4 -8l4 -8v-40l-4 -8l-4 -8l-4 -8l-8 -8l-8 -8l-8 -8l-8 -4l-8 -4l-8 -4
l-8 -4h-104v-136h40l8 -4v-24l-8 -4h-120z" />
    <glyph glyph-name="Q" unicode="Q" horiz-adv-x="324" 
d="M164 28l8 4l8 4v28l-4 8l-4 8l-4 8l-4 4v0l-4 4l-4 4l-8 4h-40l-8 -4l-4 -4h-1l-3 -4l-4 -4l-4 -8l-4 -8l-4 -8v-28l8 -4l8 -4h72zM212 80l4 8l4 8l4 8v128l-4 8l-4 8l-4 8l-4 8l-4 8l-4 8l-4 4v0l-4 4l-4 4v0l-4 4l-4 4l-8 4l-8 4h-72l-8 -4l-8 -4l-4 -4h-1l-3 -4l-4 -4
h-1l-3 -4l-4 -4l-4 -8l-4 -8l-4 -8l-4 -8l-4 -8l-4 -8v-128l4 -8l4 -8l4 -8l4 8l4 8l8 8l8 8l8 8l8 4l8 4l8 4l8 4h40l8 -4l8 -4l8 -4l8 -4l8 -8l8 -8l8 -8l4 -8l4 -8v0zM228 -56l-8 4l-8 4l-8 8l-8 8l-4 8l-4 8l-4 8l-4 8v4l-8 -4l-8 -4h-72l-8 4l-8 4l-8 4l-8 4l-8 4l-8 8
l-8 8l-8 8l-8 8l-4 8l-4 8l-4 8l-4 8l-4 8l-4 8l-4 8v128l4 8l4 8l4 8l4 8l4 8l4 8l4 8l8 8l8 8l8 8l8 8l8 4l8 4l8 4l8 4l8 4h72l8 -4l8 -4l8 -4l8 -4l8 -4l8 -8l8 -8l8 -8l8 -8l4 -8l4 -8l4 -8l4 -8l4 -8l4 -8l4 -8v-128l-4 -8l-4 -8l-4 -8l-4 -8l-4 -8l-4 -8l-4 -8l-8 -8
l-8 -8v-40l4 -8l4 -4l8 -4h8l8 4l4 4l4 8l4 8h32l4 -8v-8l-4 -8l-4 -8l-8 -8l-8 -8l-8 -4l-8 -4h-32z" />
    <glyph glyph-name="R" unicode="R" horiz-adv-x="320" 
d="M184 200l8 4l4 4l4 4l4 4l4 4l4 4l4 8l4 8v24l-4 8l-4 8l-4 4v0l-4 4l-4 4v0l-4 4l-4 4l-8 4h-96v-104h96zM8 0l-8 4v24l8 4h40v272h-40l-8 4v24l8 4h184l8 -4l8 -4l8 -4l8 -4l8 -8l8 -8l8 -8l4 -8l4 -8l4 -8v-40l-4 -8l-4 -8l-4 -8l-8 -8l-8 -8l-8 -8l-8 -4l-8 -4l-8 -4
l-8 -4l8 -8l8 -8l4 -8l4 -8l4 -8l4 -8l4 -8l4 -8l4 -8l4 -8v-56h40l8 -4v-24l-8 -4h-72c-2.66699 0 -4.66699 0.666992 -6 2s-2 3.33301 -2 6v72l-4 8l-4 8l-4 8l-4 8l-4 8l-4 8l-4 8l-4 4v0l-4 4l-4 4v0l-4 4l-4 4v0l-4 4l-4 4v0l-4 4h-52v-136h40l8 -4v-24l-8 -4h-120z
" />
    <glyph glyph-name="S" unicode="S" horiz-adv-x="272" 
d="M88 -4l-8 4l-8 4l-8 4l-8 8v-8l-4 -8h-28l-4 8v96l4 8h28l4 -8v-16l4 -8l4 -8l4 -8l4 -8l4 -8l4 -4v-1l4 -3l4 -4l8 -4l8 -4h56l8 4l8 4l4 4l4 4l4 4l4 8l4 8l4 8v32l-4 8l-4 8l-4 8l-4 4v0l-4 4l-4 4v0l-4 4l-4 4l-8 4l-8 4l-8 4h-72l-8 4l-8 4l-8 4l-8 4l-8 8l-8 8
l-8 8l-4 8l-4 8l-4 8l-4 8v40l4 8l4 8l4 8l4 8l8 8l8 8l8 8l8 4l8 4l8 4h88l8 -4l8 -4l8 -4l8 -8v8l4 8h28l4 -8v-96l-4 -8h-28l-4 8v16l-4 8l-4 8l-4 8l-4 8l-4 8l-4 4v0l-4 4l-4 4l-8 4l-8 4h-56l-8 -4l-8 -4l-4 -4h-1l-3 -4l-4 -4l-4 -8l-4 -8l-4 -8v-24l4 -8l4 -8l4 -8
l4 -4v-1l4 -3l4 -4l8 -4l8 -4l8 -4h72l8 -4l8 -4l8 -4l8 -4l8 -8l8 -8l8 -8l8 -8l4 -8l4 -8l4 -8l4 -8v-48l-4 -8l-4 -8l-4 -8l-4 -8l-8 -8l-8 -8l-8 -8l-8 -4l-8 -4l-8 -4h-88z" />
    <glyph glyph-name="T" unicode="T" horiz-adv-x="312" 
d="M40 0l-8 4v24l8 4h80v272h-80v-88l-4 -8h-32l-4 8v112c0 2 0.666992 3.66699 2 5c1.33301 2 3.33301 3 6 3h264c2 0 3.66699 -1 5 -3c2 -1.33301 3 -3 3 -5v-112l-4 -8h-32l-4 8v88h-80v-272h80l8 -4v-24l-8 -4h-200z" />
    <glyph glyph-name="U" unicode="U" horiz-adv-x="352" 
d="M120 -4l-8 4l-8 4l-8 4l-8 8l-8 8l-8 8l-8 8l-4 8l-4 8l-4 8l-4 8v232h-40l-8 4v24l8 4h120l8 -4v-24l-8 -4h-40v-224l4 -8l4 -8l4 -8l4 -4v-1l4 -3l4 -4l8 -4l8 -4l8 -4l8 -4h32l8 4l8 4l8 4l8 4l4 4l4 4l4 4l4 8l4 8l4 8v224h-40l-8 4v24l8 4h120l8 -4v-24l-8 -4h-40
v-232l-4 -8l-4 -8l-4 -8l-4 -8l-8 -8l-8 -8l-8 -8l-8 -8l-8 -4l-8 -4l-8 -4h-80z" />
    <glyph glyph-name="V" unicode="V" horiz-adv-x="368" 
d="M152 0l-4 8l-4 8l-4 8l-4 8l-4 8l-4 8l-4 8l-4 8l-4 8l-4 8l-4 8l-4 8l-4 8l-4 8l-4 8l-4 8l-4 8l-4 8l-4 8l-4 8l-4 8l-4 8l-4 8l-4 8l-4 8l-4 8l-4 8l-4 8l-4 8l-4 8l-4 8l-4 8l-4 8l-4 8l-4 8l-4 8l-4 8l-4 8h-24l-8 4v24l8 4h88l8 -4v-24l-8 -4h-24l4 -8l4 -8l4 -8
l4 -8l4 -8l4 -8l4 -8l4 -8l4 -8l4 -8l4 -8l4 -8l4 -8l4 -8l4 -8l4 -8l4 -8l4 -8l4 -8l4 -8l4 -8l4 -8l4 -8l4 -8l4 -8l4 -8l4 -8l4 -8l4 8l4 8l4 8l4 8l4 8l4 8l4 8l4 8l4 8l4 8l4 8l4 8l4 8l4 8l4 8l4 8l4 8l4 8l4 8l4 8l4 8l4 8l4 8l4 8l4 8l4 8l4 8l4 8h-16l-8 4v24l8 4
h80l8 -4v-24l-8 -4h-24l-4 -8l-4 -8l-4 -8l-4 -8l-4 -8l-4 -8l-4 -8l-4 -8l-4 -8l-4 -8l-4 -8l-4 -8l-4 -8l-4 -8l-4 -8l-4 -8l-4 -8l-4 -8l-4 -8l-4 -8l-4 -8l-4 -8l-4 -8l-4 -8l-4 -8l-4 -8l-4 -8l-4 -8l-4 -8l-4 -8l-4 -8l-4 -8l-4 -8l-4 -8l-4 -8l-4 -8l-4 -8l-4 -8v0z
" />
    <glyph glyph-name="W" unicode="W" horiz-adv-x="544" 
d="M152 0l-4 8l-4 8l-4 8l-4 8l-4 8l-4 8l-4 8l-4 8l-4 8l-4 8l-4 8l-4 8l-4 8l-4 8l-4 8l-4 8l-4 8l-4 8l-4 8l-4 8l-4 8l-4 8l-4 8l-4 8l-4 8l-4 8l-4 8l-4 8l-4 8l-4 8l-4 8l-4 8l-4 8l-4 8l-4 8l-4 8l-4 8l-4 8h-24l-8 4v24l8 4h88l8 -4v-24l-8 -4h-24l4 -8l4 -8l4 -8
l4 -8l4 -8l4 -8l4 -8l4 -8l4 -8l4 -8l4 -8l4 -8l4 -8l4 -8l4 -8l4 -8l4 -8l4 -8l4 -8l4 -8l4 -8l4 -8l4 -8l4 -8l4 -8l4 -8l4 -8l4 -8l4 8l4 8l4 8l4 8l4 8l4 8l4 8l4 8l4 8l4 8l4 8l4 8l4 8l4 8l4 8l4 8l4 8l-4 8l-4 8l-4 8l-4 8l-4 8l-4 8l-4 8l-4 8l-4 8l-4 8l-4 8h-24
l-8 4v24l8 4h88l8 -4v-24l-8 -4h-24l4 -8l4 -8l4 -8l4 -8l4 -8l4 -8l4 -8l4 -8l4 -8l4 -8l4 -8l4 -8l4 -8l4 -8l4 -8l4 -8l4 -8l4 -8l4 -8l4 -8l4 -8l4 -8l4 -8l4 -8l4 -8l4 -8l4 -8l4 -8l4 8l4 8l4 8l4 8l4 8l4 8l4 8l4 8l4 8l4 8l4 8l4 8l4 8l4 8l4 8l4 8l4 8l4 8l4 8l4 8
l4 8l4 8l4 8l4 8l4 8l4 8l4 8l4 8h-24l-8 4v24l8 4h88l8 -4v-24l-8 -4h-24l-4 -8l-4 -8l-4 -8l-4 -8l-4 -8l-4 -8l-4 -8l-4 -8l-4 -8l-4 -8l-4 -8l-4 -8l-4 -8l-4 -8l-4 -8l-4 -8l-4 -8l-4 -8l-4 -8l-4 -8l-4 -8l-4 -8l-4 -8l-4 -8l-4 -8l-4 -8l-4 -8l-4 -8l-4 -8l-4 -8
l-4 -8l-4 -8l-4 -8l-4 -8l-4 -8l-4 -8l-4 -8l-4 -8l-4 8l-4 8l-4 8l-4 8l-4 8l-4 8l-4 8l-4 8l-4 8l-4 8l-4 8l-4 8l-4 8l-4 8l-4 8l-4 8l-4 8l-4 8l-4 8l-4 8l-4 8l-4 8l-4 -8l-4 -8l-4 -8l-4 -8l-4 -8l-4 -8l-4 -8l-4 -8l-4 -8l-4 -8l-4 -8l-4 -8l-4 -8l-4 -8l-4 -8l-4 -8
l-4 -8l-4 -8l-4 -8l-4 -8l-4 -8l-4 -8v0z" />
    <glyph glyph-name="X" unicode="X" horiz-adv-x="312" 
d="M8 0l-8 4v24l8 4h32l4 8l4 8l4 8l4 8l4 8l4 8l4 8l4 8l4 8l4 8l4 8l4 8l4 8l4 8l4 8l4 8l4 8l4 8l-4 8l-4 8l-4 8l-4 8l-4 8l-4 8l-4 8l-4 8l-4 8l-4 8l-4 8l-4 8l-4 8l-4 8l-4 8l-4 8h-32l-8 4v24l8 4h104l8 -4v-24l-8 -4h-32l4 -8l4 -8l4 -8l4 -8l4 -8l4 -8l4 -8l4 -8
l4 -8l4 -8l4 -8l4 -8l4 -8l4 8l4 8l4 8l4 8l4 8l4 8l4 8l4 8l4 8l4 8l4 8l4 8l4 8h-32l-8 4v24l8 4h104l8 -4v-24l-8 -4h-32l-4 -8l-4 -8l-4 -8l-4 -8l-4 -8l-4 -8l-4 -8l-4 -8l-4 -8l-4 -8l-4 -8l-4 -8l-4 -8l-4 -8l-4 -8l-4 -8l4 -8l4 -8l4 -8l4 -8l4 -8l4 -8l4 -8l4 -8
l4 -8l4 -8l4 -8l4 -8l4 -8l4 -8l4 -8l4 -8l4 -8l4 -8h32l8 -4v-24l-8 -4h-104l-8 4v24l8 4h32l-4 8l-4 8l-4 8l-4 8l-4 8l-4 8l-4 8l-4 8l-4 8l-4 8l-4 8l-4 8l-4 8l-4 8l-4 8l-4 -8l-4 -8l-4 -8l-4 -8l-4 -8l-4 -8l-4 -8l-4 -8l-4 -8l-4 -8l-4 -8l-4 -8l-4 -8l-4 -8l-4 -8
h32l8 -4v-24l-8 -4h-104z" />
    <glyph glyph-name="Y" unicode="Y" horiz-adv-x="328" 
d="M48 0l-8 4v24l8 4h80v96l-4 8l-4 8l-4 8l-4 8l-4 8l-4 8l-4 8l-4 8l-4 8l-4 8l-4 8l-4 8l-4 8l-4 8l-4 8l-4 8l-4 8l-4 8l-4 8l-4 8l-4 8l-4 8h-32l-8 4v24l8 4h104l8 -4v-24l-8 -4h-32l4 -8l4 -8l4 -8l4 -8l4 -8l4 -8l4 -8l4 -8l4 -8l4 -8l4 -8l4 -8l4 -8l4 -8l4 -8
l4 -8l4 -8l4 8l4 8l4 8l4 8l4 8l4 8l4 8l4 8l4 8l4 8l4 8l4 8l4 8l4 8l4 8l4 8l4 8h-32l-8 4v24l8 4h104l8 -4v-24l-8 -4h-32l-4 -8l-4 -8l-4 -8l-4 -8l-4 -8l-4 -8l-4 -8l-4 -8l-4 -8l-4 -8l-4 -8l-4 -8l-4 -8l-4 -8l-4 -8l-4 -8l-4 -8l-4 -8l-4 -8l-4 -8l-4 -8l-4 -8v-96
h80l8 -4v-24l-8 -4h-200z" />
    <glyph glyph-name="Z" unicode="Z" horiz-adv-x="232" 
d="M8 0c-2.66699 0 -4.66699 0.666992 -6 2s-2 3.33301 -2 6v8l4 8l4 8l4 8l4 8l4 8l4 8l4 8l4 8l4 8l4 8l4 8l4 8l4 8l4 8l4 8l4 8l4 8l4 8l4 8l4 8l4 8l4 8l4 8l4 8l4 8l4 8l4 8l4 8l4 8l4 8l4 8l4 8l4 8l4 8l4 8l4 8h-112v-72l-4 -8h-24l-4 8v96
c0 2 0.666992 3.66699 2 5c1.33301 2 3.33301 3 6 3h176c2 0 3.66699 -1 5 -3c2 -1.33301 3 -3 3 -5v-8l-4 -8l-4 -8l-4 -8l-4 -8l-4 -8l-4 -8l-4 -8l-4 -8l-4 -8l-4 -8l-4 -8l-4 -8l-4 -8l-4 -8l-4 -8l-4 -8l-4 -8l-4 -8l-4 -8l-4 -8l-4 -8l-4 -8l-4 -8l-4 -8l-4 -8l-4 -8
l-4 -8l-4 -8l-4 -8l-4 -8l-4 -8l-4 -8l-4 -8l-4 -8l-4 -8l-4 -8h120v72l4 8h24l4 -8v-96c0 -2.66699 -1 -4.66699 -3 -6c-1.33301 -1.33301 -3 -2 -5 -2h-184z" />
    <glyph glyph-name="bracketleft" unicode="[" horiz-adv-x="128" 
d="M8 -64c-2.66699 0 -4.66699 1 -6 3c-1.33301 1.33301 -2 3 -2 5v448c0 2 0.666992 3.66699 2 5c1.33301 2 3.33301 3 6 3h80l8 -4v-20l-8 -4h-56v-408h56l8 -4v-20l-8 -4h-80z" />
    <glyph glyph-name="backslash" unicode="\" horiz-adv-x="216" 
d="M168 0l-4 4v0l-4 4l-4 8l-4 8l-4 8l-4 8l-4 8l-4 8l-4 8l-4 8l-4 8l-4 8l-4 8l-4 8l-4 8l-4 8l-4 8l-4 8l-4 8l-4 8l-4 8l-4 8l-4 8l-4 8l-4 8l-4 8l-4 8l-4 8l-4 8l-4 8l-4 8l-4 8l-4 8l-4 8l-4 8l-4 8l-4 8l-4 8l-4 8l-4 8l-4 8l-4 8l4 8h20l4 -4v-1l4 -3l4 -8l4 -8
l4 -8l4 -8l4 -8l4 -8l4 -8l4 -8l4 -8l4 -8l4 -8l4 -8l4 -8l4 -8l4 -8l4 -8l4 -8l4 -8l4 -8l4 -8l4 -8l4 -8l4 -8l4 -8l4 -8l4 -8l4 -8l4 -8l4 -8l4 -8l4 -8l4 -8l4 -8l4 -8l4 -8l4 -8l4 -8l4 -8l4 -8l4 -8l-4 -8h-20z" />
    <glyph glyph-name="bracketright" unicode="]" horiz-adv-x="128" 
d="M8 -64l-8 4v20l8 4h56v408h-56l-8 4v20l8 4h80c2 0 3.66699 -1 5 -3c2 -1.33301 3 -3 3 -5v-448c0 -2 -1 -3.66699 -3 -5c-1.33301 -2 -3 -3 -5 -3h-80z" />
    <glyph glyph-name="asciicircum" unicode="^" horiz-adv-x="224" 
d="M0 344v4l4 4l4 4l4 4l4 4l4 4l4 4l4 4l4 4l4 4l4 4l4 4l4 4l4 4l4 4l4 4l4 4l4 4l4 4l4 4l4 4l4 4l4 4l4 4h8l4 -4v-1l4 -3l4 -4v-1l4 -3l4 -4v-1l4 -3l4 -4v-1l4 -3l4 -4v-1l4 -3l4 -4v-1l4 -3l4 -4v-1l4 -3l4 -4v-1l4 -3l4 -4v-1l4 -3l4 -4v-1l4 -3l4 -4v-1l4 -3l4 -4
v-4h-32l-8 8l-8 8l-8 8l-8 8l-8 8l-8 8l-8 8l-8 8l-8 -8l-8 -8l-8 -8l-8 -8l-8 -8l-8 -8l-8 -8l-8 -8h-32z" />
    <glyph glyph-name="underscore" unicode="_" horiz-adv-x="264" 
d="M8 -36l-8 4v20l8 4h216l8 -4v-20l-8 -4h-216z" />
    <glyph glyph-name="grave" unicode="`" horiz-adv-x="128" 
d="M84 344l-8 8l-8 8l-8 8l-8 8l-8 8l-8 8l-8 8l-8 8l-8 8l-8 8l-4 8l4 8l8 4h8v-1l4 -3l4 -4v-1l4 -3l4 -4v-1l4 -3l4 -4v-1l4 -3l4 -4v-1l4 -3l4 -4v-1l4 -3l4 -4v-1l4 -3l4 -4v-1l4 -3l4 -4v-1l4 -3l4 -4v-1l4 -3l4 -4v-1l4 -3l-4 -8l-8 -8h-8z" />
    <glyph glyph-name="a" unicode="a" horiz-adv-x="272" 
d="M104 24l8 4l8 4l8 8l8 8l4 8l4 8l4 8l4 8v28l-8 4l-8 4l-8 4h-40l-8 -4l-8 -4l-8 -4l-8 -4l-8 -8l-8 -8l-4 -8l-4 -8v-8l4 -8l4 -8l8 -8l8 -8l8 -4l8 -4h32zM64 -4l-8 4l-8 4l-8 4l-8 4l-8 4l-8 8l-8 8l-4 8l-4 8v40l4 8l4 8l8 8l8 8l8 8l8 4l8 4l8 4l8 4l8 4h64l8 4l4 8
l4 8v8l-4 8l-4 8l-8 8l-8 4l-8 4l-8 4h-32l-8 -4l-8 -4l-4 -4l4 -8v-8l-4 -8l-4 -8l-8 -4l-8 -4h-8l-8 4l-8 4l-4 8l-4 8v8l4 8l4 8l8 8l8 8l8 4l8 4l8 4l8 4h64l8 -4l8 -4l8 -4l8 -4l8 -8l8 -8l4 -8l4 -8v-144l4 -8l4 -8l8 -8h8l8 8l8 8h12l4 -8v-8l-4 -8l-4 -8l-8 -4
l-8 -4h-32l-8 4l-8 4l-4 8l-4 8l-8 -8l-8 -8l-8 -4l-8 -4l-8 -4h-56z" />
    <glyph glyph-name="b" unicode="b" horiz-adv-x="236" 
d="M120 24l8 4l8 4l8 8l8 8l8 8l8 8l4 8l4 8l4 8v56l-4 8l-4 8l-4 8l-8 8l-8 8l-8 8l-8 8l-8 4l-8 4h-24l-8 -4l-8 -4l-8 -8l-8 -8l-8 -8l-8 -8l-4 -8l-4 -8l-4 -8l-4 -8v-40l4 -8l4 -8l4 -8l4 -8l8 -8l8 -8l8 -8l8 -8l8 -4l8 -4h24zM80 -4l-8 4l-8 4l-8 4l-8 8l-8 8l-8 8
v-24l-4 -8h-24l-4 8v300h-40l-8 4v20l8 4h64c2 0 3.66699 -1 5 -3c2 -1.33301 3 -3 3 -5v-128l8 8l8 8l8 8l8 4l8 4l8 4h56l8 -4l8 -4l8 -4l8 -8l8 -8l8 -8l8 -8l4 -8l4 -8l4 -8l4 -8l4 -8v-72l-4 -8l-4 -8l-4 -8l-4 -8l-4 -8l-8 -8l-8 -8l-8 -8l-8 -8l-8 -4l-8 -4l-8 -4
h-56z" />
    <glyph glyph-name="c" unicode="c" horiz-adv-x="244" 
d="M92 -4l-8 4l-8 4l-8 4l-8 4l-8 4l-8 8l-8 8l-8 8l-8 8l-4 8l-4 8l-4 8l-4 8l-4 8v56l4 8l4 8l4 8l4 8l4 8l8 8l8 8l8 8l8 8l8 4l8 4l8 4l8 4l8 4h56l8 -4l8 -4l8 -4l8 -4l8 -4l8 -8l8 -8l4 -8l4 -8v-8l-4 -8l-4 -8l-8 -4l-8 -4h-8l-8 4l-8 4l-4 8l-4 8v8l4 8l-4 4l-8 4
l-8 4l-8 4h-24l-8 -4l-8 -4l-8 -4l-8 -4l-8 -8l-8 -8l-8 -8l-8 -8l-4 -8l-4 -8l-4 -8v-40l4 -8l4 -8l4 -8l8 -8l8 -8l8 -8l8 -8l8 -4l8 -4l8 -4l8 -4h40l8 4l8 4l8 4l8 4l8 4h8l8 -4l8 -8v-8l-8 -8l-8 -4l-8 -4l-8 -4l-8 -4l-8 -4h-72z" />
    <glyph glyph-name="d" unicode="d" horiz-adv-x="284" 
d="M108 24l8 4l8 4l8 8l8 8l8 8l8 8l4 8l4 8l4 8l4 8v40l-4 8l-4 8l-4 8l-4 8l-8 8l-8 8l-8 8l-8 8l-8 4l-8 4h-24l-8 -4l-8 -4l-8 -8l-8 -8l-8 -8l-8 -8l-4 -8l-4 -8l-4 -8v-56l4 -8l4 -8l4 -8l8 -8l8 -8l8 -8l8 -8l8 -4l8 -4h24zM68 -4l-8 4l-8 4l-8 4l-8 8l-8 8l-8 8
l-8 8l-4 8l-4 8l-4 8l-4 8l-4 8v72l4 8l4 8l4 8l4 8l4 8l8 8l8 8l8 8l8 8l8 4l8 4l8 4h56l8 -4l8 -4l8 -4l8 -8l8 -8l8 -8v108h-40l-8 4v20l8 4h64c2 0 3.66699 -1 5 -3c2 -1.33301 3 -3 3 -5v-300h40l8 -4v-20l-8 -4h-72v32l-8 -8l-8 -8l-8 -8l-8 -4l-8 -4l-8 -4h-56z" />
    <glyph glyph-name="e" unicode="e" horiz-adv-x="264" 
d="M208 136l-4 8l-4 8l-4 8l-8 8l-8 8l-8 8l-8 8l-8 4l-8 4l-8 4l-8 4h-24l-8 -4l-8 -4l-8 -4l-8 -4l-8 -8l-8 -8l-8 -8l-8 -8l-4 -8l-4 -8l-4 -8h176zM92 -4l-8 4l-8 4l-8 4l-8 4l-8 4l-8 8l-8 8l-8 8l-8 8l-4 8l-4 8l-4 8l-4 8l-4 8v56l4 8l4 8l4 8l4 8l4 8l8 8l8 8l8 8
l8 8l8 4l8 4l8 4l8 4l8 4h56l8 -4l8 -4l8 -4l8 -4l8 -4l8 -8l8 -8l8 -8l8 -8l4 -8l4 -8l4 -8l4 -8l4 -8v-32h-1l-3 -4h-204v-12l4 -8l4 -8l4 -8l8 -8l8 -8l8 -8l8 -8l8 -4l8 -4l8 -4l8 -4h40l8 4l8 4l8 4l8 4l8 4h8l8 -4l8 -8v-8l-8 -8l-8 -4l-8 -4l-8 -4l-8 -4l-8 -4h-72z
" />
    <glyph glyph-name="f" unicode="f" horiz-adv-x="200" 
d="M8 0l-8 4v20l8 4h40v176h-40l-8 4v20l8 4h40v40l4 8l4 8l4 8l4 8l8 8l8 8l8 4l8 4l8 4l8 4h48l8 -4l8 -4l8 -4l8 -4l8 -8l8 -8l4 -8l4 -8v-8l-4 -8l-4 -8l-8 -4l-8 -4h-8l-8 4l-8 4l-4 8l-4 8v8l4 8l-4 4l-8 4l-8 4h-16l-8 -4l-8 -4l-8 -4l-8 -8l-4 -8l-4 -8l-4 -8l-4 -8
v-24h40l8 -4v-20l-8 -4h-40v-176h40l8 -4v-20l-8 -4h-112z" />
    <glyph glyph-name="g" unicode="g" horiz-adv-x="264" 
d="M160 -112l8 4l8 4l8 8l8 8l4 8l4 8v24l-4 8l-4 8l-8 8l-8 8l-8 4l-8 4h-88l-8 -4l-8 -4l-8 -8l-8 -8l-4 -8l-4 -8v-24l4 -8l4 -8l8 -8l8 -8l8 -4l8 -4h88zM112 88l8 4l8 4l8 4l4 4l4 4l4 4l4 8l4 8l4 8v24l-4 8l-4 8l-4 8l-4 4v0l-4 4l-4 4l-8 4l-8 4l-8 4h-16l-8 -4
l-8 -4l-8 -4l-4 -4h-1l-3 -4l-4 -4l-4 -8l-4 -8l-4 -8v-24l4 -8l4 -8l4 -8l4 -4v-1l4 -3l4 -4l8 -4l8 -4l8 -4h16zM72 -140l-8 4l-8 4l-8 4l-8 4l-8 4l-8 8l-8 8l-4 8l-4 8l-4 8l-4 8v24l4 8l4 8l4 8l4 8l8 8l8 8l8 4l-8 4l-8 8l-8 8l-4 8l-4 8v16l4 8l4 8l8 8l8 8v0l4 4
l-4 3v1l-4 8l-4 8l-4 8l-4 8v40l4 8l4 8l4 8l4 8l8 8l8 8l8 4l8 4l8 4l8 4l8 4h32l8 -4l8 -4l8 -4l8 -4l8 -4v-1l4 -3l3 4h1l8 8l8 4l8 4h24l8 -4l8 -4l4 -8l4 -8v-8l-4 -8l-4 -8l-8 -4l-8 -4h-8l-8 4l-8 4l-4 8l-4 -8l4 -8l4 -8v-40l-4 -8l-4 -8l-4 -8l-4 -8l-8 -8l-8 -8
l-8 -4l-8 -4l-8 -4l-8 -4l-8 -4h-32l-8 4l-8 4l-8 4h-8l-8 -8l-4 -8l-4 -8v-8l8 -8l8 -8l8 -4h96l8 -4l8 -4l8 -4l8 -4l8 -4l8 -8l8 -8l4 -8l4 -8l4 -8l4 -8v-24l-4 -8l-4 -8l-4 -8l-4 -8l-8 -8l-8 -8l-8 -4l-8 -4l-8 -4l-8 -4l-8 -4h-88z" />
    <glyph glyph-name="h" unicode="h" 
d="M8 0l-8 4v20l8 4h24v280h-24l-8 4v20l8 4h48c2 0 3.66699 -1 5 -3c2 -1.33301 3 -3 3 -5v-132l4 4l4 4l4 4l4 4l8 4l8 4l8 4l8 4l8 4l8 4h40l8 -4l8 -4l8 -4l8 -8l8 -8l4 -8l4 -8l4 -8l4 -8v-148h24l8 -4v-20l-8 -4h-80l-8 4v20l8 4h24v140l-4 8l-4 8l-8 8l-8 8l-8 4
l-8 4h-16l-8 -4l-8 -4l-8 -4l-4 -4h-1l-3 -4l-4 -4h-1l-3 -4l-4 -4h-1l-3 -4l-4 -4h-1l-3 -4l-4 -4l-4 -8l-4 -8l-4 -8v-108h24l8 -4v-20l-8 -4h-80z" />
    <glyph glyph-name="i" unicode="i" horiz-adv-x="176" 
d="M8 0l-8 4v20l8 4h48v176h-48l-8 4v20l8 4h72c2 0 3.66699 -1 5 -3c2 -1.33301 3 -3 3 -5v-196h48l8 -4v-20l-8 -4h-128zM72 256l-8 4l-8 4l-4 8l-4 8v8l4 8l4 8l8 4l8 4h8l8 -4l8 -4l4 -8l4 -8v-8l-4 -8l-4 -8l-8 -4l-8 -4h-8z" />
    <glyph glyph-name="j" unicode="j" horiz-adv-x="128" 
d="M-40 -128l-8 4l-8 4l-8 4l-8 4l-8 8l-8 8l-4 8l-4 8l-4 8l-4 8v24l4 8l4 8l8 4l8 4h8l8 -4l8 -4l4 -8l4 -8v-8l-4 -8l-4 -8l-8 -4l-4 -4l4 -8l8 -8l8 -4l8 -4l8 -4h40l8 4l8 4l8 4l8 8l4 8l4 8l4 8l4 8v252h-48l-8 4v20l8 4h72c2 0 3.66699 -1 5 -3c2 -1.33301 3 -3 3 -5
v-272l-4 -8l-4 -8l-4 -8l-4 -8l-4 -8l-4 -8l-8 -8l-8 -8l-8 -4l-8 -4l-8 -4l-8 -4h-56zM64 256l-8 4l-8 4l-4 8l-4 8v8l4 8l4 8l8 4l8 4h8l8 -4l8 -4l4 -8l4 -8v-8l-4 -8l-4 -8l-8 -4l-8 -4h-8z" />
    <glyph glyph-name="k" unicode="k" horiz-adv-x="256" 
d="M0 0l-8 4v20l8 4h24v280h-24l-8 4v20l8 4h48c2 0 3.66699 -1 5 -3c2 -1.33301 3 -3 3 -5v-196l4 4l4 4l4 4l4 4l4 4l4 4l4 4l4 4l4 4l4 4l4 4l4 4l4 4l4 4l4 4l4 4l4 4l4 4h-16l-8 4v20l8 4h80l8 -4v-20l-8 -4h-20l-4 -4l-8 -8l-8 -8l-8 -8l-8 -8l-8 -8l-3 -3l3 -5l4 -8
l4 -8l4 -8l4 -8l4 -8l4 -8l4 -8l4 -8l4 -8l4 -8l4 -8l4 -8l4 -8l4 -8l4 -8l2 -4h26l8 -4v-20l-8 -4h-80l-8 4v20l8 4h18l-2 4l-4 8l-4 8l-4 8l-4 8l-4 8l-4 8l-4 8l-4 8l-4 8l-4 8l-4 8l-4 8l-3 5l-5 -5l-8 -8l-8 -8l-8 -8l-8 -8l-8 -8v-60h24l8 -4v-20l-8 -4h-80z" />
    <glyph glyph-name="l" unicode="l" horiz-adv-x="192" 
d="M-8 0l-8 4v20l8 4h64v280h-64l-8 4v20l8 4h88c2 0 3.66699 -1 5 -3c2 -1.33301 3 -3 3 -5v-300h64l8 -4v-20l-8 -4h-160z" />
    <glyph glyph-name="m" unicode="m" horiz-adv-x="408" 
d="M8 0l-8 4v20l8 4h24v176h-24l-8 4v20l8 4h40c2 0 3.66699 -1 5 -3c2 -1.33301 3 -3 3 -5v-20l4 4l4 4l4 4l4 4l8 4l8 4l8 4l8 4h40l8 -4l8 -4l8 -4l8 -8l8 -8l4 -8l4 -8l4 8l4 4l4 4l4 4l4 4l4 4l8 4l8 4l8 4l8 4h40l8 -4l8 -4l8 -4l8 -8l8 -8l4 -8l4 -8l4 -8l4 -8v-148
h24l8 -4v-20l-8 -4h-80l-8 4v20l8 4h24v140l-4 8l-4 8l-8 8l-8 8l-8 4l-8 4h-16l-8 -4l-4 -4h-1l-3 -4l-4 -4h-1l-3 -4l-4 -4h-1l-3 -4l-4 -4l-4 -8l-4 -8l-4 -8l-4 -8v-116h20l8 -4v-20l-8 -4h-72l-8 4v20l8 4h20v132l-4 8l-4 8l-4 8l-8 8l-8 8l-8 4l-8 4h-16l-8 -4l-4 -4
h-1l-3 -4l-4 -4h-1l-3 -4l-4 -4h-1l-3 -4l-4 -4l-4 -8l-4 -8l-4 -8v-124h24l8 -4v-20l-8 -4h-80z" />
    <glyph glyph-name="n" unicode="n" 
d="M8 0l-8 4v20l8 4h24v176h-24l-8 4v20l8 4h40c2 0 3.66699 -1 5 -3c2 -1.33301 3 -3 3 -5v-36l4 4l4 4l4 4l4 4l4 4l4 4l8 4l8 4l8 4l8 4l8 4l8 4h40l8 -4l8 -4l8 -4l8 -8l8 -8l4 -8l4 -8l4 -8l4 -8v-148h24l8 -4v-20l-8 -4h-80l-8 4v20l8 4h24v148l-4 8l-4 8l-8 8l-8 4
l-8 4h-24l-8 -4l-8 -4l-8 -4l-4 -4h-1l-3 -4l-4 -4h-1l-3 -4l-4 -4h-1l-3 -4l-4 -4h-1l-3 -4l-4 -4l-4 -8l-4 -8l-4 -8v-108h24l8 -4v-20l-8 -4h-80z" />
    <glyph glyph-name="o" unicode="o" horiz-adv-x="256" 
d="M124 24l8 4l8 4l8 4l8 4l8 8l8 8l8 8l8 8l4 8l4 8l4 8v40l-4 8l-4 8l-4 8l-8 8l-8 8l-8 8l-8 8l-8 4l-8 4l-8 4l-8 4h-24l-8 -4l-8 -4l-8 -4l-8 -4l-8 -8l-8 -8l-8 -8l-8 -8l-4 -8l-4 -8l-4 -8v-40l4 -8l4 -8l4 -8l8 -8l8 -8l8 -8l8 -8l8 -4l8 -4l8 -4l8 -4h24zM84 -4
l-8 4l-8 4l-8 4l-8 4l-8 4l-8 8l-8 8l-8 8l-8 8l-4 8l-4 8l-4 8l-4 8l-4 8v56l4 8l4 8l4 8l4 8l4 8l8 8l8 8l8 8l8 8l8 4l8 4l8 4l8 4l8 4h56l8 -4l8 -4l8 -4l8 -4l8 -4l8 -8l8 -8l8 -8l8 -8l4 -8l4 -8l4 -8l4 -8l4 -8v-56l-4 -8l-4 -8l-4 -8l-4 -8l-4 -8l-8 -8l-8 -8l-8 -8
l-8 -8l-8 -4l-8 -4l-8 -4l-8 -4l-8 -4h-56z" />
    <glyph glyph-name="p" unicode="p" horiz-adv-x="252" 
d="M136 24l8 4l8 4l8 8l8 8l8 8l8 8l4 8l4 8l4 8v56l-4 8l-4 8l-4 8l-8 8l-8 8l-8 8l-8 8l-8 4l-8 4h-24l-8 -4l-8 -4l-8 -8l-8 -8l-8 -8l-8 -8l-4 -8l-4 -8l-4 -8l-4 -8v-40l4 -8l4 -8l4 -8l4 -8l8 -8l8 -8l8 -8l8 -8l8 -4l8 -4h24zM-24 -120l-8 4v20l8 4h40v296h-40l-8 4
v20l8 4h64c2 0 3.66699 -1 5 -3c2 -1.33301 3 -3 3 -5v-24l8 8l8 8l8 8l8 4l8 4l8 4h56l8 -4l8 -4l8 -4l8 -8l8 -8l8 -8l8 -8l4 -8l4 -8l4 -8l4 -8l4 -8v-72l-4 -8l-4 -8l-4 -8l-4 -8l-4 -8l-8 -8l-8 -8l-8 -8l-8 -8l-8 -4l-8 -4l-8 -4h-56l-8 4l-8 4l-8 4l-8 8l-8 8l-8 8
v-124h40l8 -4v-20l-8 -4h-112z" />
    <glyph glyph-name="q" unicode="q" horiz-adv-x="284" 
d="M108 24l8 4l8 4l8 8l8 8l8 8l8 8l4 8l4 8l4 8l4 8v40l-4 8l-4 8l-4 8l-4 8l-8 8l-8 8l-8 8l-8 8l-8 4l-8 4h-24l-8 -4l-8 -4l-8 -8l-8 -8l-8 -8l-8 -8l-4 -8l-4 -8l-4 -8v-56l4 -8l4 -8l4 -8l8 -8l8 -8l8 -8l8 -8l8 -4l8 -4h24zM132 -120l-8 4v20l8 4h40v124l-8 -8l-8 -8
l-8 -8l-8 -4l-8 -4l-8 -4h-56l-8 4l-8 4l-8 4l-8 8l-8 8l-8 8l-8 8l-4 8l-4 8l-4 8l-4 8l-4 8v72l4 8l4 8l4 8l4 8l4 8l8 8l8 8l8 8l8 8l8 4l8 4l8 4h56l8 -4l8 -4l8 -4l8 -8l8 -8l8 -8v24l4 8h24l4 -8v-316h40l8 -4v-20l-8 -4h-112z" />
    <glyph glyph-name="r" unicode="r" horiz-adv-x="264" 
d="M8 0l-8 4v20l8 4h40v176h-40l-8 4v20l8 4h64c2 0 3.66699 -1 5 -3c2 -1.33301 3 -3 3 -5v-28l4 4l4 4l4 4l4 4l8 4l8 4l8 4l8 4l8 4l8 4h56l8 -4l8 -4l8 -4l4 -8l4 -8v-8l-4 -8l-4 -8l-8 -4l-8 -4h-8l-8 4l-8 4l-4 8l-4 8v8h-24l-8 -4l-8 -4l-8 -4l-4 -4h-1l-3 -4l-4 -4
h-1l-3 -4l-4 -4h-1l-3 -4l-4 -4h-1l-3 -4l-4 -4l-4 -8l-4 -8l-4 -8v-108h40l8 -4v-20l-8 -4h-112z" />
    <glyph glyph-name="s" unicode="s" horiz-adv-x="208" 
d="M52 -4l-8 4l-8 4l-4 -4h-24l-4 8v48l4 8h24l4 -8l4 -8l4 -8l8 -8l8 -4l8 -4h56l8 4l8 4l8 8l4 8v32l-4 8l-8 8l-8 4l-8 4l-8 4h-64l-8 4l-8 4l-8 4l-8 8l-8 8l-4 8l-4 8l-4 8v24l4 8l4 8l4 8l8 8l8 8l8 4l8 4l8 4h72l8 -4l8 -4l4 4h24l4 -8v-48l-4 -8h-24l-4 8l-4 8l-4 8
l-8 8l-8 4l-8 4h-48l-8 -4l-8 -4l-8 -8l-4 -8v-24l4 -8l8 -8l8 -4l8 -4h64l8 -4l8 -4l8 -4l8 -4l8 -8l8 -8l4 -8l4 -8l4 -8v-32l-4 -8l-4 -8l-4 -8l-8 -8l-8 -8l-8 -4l-8 -4l-8 -4h-80z" />
    <glyph glyph-name="t" unicode="t" horiz-adv-x="240" 
d="M112 -4l-8 4l-8 4l-8 4l-8 8l-8 8l-8 8l-4 8l-4 8v156h-48l-8 4v20l8 4h48v96c0 2 0.666992 3.66699 2 5c1.33301 2 3.33301 3 6 3h16c2 0 3.66699 -1 5 -3c2 -1.33301 3 -3 3 -5v-96h72l8 -4v-20l-8 -4h-72v-148l4 -8l4 -8l8 -8l8 -4l8 -4h24l8 4l8 4l8 8l4 8l4 8v24
c0 2 0.666992 3.66699 2 5c1.33301 2 3.33301 3 6 3h16c2 0 3.66699 -1 5 -3c2 -1.33301 3 -3 3 -5v-32l-4 -8l-4 -8l-8 -8l-8 -8l-8 -8l-8 -4l-8 -4l-8 -4h-40z" />
    <glyph glyph-name="u" unicode="u" 
d="M88 -4l-8 4l-8 4l-8 4l-8 8l-8 8l-8 8l-4 8l-4 8v156h-24l-8 4v20l8 4h80l8 -4v-20l-8 -4h-24v-148l4 -8l4 -8l8 -8l8 -4l8 -4h24l8 4l8 4l8 4l4 4l4 4l4 4l4 4l4 4l4 4l4 4l4 4l4 4l4 8l4 8l4 8v108h-24l-8 4v20l8 4h80l8 -4v-20l-8 -4h-24v-176h24l8 -4v-20l-8 -4h-48
c-2.66699 0 -4.66699 0.666992 -6 2s-2 3.33301 -2 6v28l-4 -4h-1l-3 -4l-4 -4h-1l-3 -4l-8 -4l-8 -4l-8 -4l-8 -4l-8 -4l-8 -4h-40z" />
    <glyph glyph-name="v" unicode="v" horiz-adv-x="320" 
d="M136 0l-4 8l-4 8l-4 8l-4 8l-4 8l-4 8l-4 8l-4 8l-4 8l-4 8l-4 8l-4 8l-4 8l-4 8l-4 8l-4 8l-4 8l-4 8l-4 8l-4 8l-4 8l-4 8l-4 8l-4 8l-4 8l-2 4h-26l-8 4v20l8 4h72l8 -4v-20l-8 -4h-14l2 -4l4 -8l4 -8l4 -8l4 -8l4 -8l4 -8l4 -8l4 -8l4 -8l4 -8l4 -8l4 -8l4 -8l4 -8
l4 -8l4 -8l4 -8l4 -8l4 -8l4 8l4 8l4 8l4 8l4 8l4 8l4 8l4 8l4 8l4 8l4 8l4 8l4 8l4 8l4 8l4 8l4 8l4 8l4 8l2 4h-14l-8 4v20l8 4h72l8 -4v-20l-8 -4h-26l-2 -4l-4 -8l-4 -8l-4 -8l-4 -8l-4 -8l-4 -8l-4 -8l-4 -8l-4 -8l-4 -8l-4 -8l-4 -8l-4 -8l-4 -8l-4 -8l-4 -8l-4 -8
l-4 -8l-4 -8l-4 -8l-4 -8l-4 -8l-4 -8l-4 -8l-4 -8h-16z" />
    <glyph glyph-name="w" unicode="w" horiz-adv-x="400" 
d="M136 0l-4 8l-4 8l-4 8l-4 8l-4 8l-4 8l-4 8l-4 8l-4 8l-4 8l-4 8l-4 8l-4 8l-4 8l-4 8l-4 8l-4 8l-4 8l-4 8l-4 8l-4 8l-4 8l-4 8l-4 8l-4 8l-2 4h-26l-8 4v20l8 4h80l8 -4v-20l-8 -4h-22l2 -4l4 -8l4 -8l4 -8l4 -8l4 -8l4 -8l4 -8l4 -8l4 -8l4 -8l4 -8l4 -8l4 -8l4 -8
l4 -8l4 -8l4 -8l4 8l4 8l4 8l4 8l4 8l4 8l4 8l4 8l2 4h-10l-8 4v20l8 4h48l8 -4v-20l-8 -4h-10l2 -4l4 -8l4 -8l4 -8l4 -8l4 -8l4 -8l4 -8l4 -8l4 8l4 8l4 8l4 8l4 8l4 8l4 8l4 8l4 8l4 8l4 8l4 8l4 8l4 8l4 8l4 8l4 8l2 4h-22l-8 4v20l8 4h80l8 -4v-20l-8 -4h-26l-2 -4
l-4 -8l-4 -8l-4 -8l-4 -8l-4 -8l-4 -8l-4 -8l-4 -8l-4 -8l-4 -8l-4 -8l-4 -8l-4 -8l-4 -8l-4 -8l-4 -8l-4 -8l-4 -8l-4 -8l-4 -8l-4 -8l-4 -8l-4 -8l-4 -8l-4 -8l-4 8l-4 8l-4 8l-4 8l-4 8l-4 8l-4 8l-4 8l-4 8l-4 8l-4 8l-4 8l-4 -8l-4 -8l-4 -8l-4 -8l-4 -8l-4 -8l-4 -8
l-4 -8l-4 -8l-4 -8l-4 -8l-4 -8v0z" />
    <glyph glyph-name="x" unicode="x" horiz-adv-x="232" 
d="M8 0l-8 4v20l8 4h18l2 4l4 8l4 8l4 8l4 8l4 8l4 8l4 8l4 8l4 8l4 8l4 8l-4 8l-4 8l-4 8l-4 8l-4 8l-4 8l-4 8l-4 8l-4 8l-4 8l-2 4h-22l-8 4v20l8 4h64l8 -4v-20l-8 -4h-10l2 -4l4 -8l4 -8l4 -8l4 -8l4 -8l4 -8l4 -8l4 -8l4 -8l4 8l4 8l4 8l4 8l4 8l4 8l4 8l4 8l4 8l2 4
h-10l-8 4v20l8 4h64l8 -4v-20l-8 -4h-22l-2 -4l-4 -8l-4 -8l-4 -8l-4 -8l-4 -8l-4 -8l-4 -8l-4 -8l-4 -8l-4 -8l4 -8l4 -8l4 -8l4 -8l4 -8l4 -8l4 -8l4 -8l4 -8l4 -8l4 -8l2 -4h18l8 -4v-20l-8 -4h-64l-8 4v20l8 4h14l-2 4l-4 8l-4 8l-4 8l-4 8l-4 8l-4 8l-4 8l-4 8l-4 8
l-4 8l-4 -8l-4 -8l-4 -8l-4 -8l-4 -8l-4 -8l-4 -8l-4 -8l-4 -8l-4 -8l-2 -4h14l8 -4v-20l-8 -4h-64z" />
    <glyph glyph-name="y" unicode="y" horiz-adv-x="312" 
d="M24 -128l-8 4l-8 4l-8 4l-8 4l-8 8l-4 8l-4 8v8l4 8l4 8l8 4l8 4h8l8 -4l8 -4l4 -8l4 -8v-8l-4 -8l4 -4h8l8 4l8 4l8 4l8 8l4 8l4 8l4 8l4 8l4 8l4 8l4 8l4 8l4 8l4 8l4 8l4 8l-4 8l-4 8l-4 8l-4 8l-4 8l-4 8l-4 8l-4 8l-4 8l-4 8l-4 8l-4 8l-4 8l-4 8l-4 8l-4 8l-4 8
l-4 8l-4 8l-4 8l-4 8l-4 8l-4 8l-2 4h-26l-8 4v20l8 4h80l8 -4v-20l-8 -4h-22l2 -4l4 -8l4 -8l4 -8l4 -8l4 -8l4 -8l4 -8l4 -8l4 -8l4 -8l4 -8l4 -8l4 -8l4 -8l4 -8l4 -8l4 -8l4 -8l4 -8l4 8l4 8l4 8l4 8l4 8l4 8l4 8l4 8l4 8l4 8l4 8l4 8l4 8l4 8l4 8l4 8l4 8l4 8l4 8l2 4
h-22l-8 4v20l8 4h80l8 -4v-20l-8 -4h-26l-2 -4l-4 -8l-4 -8l-4 -8l-4 -8l-4 -8l-4 -8l-4 -8l-4 -8l-4 -8l-4 -8l-4 -8l-4 -8l-4 -8l-4 -8l-4 -8l-4 -8l-4 -8l-4 -8l-4 -8l-4 -8l-4 -8l-4 -8l-4 -8l-4 -8l-4 -8l-4 -8l-4 -8l-4 -8l-4 -8l-4 -8l-4 -8l-4 -8l-4 -8l-4 -8l-4 -8
l-4 -8l-4 -8l-8 -8l-8 -8l-8 -4l-8 -4l-8 -4l-8 -4h-24z" />
    <glyph glyph-name="z" unicode="z" horiz-adv-x="188" 
d="M0 0l4 8l4 8l4 8l4 8l4 8l4 8l4 8l4 8l4 8l4 8l4 8l4 8l4 8l4 8l4 8l4 8l4 8l4 8l4 8l4 8l4 8l4 8l4 8l4 8l4 8l2 4h-66v-28l-4 -8h-24l-4 8v48c0 2 0.666992 3.66699 2 5c1.33301 2 3.33301 3 6 3h136l-4 -8l-4 -8l-4 -8l-4 -8l-4 -8l-4 -8l-4 -8l-4 -8l-4 -8l-4 -8
l-4 -8l-4 -8l-4 -8l-4 -8l-4 -8l-4 -8l-4 -8l-4 -8l-4 -8l-4 -8l-4 -8l-4 -8l-4 -8l-4 -8l-4 -8l-2 -4h78v28l4 8h24l4 -8v-48c0 -2.66699 -1 -4.66699 -3 -6c-1.33301 -1.33301 -3 -2 -5 -2h-148z" />
    <glyph glyph-name="braceleft" unicode="{" horiz-adv-x="160" 
d="M88 -64l-8 4l-8 4l-8 4v1l-4 3l-4 4v1l-4 3l-4 4v1l-4 3l-4 8l-4 8l-4 8v24l4 8l4 8l4 8l4 8l4 8l4 8v40l-4 8l-4 8l-4 8l-4 8l-8 8l-8 8l-8 4l-8 4l-8 4v8l8 4l8 4l8 4l8 8l8 8l4 8l4 8l4 8l4 8v40l-4 8l-4 8l-4 8l-4 8l-4 8l-4 8v24l4 8l4 8l4 8l4 4l4 4l4 4l4 4l4 4
l8 4l8 4l8 4h32l8 -4v-20l-8 -4h-24l-8 -4l-8 -4l-4 -4l-4 -8l-4 -8l-4 -8v-8l4 -8l4 -8l4 -8l4 -8l4 -8l4 -8v-56l-4 -8l-4 -8l-4 -8l-4 -8l-4 -8h-1l-3 -4l-4 -4h-1l-3 -4l-4 -4l4 -4v-1l4 -3l4 -4v-1l4 -3l4 -8l4 -8l4 -8l4 -8l4 -8v-56l-4 -8l-4 -8l-4 -8l-4 -8l-4 -8
l-4 -8v-8l4 -8l4 -8l4 -8l4 -4l8 -4l8 -4h24l8 -4v-20l-8 -4h-32z" />
    <glyph glyph-name="bar" unicode="|" horiz-adv-x="64" 
d="M4 -24l-4 8v368l4 8h24l4 -8v-368l-4 -8h-24z" />
    <glyph glyph-name="braceright" unicode="}" horiz-adv-x="160" 
d="M8 -64l-8 4v20l8 4h24l8 4l8 4l4 4l4 8l4 8l4 8v8l-4 8l-4 8l-4 8l-4 8l-4 8l-4 8v56l4 8l4 8l4 8l4 8l4 8l4 4l4 4l4 4l4 4l-4 4v0l-4 4l-4 4v0l-4 4l-4 8l-4 8l-4 8l-4 8l-4 8v56l4 8l4 8l4 8l4 8l4 8l4 8v8l-4 8l-4 8l-4 8l-4 4l-8 4l-8 4h-24l-8 4v20l8 4h32l8 -4
l8 -4l8 -4v-1l4 -3l4 -4v-1l4 -3l4 -4v-1l4 -3l4 -8l4 -8l4 -8v-24l-4 -8l-4 -8l-4 -8l-4 -8l-4 -8l-4 -8v-40l4 -8l4 -8l4 -8l4 -8l8 -8l8 -8l8 -4l8 -4l8 -4v-8l-8 -4l-8 -4l-8 -4l-8 -8l-8 -8l-4 -8l-4 -8l-4 -8l-4 -8v-40l4 -8l4 -8l4 -8l4 -8l4 -8l4 -8v-24l-4 -8
l-4 -8l-4 -8h-1l-3 -4l-4 -4h-1l-3 -4l-4 -4h-1l-3 -4l-8 -4l-8 -4l-8 -4h-32z" />
    <glyph glyph-name="asciitilde" unicode="~" horiz-adv-x="248" 
d="M140 344l-8 4l-8 4l-8 4v0l-4 4l-4 4v0l-4 4l-4 4v0l-4 4l-4 4l-8 4l-8 4h-16l-8 -4l-8 -4l-4 -4l-4 -8l-4 -8l-4 -8h-24l-4 8v8l4 8l4 8l4 8l8 8l8 8l8 4l8 4h48l8 -4l8 -4l8 -8l8 -8l8 -8l8 -8l8 -4h16l8 4l8 4l4 4l4 8l4 8l4 8h24l4 -8v-8l-4 -8l-4 -8l-4 -8l-8 -8
l-8 -8l-8 -4l-8 -4h-40z" />
    <glyph glyph-name="exclamdown" unicode="&#xa1;" horiz-adv-x="88" 
d="M24 -128c-2.66699 0 -4.66699 1 -6 3c-1.33301 1.33301 -2 3 -2 5v240l4 8h24l4 -8v-240c0 -2 -1 -3.66699 -3 -5c-1.33301 -2 -3 -3 -5 -3h-16zM24 152l-8 4l-8 4l-4 8l-4 8v8l4 8l4 8l8 4l8 4h8l8 -4l8 -4l4 -8l4 -8v-8l-4 -8l-4 -8l-8 -4l-8 -4h-8z" />
    <glyph glyph-name="cent" unicode="&#xa2;" horiz-adv-x="196" 
d="M44 64l4 8l4 8l4 8l4 8l4 8l4 8l4 8l4 8l4 8l4 8l4 8l4 8l4 8l4 8l4 8l4 8h-12l-8 -4l-8 -4l-8 -4l-4 -4h-1l-3 -4l-4 -4h-1l-3 -4l-4 -4h-1l-3 -4l-4 -4l-4 -8l-4 -8l-4 -8v-40l4 -8l4 -8l4 -8v0zM32 0l-8 4v0l-4 4v8l4 8l4 8l1 2l-5 6l-8 8l-4 8l-4 8l-4 8l-4 8v56l4 8
l4 8l4 8l4 8l8 8l8 8l8 8l8 8l8 4l8 4l8 4l8 4l8 4h32l1 -1l3 5l4 4l8 4h8l8 -8v-8l-4 -7l4 -1l8 -8l8 -8l4 -8l-4 -8l-8 -8h-8l-8 8l-8 8l-4 -8l-4 -8l-4 -8l-4 -8l-4 -8l-4 -8l-4 -8l-4 -8l-4 -8l-4 -8l-4 -8l-4 -8l-4 -8l-4 -8l-4 -8l-4 -8l-4 -8l-1 -2l5 -2l8 -4h16l8 4
l8 4l8 8h8l8 -8l4 -8l-4 -8l-8 -8l-8 -4l-8 -4l-8 -4h-32l-8 4l-8 4h-2l-2 -4l-4 -8l-8 -8h-8z" />
    <glyph glyph-name="sterling" unicode="&#xa3;" horiz-adv-x="232" 
d="M0 -4v20l8 8l8 8l8 8l8 8l8 8l4 8l4 8l4 8l4 8v68h-32l-8 4v20l8 4h32v96l4 8l4 8l4 8l4 4l4 4l4 4l4 4l4 4l8 4l8 4l8 4h40l8 -4l8 -4l8 -4l8 -4l4 -8l4 -8v-8l-4 -8l-4 -8l-8 -4l-8 -4h-8l-8 4l-8 4l-4 8l-4 8v8l2 4h-18l-8 -4l-8 -4l-4 -4l-4 -8l-4 -8l-4 -8v-88h32
l8 -4v-20l-8 -4h-32v-76l-4 -8l-4 -8l-4 -8l-4 -8l-4 -8l-4 -8l8 4l8 4h40l8 -4l8 -4l8 -4l8 -4h8l8 4l8 4l8 4l8 -4l8 -8v-8l-8 -8l-8 -8l-8 -4h-40l-8 4l-8 4l-8 4l-8 4h-40l-8 -4l-8 -4l-8 -4l-8 -4h-32z" />
    <glyph glyph-name="currency" unicode="&#xa4;" horiz-adv-x="160" 
d="M64 144l8 4l4 4l4 8v16l-4 8l-4 4l-8 4l-8 -4l-4 -4l-4 -8v-16l4 -8l4 -4l8 -4v0zM8 104l-8 8v12l4 4l4 4l4 4l4 4l4 4l-4 8v32l4 8l-4 4v0l-4 4l-4 4v0l-4 4l-4 4v12l8 8h12l4 -4v-1l4 -3l4 -4v-1l4 -3l4 -4l8 4h32l8 -4l4 4l4 4l4 4l4 4l4 4h12l8 -8v-12l-4 -4h-1
l-3 -4l-4 -4h-1l-3 -4l-4 -4l4 -8v-32l-4 -8l4 -4v-1l4 -3l4 -4v-1l4 -3l4 -4v-12l-8 -8h-12l-4 4v0l-4 4l-4 4v0l-4 4l-4 4l-8 -4h-32l-8 4l-4 -4h-1l-3 -4l-4 -4h-1l-3 -4l-4 -4h-12z" />
    <glyph glyph-name="yen" unicode="&#xa5;" horiz-adv-x="328" 
d="M48 0l-8 4v24l8 4h80v16h-32l-8 4v20l8 4h32v16h-32l-8 4v20l8 4h32v8l-4 8l-4 8l-4 8l-4 8l-4 8l-4 8l-4 8l-4 8l-4 8l-4 8l-4 8l-4 8l-4 8l-4 8l-4 8l-4 8l-4 8l-4 8l-4 8l-4 8l-4 8l-4 8h-32l-8 4v24l8 4h104l8 -4v-24l-8 -4h-32l4 -8l4 -8l4 -8l4 -8l4 -8l4 -8l4 -8
l4 -8l4 -8l4 -8l4 -8l4 -8l4 -8l4 -8l4 -8l4 -8l4 -8l4 8l4 8l4 8l4 8l4 8l4 8l4 8l4 8l4 8l4 8l4 8l4 8l4 8l4 8l4 8l4 8l4 8h-32l-8 4v24l8 4h104l8 -4v-24l-8 -4h-32l-4 -8l-4 -8l-4 -8l-4 -8l-4 -8l-4 -8l-4 -8l-4 -8l-4 -8l-4 -8l-4 -8l-4 -8l-4 -8l-4 -8l-4 -8l-4 -8
l-4 -8l-4 -8l-4 -8l-4 -8l-4 -8l-4 -8v-8h32l8 -4v-20l-8 -4h-32v-16h32l8 -4v-20l-8 -4h-32v-16h80l8 -4v-24l-8 -4h-200z" />
    <glyph glyph-name="brokenbar" unicode="&#xa6;" horiz-adv-x="64" 
d="M4 0l-4 8v144l4 8h24l4 -8v-144l-4 -8h-24zM4 176l-4 8v144l4 8h24l4 -8v-144l-4 -8h-24z" />
    <glyph glyph-name="section" unicode="&#xa7;" horiz-adv-x="200" 
d="M141 123l3 5v16l-4 8l-8 8l-8 4h-80l-8 4l-8 4h-2l-2 -4v-16l4 -8l8 -8l8 -4h80l8 -4l8 -4l1 -1v0zM44 -4l-8 4l-8 4h-2l-2 -4h-24l-4 8v40l4 8h28l4 -8l4 -8l8 -8l8 -4l8 -4h64l8 8l4 8l4 8l4 8v8l-4 8l-4 8l-4 8l-8 8l-8 4h-72l-8 4l-8 4l-8 4l-8 8l-8 8l-4 8l-4 8
l-4 8v32l4 8l4 8l-4 8l-4 8v24l4 8l4 8l4 8l8 8l8 8l8 4l8 4l8 4h72l8 -4l8 -4l1 -1l3 5h24l4 -8v-40l-4 -8h-28l-4 8l-4 8l-8 8l-8 4l-8 4h-48l-8 -4l-8 -4l-8 -8l-4 -8v-16l4 -8l8 -8l8 -8l8 -4l8 -4h72l8 -4l8 -4l8 -8l8 -8l4 -8l4 -8l4 -8v-40l-4 -8l-2 -4l2 -4l4 -8
v-32l-4 -8l-4 -8l-4 -8l-8 -8l-8 -8l-8 -4l-8 -4l-8 -4h-80z" />
    <glyph glyph-name="dieresis" unicode="&#xa8;" horiz-adv-x="200" 
d="M24 344l-8 4l-8 4l-4 8l-4 8v8l4 8l4 8l8 4l8 4h8l8 -4l8 -4l4 -8l4 -8v-8l-4 -8l-4 -8l-8 -4l-8 -4h-8zM136 344l-8 4l-8 4l-4 8l-4 8v8l4 8l4 8l8 4l8 4h8l8 -4l8 -4l4 -8l4 -8v-8l-4 -8l-4 -8l-8 -4l-8 -4h-8z" />
    <glyph glyph-name="copyright" unicode="&#xa9;" horiz-adv-x="608" 
d="M124 44l-8 4l-8 4l-8 4l-8 4l-8 4l-8 8l-8 8l-8 8l-4 8l-4 8l-4 8l-4 8l-4 8v48l4 8l4 8l4 8l4 8l4 8l8 8l8 8l8 8l8 4l8 4l8 4l8 4l8 4h32l8 -4l8 -4l8 -4l8 -8l8 -8l4 -8l4 -8v-8l-4 -8l-4 -8l-8 -4l-8 -4h-8l-8 4l-8 4l-4 8l-4 8v8l4 8l-4 8h-8l-8 -4l-8 -4l-8 -4
l-8 -4l-8 -8l-8 -8l-8 -8l-4 -8l-4 -8l-4 -8v-32l4 -8l4 -8l4 -8l8 -8l8 -8l8 -8l8 -4l8 -4l8 -4l8 -4h8l8 4l8 4l8 8h16l8 -8v-16l-8 -8l-8 -4l-8 -4l-8 -4h-40zM164 24l8 4l8 4l8 4l8 4l8 4l4 4l4 4l4 4l4 4l4 4l4 8l4 8l4 8l4 8l4 8l4 8v80l-4 8l-4 8l-4 8l-4 8l-4 8
l-4 8l-4 4v0l-4 4l-4 4v0l-4 4l-4 4l-8 4l-8 4l-8 4l-8 4l-8 4h-56l-8 -4l-8 -4l-8 -4l-8 -4l-8 -4l-4 -4h-1l-3 -4l-4 -4h-1l-3 -4l-4 -4l-4 -8l-4 -8l-4 -8l-4 -8l-4 -8l-4 -8v-80l4 -8l4 -8l4 -8l4 -8l4 -8l4 -8l4 -4v-1l4 -3l4 -4v-1l4 -3l4 -4l8 -4l8 -4l8 -4l8 -4
l8 -4h56zM92 -4l-8 4l-8 4l-8 4l-8 4l-8 4l-8 8l-8 8l-8 8l-8 8l-4 8l-4 8l-4 8l-4 8l-4 8l-4 8l-4 8v96l4 8l4 8l4 8l4 8l4 8l4 8l4 8l8 8l8 8l8 8l8 8l8 4l8 4l8 4l8 4l8 4h88l8 -4l8 -4l8 -4l8 -4l8 -4l8 -8l8 -8l8 -8l8 -8l4 -8l4 -8l4 -8l4 -8l4 -8l4 -8l4 -8v-96
l-4 -8l-4 -8l-4 -8l-4 -8l-4 -8l-4 -8l-4 -8l-8 -8l-8 -8l-8 -8l-8 -8l-8 -4l-8 -4l-8 -4l-8 -4l-8 -4h-88z" />
    <glyph glyph-name="ordfeminine" unicode="&#xaa;" horiz-adv-x="160" 
d="M56 200l8 4l4 4l4 4l4 4v24l-4 4l-8 4h-8l-8 -4l-8 -4l-8 -4l-4 -4v-16l4 -4v-1l4 -3l4 -4l8 -4h8zM40 176l-8 4l-8 4l-8 4v0l-4 4l-4 4v0l-4 4l-4 8v24l4 8l4 8l8 8l8 4l8 4l8 4l8 4h28v24l-4 4l-8 4h-24v-8l-4 -8h-1l-3 -4l-8 -4h-8l-8 4v0l-4 4l-4 8v8l4 8l4 4l8 4
l8 4l8 4h40l8 -4l8 -4l8 -8l4 -8l4 -8v-88c0 -2.66699 0.666992 -4.66699 2 -6s3.33301 -2 6 -2c2 0 3.66699 0.666992 5 2c2 1.33301 3 3.33301 3 6h8v-16l-4 -8h-1l-3 -4l-8 -4h-8l-8 4v0l-4 4l-4 8l-8 -8l-8 -4l-8 -4h-24z" />
    <glyph glyph-name="guillemotleft" unicode="&#xab;" horiz-adv-x="188" 
d="M84 84l-8 4l-8 8l-8 8l-8 8l-8 8l-8 8l-8 8l-8 8l-8 8l-8 8l-4 8l4 8l8 8l8 8l8 8l8 8l8 8l8 8l8 8l8 8l8 8l8 4l8 -4v-24l-8 -8l-8 -8l-8 -8l-8 -8l-8 -8l-8 -8l-8 -8l8 -8l8 -8l8 -8l8 -8l8 -8l8 -8l8 -8v-24l-8 -4v0zM148 84l-8 4l-8 8l-8 8l-8 8l-8 8l-8 8l-8 8l-8 8
l-8 8l-8 8l-4 8l4 8l8 8l8 8l8 8l8 8l8 8l8 8l8 8l8 8l8 8l8 4l8 -4v-24l-8 -8l-8 -8l-8 -8l-8 -8l-8 -8l-8 -8l-8 -8l8 -8l8 -8l8 -8l8 -8l8 -8l8 -8l8 -8v-24l-8 -4v0z" />
    <glyph glyph-name="logicalnot" unicode="&#xac;" horiz-adv-x="224" 
d="M164 112l-4 8v28h-152l-8 4v20l8 4h176c2 0 3.66699 -1 5 -3c2 -1.33301 3 -3 3 -5v-48l-4 -8h-24z" />
    <glyph glyph-name="uni00AD" unicode="&#xad;" horiz-adv-x="144" 
d="M8 156l-8 4v20l8 4h96l8 -4v-20l-8 -4h-96z" />
    <glyph glyph-name="registered" unicode="&#xae;" horiz-adv-x="312" 
d="M172 188l4 4l4 8v8l-4 8l-4 4h-64v-32h64zM68 56l-8 4v20l8 4h8v136h-8l-8 4v20l8 4h112l8 -4l8 -4l8 -8l4 -8l4 -8v-24l-4 -8l-4 -8l-8 -8l-8 -4l-8 -4h-8l8 -8l4 -8l4 -8l4 -8l4 -8v-36h8l8 -4v-20l-8 -4h-32c-2.66699 0 -4.66699 0.666992 -6 2s-2 3.33301 -2 6v48
l-4 8l-4 8l-4 8l-4 4v0l-4 4l-4 4v0l-4 4l-4 4l-8 4h-16v-76h8l8 -4v-20l-8 -4h-48zM164 24l8 4l8 4l8 4l8 4l8 4l4 4l4 4l4 4l4 4l4 4l4 8l4 8l4 8l4 8l4 8l4 8v80l-4 8l-4 8l-4 8l-4 8l-4 8l-4 8l-4 4v0l-4 4l-4 4v0l-4 4l-4 4l-8 4l-8 4l-8 4l-8 4l-8 4h-56l-8 -4l-8 -4
l-8 -4l-8 -4l-8 -4l-4 -4h-1l-3 -4l-4 -4h-1l-3 -4l-4 -4l-4 -8l-4 -8l-4 -8l-4 -8l-4 -8l-4 -8v-80l4 -8l4 -8l4 -8l4 -8l4 -8l4 -8l4 -4v-1l4 -3l4 -4v-1l4 -3l4 -4l8 -4l8 -4l8 -4l8 -4l8 -4h56zM92 -4l-8 4l-8 4l-8 4l-8 4l-8 4l-8 8l-8 8l-8 8l-8 8l-4 8l-4 8l-4 8
l-4 8l-4 8l-4 8l-4 8v96l4 8l4 8l4 8l4 8l4 8l4 8l4 8l8 8l8 8l8 8l8 8l8 4l8 4l8 4l8 4l8 4h88l8 -4l8 -4l8 -4l8 -4l8 -4l8 -8l8 -8l8 -8l8 -8l4 -8l4 -8l4 -8l4 -8l4 -8l4 -8l4 -8v-96l-4 -8l-4 -8l-4 -8l-4 -8l-4 -8l-4 -8l-4 -8l-8 -8l-8 -8l-8 -8l-8 -8l-8 -4l-8 -4
l-8 -4l-8 -4l-8 -4h-88z" />
    <glyph glyph-name="macron" unicode="&#xaf;" horiz-adv-x="200" 
d="M8 344l-8 4v20l8 4h152l8 -4v-20l-8 -4h-152z" />
    <glyph glyph-name="degree" unicode="&#xb0;" horiz-adv-x="136" 
d="M56 272l8 4l4 4l4 8v8l-4 8l-4 4l-8 4h-8l-8 -4l-4 -4l-4 -8v-8l4 -8l4 -4l8 -4h8zM40 244l-8 4l-8 4l-8 4l-8 8l-4 8l-4 8v24l4 8l4 8l8 8l8 4l8 4l8 4h24l8 -4l8 -4l8 -4l8 -8l4 -8l4 -8v-24l-4 -8l-4 -8l-8 -8l-8 -4l-8 -4l-8 -4h-24z" />
    <glyph glyph-name="plusminus" unicode="&#xb1;" horiz-adv-x="200" 
d="M8 68l-8 4v20l8 4h152l8 -4v-20l-8 -4h-152zM72 120l-4 8v60h-60l-8 4v20l8 4h60v56l4 8h24l4 -8v-56h60l8 -4v-20l-8 -4h-60v-60l-4 -8h-24z" />
    <glyph glyph-name="uni00B2" unicode="&#xb2;" horiz-adv-x="144" 
d="M8 176c-2.66699 0 -4.66699 0.666992 -6 2s-2 3.33301 -2 6v16l4 8l4 8l4 8l4 4l4 4l4 4l4 4l4 4l8 4l8 4l8 4l8 4l8 4l8 8l4 8v16l-4 8l-8 8l-8 4h-16l-8 -4l-8 -8l-4 -8h-1l-3 -4l-4 -4h-12l-4 8l4 8l4 8l4 4l4 4l4 4l8 4l8 4l8 4h16l8 -4l8 -4l8 -4v-1l4 -3l4 -4v-1
l4 -3l4 -8l4 -8v-16l-4 -8l-4 -8h-1l-3 -4l-4 -4h-1l-3 -4l-8 -4l-8 -4l-8 -4l-8 -4l-8 -4l-8 -8l-8 -8l-4 -8l-4 -8v-4h80l8 -4v-12l-8 -4h-96z" />
    <glyph glyph-name="uni00B3" unicode="&#xb3;" horiz-adv-x="128" 
d="M44 176l-8 4l-8 4l-8 4v0l-4 4l-4 4v0l-4 4l-4 8l-4 8l4 8h8l8 -4v-1l4 -3l4 -8l8 -8l8 -4l8 -4l8 4l8 4l8 8l4 8v16l-4 8l-8 4l-8 4l-8 4v8l8 4l8 4l8 4l4 8v16l-4 8l-8 8l-8 4l-8 4l-8 -4l-8 -4l-8 -8l-4 -8h-1l-3 -4l-4 -4h-12l-4 8l4 8l4 8l4 4l4 4l4 4l8 4l8 4l8 4
h16l8 -4l8 -4l8 -4v-1l4 -3l4 -4v-1l4 -3l4 -8l4 -8v-16l-4 -8l-4 -8h-1l-3 -4l-8 -4l8 -4v-1l4 -3l4 -8l4 -8v-16l-4 -8l-4 -8h-1l-3 -4l-4 -4h-1l-3 -4l-8 -4l-8 -4l-8 -4h-16z" />
    <glyph glyph-name="acute" unicode="&#xb4;" horiz-adv-x="136" 
d="M12 344l-8 8l-4 8l4 4l4 4l4 4l4 4l4 4l4 4l4 4l4 4l4 4l4 4l4 4l4 4l4 4l4 4l4 4l4 4l4 4l4 4l4 4l4 4l4 4h8l8 -4l4 -8l-4 -8l-8 -8l-8 -8l-8 -8l-8 -8l-8 -8l-8 -8l-8 -8l-8 -8l-8 -8l-8 -8h-8z" />
    <glyph glyph-name="uni00B5" unicode="&#xb5;" 
d="M8 -120l-8 4v20l8 4h24v296h-24l-8 4v20l8 4h80l8 -4v-20l-8 -4h-24v-148l4 -8l4 -8l8 -8l8 -4l8 -4h24l8 4l8 4l8 4l4 4l4 4l4 4l4 4l4 4l4 4l4 4l4 4l4 4l4 8l4 8l4 8v108h-24l-8 4v20l8 4h80l8 -4v-20l-8 -4h-24v-176h24l8 -4v-20l-8 -4h-48
c-2.66699 0 -4.66699 0.666992 -6 2s-2 3.33301 -2 6v28l-4 -4h-1l-3 -4l-4 -4h-1l-3 -4l-8 -4l-8 -4l-8 -4l-8 -4l-8 -4l-8 -4h-40l-8 4l-8 4l-8 4v-100h24l8 -4v-20l-8 -4h-80z" />
    <glyph glyph-name="paragraph" unicode="&#xb6;" horiz-adv-x="192" 
d="M80 220v80h-32l-8 -4l-4 -8l-4 -8v-32l4 -8l4 -8l8 -4l8 -4l8 -4h16zM84 -24l-4 8v208h-24l-8 4l-8 4l-8 4l-8 4l-8 8l-8 8l-4 8l-4 8v56l4 8l4 8l8 8l8 4l8 4h120c2 0 3.66699 -1 5 -3c2 -1.33301 3 -3 3 -5v-336l-4 -8h-24l-4 8v316h-16v-316l-4 -8h-24z" />
    <glyph glyph-name="periodcentered" unicode="&#xb7;" horiz-adv-x="88" 
d="M24 144l-8 4l-8 4l-4 8l-4 8v8l4 8l4 8l8 4l8 4h8l8 -4l8 -4l4 -8l4 -8v-8l-4 -8l-4 -8l-8 -4l-8 -4h-8z" />
    <glyph glyph-name="cedilla" unicode="&#xb8;" horiz-adv-x="124" 
d="M28 -120l-8 4l-8 4l-8 8l-4 8v8l4 8h8l8 -4v0l4 -4l4 -4l8 -4h8l8 4l4 4l4 8v24l-4 8l-4 4l-8 4h-8l-4 8v32h32v-16l4 -4l8 -4l8 -8l4 -8l4 -8v-40l-4 -8l-4 -8l-8 -8l-8 -4l-8 -4h-32z" />
    <glyph glyph-name="uni00B9" unicode="&#xb9;" horiz-adv-x="136" 
d="M8 176l-8 4v12l8 4h32v116l-8 -4l-8 -4l-8 -4h-8l-8 4l4 8l4 4l8 4l8 4l8 4l8 4l8 4h8c2 0 3.66699 -1 5 -3c2 -1.33301 3 -3 3 -5v-132h32l8 -4v-12l-8 -4h-88z" />
    <glyph glyph-name="ordmasculine" unicode="&#xba;" horiz-adv-x="152" 
d="M64 200l8 4l8 4l8 8l4 8l4 8v40l-4 8l-4 8l-8 8l-8 4l-8 4h-8l-8 -4l-8 -4l-8 -8l-4 -8l-4 -8v-40l4 -8l4 -8l8 -8l8 -4l8 -4h8zM40 176l-8 4l-8 4l-8 8l-8 8l-4 8l-4 8v72l4 8l4 8l8 8l8 8l8 4l8 4h40l8 -4l8 -4l8 -8l8 -8l4 -8l4 -8v-72l-4 -8l-4 -8l-8 -8l-8 -8l-8 -4
l-8 -4h-40z" />
    <glyph glyph-name="guillemotright" unicode="&#xbb;" horiz-adv-x="180" 
d="M8 84l-8 4v24l8 8l8 8l8 8l8 8l8 8l8 8l8 8l-8 8l-8 8l-8 8l-8 8l-8 8l-8 8l-8 8v24l8 4l8 -4l8 -8l8 -8l8 -8l8 -8l8 -8l8 -8l8 -8l8 -8l8 -8l4 -8l-4 -8l-8 -8l-8 -8l-8 -8l-8 -8l-8 -8l-8 -8l-8 -8l-8 -8l-8 -8l-8 -4v0zM72 84l-8 4v24l8 8l8 8l8 8l8 8l8 8l8 8l8 8
l-8 8l-8 8l-8 8l-8 8l-8 8l-8 8l-8 8v24l8 4l8 -4l8 -8l8 -8l8 -8l8 -8l8 -8l8 -8l8 -8l8 -8l8 -8l4 -8l-4 -8l-8 -8l-8 -8l-8 -8l-8 -8l-8 -8l-8 -8l-8 -8l-8 -8l-8 -8l-8 -4v0z" />
    <glyph glyph-name="onequarter" unicode="&#xbc;" 
d="M220 0l-4 8v12h-56v0l-4 4v8l4 8l4 8l4 8l4 8l4 8v56l-4 8l-4 8l-4 8v8h20l4 -8l4 -8l4 -8l4 -8v-56l-4 -8l-4 -8l-4 -8l-4 -8h32v64l4 8h16l4 -8v-64h8l8 -4v-12l-8 -4h-8v-12l-4 -8h-16zM8 176l-8 4v12l8 4h32v116l-8 -4l-8 -4l-8 -4h-8l-8 4l4 8l4 4l8 4l8 4l8 4l8 4
l8 4h8c2 0 3.66699 -1 5 -3c2 -1.33301 3 -3 3 -5v-132h32l8 -4v-12l-8 -4h-88zM40 0l-4 8l4 8l4 8l4 8l4 8l4 8l4 8l4 8l4 8l4 8l4 8l4 8l4 8l4 8l4 8l4 8l4 8l4 8l4 8l4 8l4 8l4 8l4 8l4 8l4 8l4 8l4 8l4 8l4 8l4 8l4 8l4 8l4 8l4 8l4 8l4 8l4 8l4 8l4 8l4 8l4 8l4 4l4 4
h20l4 -8l-4 -8l-4 -8l-4 -8l-4 -8l-4 -8l-4 -8l-4 -8l-4 -8l-4 -8l-4 -8l-4 -8l-4 -8l-4 -8l-4 -8l-4 -8l-4 -8l-4 -8l-4 -8l-4 -8l-4 -8l-4 -8l-4 -8l-4 -8l-4 -8l-4 -8l-4 -8l-4 -8l-4 -8l-4 -8l-4 -8l-4 -8l-4 -8l-4 -8l-4 -8l-4 -8l-4 -8l-4 -8l-4 -8l-4 -8l-4 -8h-1
l-3 -4l-4 -4h-20z" />
    <glyph glyph-name="onehalf" unicode="&#xbd;" 
d="M152 0c-2.66699 0 -4.66699 0.666992 -6 2s-2 3.33301 -2 6v16l4 8l4 8l4 8l4 4l4 4l4 4l4 4l4 4l8 4l8 4l8 4l8 4l8 4l8 8l4 8v16l-4 8l-8 8l-8 4h-16l-8 -4l-8 -8l-4 -8h-1l-3 -4l-4 -4h-12l-4 8l4 8l4 8l4 4l4 4l4 4l8 4l8 4l8 4h16l8 -4l8 -4l8 -4v-1l4 -3l4 -4v-1
l4 -3l4 -8l4 -8v-16l-4 -8l-4 -8h-1l-3 -4l-4 -4h-1l-3 -4l-8 -4l-8 -4l-8 -4l-8 -4l-8 -4l-8 -8l-8 -8l-4 -8l-4 -8v-4h80l8 -4v-12l-8 -4h-96zM8 176l-8 4v12l8 4h32v116l-8 -4l-8 -4l-8 -4h-8l-8 4l4 8l4 4l8 4l8 4l8 4l8 4l8 4h8c2 0 3.66699 -1 5 -3
c2 -1.33301 3 -3 3 -5v-132h32l8 -4v-12l-8 -4h-88zM40 0l-4 8l4 8l4 8l4 8l4 8l4 8l4 8l4 8l4 8l4 8l4 8l4 8l4 8l4 8l4 8l4 8l4 8l4 8l4 8l4 8l4 8l4 8l4 8l4 8l4 8l4 8l4 8l4 8l4 8l4 8l4 8l4 8l4 8l4 8l4 8l4 8l4 8l4 8l4 8l4 8l4 8l4 4l4 4h20l4 -8l-4 -8l-4 -8l-4 -8
l-4 -8l-4 -8l-4 -8l-4 -8l-4 -8l-4 -8l-4 -8l-4 -8l-4 -8l-4 -8l-4 -8l-4 -8l-4 -8l-4 -8l-4 -8l-4 -8l-4 -8l-4 -8l-4 -8l-4 -8l-4 -8l-4 -8l-4 -8l-4 -8l-4 -8l-4 -8l-4 -8l-4 -8l-4 -8l-4 -8l-4 -8l-4 -8l-4 -8l-4 -8l-4 -8l-4 -8l-4 -8h-1l-3 -4l-4 -4h-20z" />
    <glyph glyph-name="threequarters" unicode="&#xbe;" horiz-adv-x="284" 
d="M216 0l-4 8v12h-56v0l-4 4v8l4 8l4 8l4 8l4 8l4 8v56l-4 8l-4 8l-4 8v8h20l4 -8l4 -8l4 -8l4 -8v-56l-4 -8l-4 -8l-4 -8l-4 -8h32v64l4 8h16l4 -8v-64h8l8 -4v-12l-8 -4h-8v-12l-4 -8h-16zM44 176l-8 4l-8 4l-8 4v0l-4 4l-4 4v0l-4 4l-4 8l-4 8l4 8h8l8 -4v-1l4 -3l4 -8
l8 -8l8 -4l8 -4l8 4l8 4l8 8l4 8v16l-4 8l-8 4l-8 4l-8 4v8l8 4l8 4l8 4l4 8v16l-4 8l-8 8l-8 4l-8 4l-8 -4l-8 -4l-8 -8l-4 -8h-1l-3 -4l-4 -4h-12l-4 8l4 8l4 8l4 4l4 4l4 4l8 4l8 4l8 4h16l8 -4l8 -4l8 -4v-1l4 -3l4 -4v-1l4 -3l4 -8l4 -8v-16l-4 -8l-4 -8h-1l-3 -4
l-8 -4l8 -4v-1l4 -3l4 -8l4 -8v-16l-4 -8l-4 -8h-1l-3 -4l-4 -4h-1l-3 -4l-8 -4l-8 -4l-8 -4h-16zM36 0l-4 8l4 8l4 8l4 8l4 8l4 8l4 8l4 8l4 8l4 8l4 8l4 8l4 8l4 8l4 8l4 8l4 8l4 8l4 8l4 8l4 8l4 8l4 8l4 8l4 8l4 8l4 8l4 8l4 8l4 8l4 8l4 8l4 8l4 8l4 8l4 8l4 8l4 8l4 8
l4 8l4 8l4 4l4 4h20l4 -8l-4 -8l-4 -8l-4 -8l-4 -8l-4 -8l-4 -8l-4 -8l-4 -8l-4 -8l-4 -8l-4 -8l-4 -8l-4 -8l-4 -8l-4 -8l-4 -8l-4 -8l-4 -8l-4 -8l-4 -8l-4 -8l-4 -8l-4 -8l-4 -8l-4 -8l-4 -8l-4 -8l-4 -8l-4 -8l-4 -8l-4 -8l-4 -8l-4 -8l-4 -8l-4 -8l-4 -8l-4 -8l-4 -8
l-4 -8l-4 -8h-1l-3 -4l-4 -4h-20z" />
    <glyph glyph-name="questiondown" unicode="&#xbf;" horiz-adv-x="232" 
d="M88 -132l-8 4l-8 4l-8 4l-8 4l-8 4l-8 8l-8 8l-4 8l-4 8l-4 8l-4 8v40l4 8l4 8l4 8l4 8l8 8l8 8l8 4l8 4l8 4l8 4l8 8l4 8l4 8v56l4 8h24l4 -8v-72l-4 -8l-4 -8l-8 -8l-8 -4l-8 -4l-8 -4l-8 -4l-8 -8l-8 -8l-8 -8l-4 -8l-4 -8v-24l4 -8l4 -8l8 -8l8 -8l8 -8l8 -4l8 -4h32
l8 4l8 4l5 6l-1 2l-4 8v8l4 8l4 8l8 4l8 4h8l8 -4l8 -4l4 -8l4 -8v-8l-4 -8l-4 -8l-8 -8l-8 -8l-8 -4l-8 -4l-8 -4l-8 -4l-8 -4h-48zM104 152l-8 4l-8 4l-4 8l-4 8v8l4 8l4 8l8 4l8 4h8l8 -4l8 -4l4 -8l4 -8v-8l-4 -8l-4 -8l-8 -4l-8 -4h-8z" />
    <glyph glyph-name="Agrave" unicode="&#xc0;" horiz-adv-x="432" 
d="M284 104l-4 8l-4 8l-4 8l-4 8l-4 8l-4 8l-4 8l-4 8l-4 8l-4 8l-4 8l-4 8l-4 8l-4 8l-4 8l-4 8l-4 8l-4 8l-4 8l-4 8l-4 8l-4 -8l-4 -8l-4 -8l-4 -8l-4 -8l-4 -8l-4 -8l-4 -8l-4 -8l-4 -8l-4 -8l-4 -8l-4 -8l-4 -8l-4 -8l-4 -8l-4 -8l-4 -8l-4 -8l-4 -8l-4 -8h168zM8 0
l-8 4v24l8 4h32l4 8l4 8l4 8l4 8l4 8l4 8l4 8l4 8l4 8l4 8l4 8l4 8l4 8l4 8l4 8l4 8l4 8l4 8l4 8l4 8l4 8l4 8l4 8l4 8l4 8l4 8l4 8l4 8l4 8l4 8l4 8l4 8l4 8l4 8l4 8l4 8l4 8l4 4l8 4l8 -4v-1l4 -3l4 -8l4 -8l4 -8l4 -8l4 -8l4 -8l4 -8l4 -8l4 -8l4 -8l4 -8l4 -8l4 -8l4 -8
l4 -8l4 -8l4 -8l4 -8l4 -8l4 -8l4 -8l4 -8l4 -8l4 -8l4 -8l4 -8l4 -8l4 -8l4 -8l4 -8l4 -8l4 -8l4 -8l4 -8l4 -8l4 -8l4 -8h32l8 -4v-24l-8 -4h-96l-8 4v24l8 4h24l-4 8l-4 8l-4 8l-4 8l-4 8h-200l-4 -8l-4 -8l-4 -8l-4 -8l-4 -8h24l8 -4v-24l-8 -4h-96zM232 344l-8 8l-8 8
l-8 8l-8 8l-8 8l-8 8l-8 8l-8 8l-8 8l-8 8l-4 8l4 8l8 4h8v-1l4 -3l4 -4v-1l4 -3l4 -4v-1l4 -3l4 -4v-1l4 -3l4 -4v-1l4 -3l4 -4v-1l4 -3l4 -4v-1l4 -3l4 -4v-1l4 -3l4 -4v-1l4 -3l4 -4v-1l4 -3l4 -4v-1l4 -3l-4 -8l-8 -8h-8z" />
    <glyph glyph-name="Aacute" unicode="&#xc1;" horiz-adv-x="432" 
d="M284 104l-4 8l-4 8l-4 8l-4 8l-4 8l-4 8l-4 8l-4 8l-4 8l-4 8l-4 8l-4 8l-4 8l-4 8l-4 8l-4 8l-4 8l-4 8l-4 8l-4 8l-4 8l-4 -8l-4 -8l-4 -8l-4 -8l-4 -8l-4 -8l-4 -8l-4 -8l-4 -8l-4 -8l-4 -8l-4 -8l-4 -8l-4 -8l-4 -8l-4 -8l-4 -8l-4 -8l-4 -8l-4 -8l-4 -8h168zM8 0
l-8 4v24l8 4h32l4 8l4 8l4 8l4 8l4 8l4 8l4 8l4 8l4 8l4 8l4 8l4 8l4 8l4 8l4 8l4 8l4 8l4 8l4 8l4 8l4 8l4 8l4 8l4 8l4 8l4 8l4 8l4 8l4 8l4 8l4 8l4 8l4 8l4 8l4 8l4 8l4 8l4 4l8 4l8 -4v-1l4 -3l4 -8l4 -8l4 -8l4 -8l4 -8l4 -8l4 -8l4 -8l4 -8l4 -8l4 -8l4 -8l4 -8l4 -8
l4 -8l4 -8l4 -8l4 -8l4 -8l4 -8l4 -8l4 -8l4 -8l4 -8l4 -8l4 -8l4 -8l4 -8l4 -8l4 -8l4 -8l4 -8l4 -8l4 -8l4 -8l4 -8l4 -8h32l8 -4v-24l-8 -4h-96l-8 4v24l8 4h24l-4 8l-4 8l-4 8l-4 8l-4 8h-200l-4 -8l-4 -8l-4 -8l-4 -8l-4 -8h24l8 -4v-24l-8 -4h-96zM160 344l-8 8l-4 8
l4 4l4 4l4 4l4 4l4 4l4 4l4 4l4 4l4 4l4 4l4 4l4 4l4 4l4 4l4 4l4 4l4 4l4 4l4 4l4 4l4 4h8l8 -4l4 -8l-4 -8l-8 -8l-8 -8l-8 -8l-8 -8l-8 -8l-8 -8l-8 -8l-8 -8l-8 -8l-8 -8h-8z" />
    <glyph glyph-name="Acircumflex" unicode="&#xc2;" horiz-adv-x="432" 
d="M284 104l-4 8l-4 8l-4 8l-4 8l-4 8l-4 8l-4 8l-4 8l-4 8l-4 8l-4 8l-4 8l-4 8l-4 8l-4 8l-4 8l-4 8l-4 8l-4 8l-4 8l-4 8l-4 -8l-4 -8l-4 -8l-4 -8l-4 -8l-4 -8l-4 -8l-4 -8l-4 -8l-4 -8l-4 -8l-4 -8l-4 -8l-4 -8l-4 -8l-4 -8l-4 -8l-4 -8l-4 -8l-4 -8l-4 -8h168zM8 0
l-8 4v24l8 4h32l4 8l4 8l4 8l4 8l4 8l4 8l4 8l4 8l4 8l4 8l4 8l4 8l4 8l4 8l4 8l4 8l4 8l4 8l4 8l4 8l4 8l4 8l4 8l4 8l4 8l4 8l4 8l4 8l4 8l4 8l4 8l4 8l4 8l4 8l4 8l4 8l4 8l4 4l8 4l8 -4v-1l4 -3l4 -8l4 -8l4 -8l4 -8l4 -8l4 -8l4 -8l4 -8l4 -8l4 -8l4 -8l4 -8l4 -8l4 -8
l4 -8l4 -8l4 -8l4 -8l4 -8l4 -8l4 -8l4 -8l4 -8l4 -8l4 -8l4 -8l4 -8l4 -8l4 -8l4 -8l4 -8l4 -8l4 -8l4 -8l4 -8l4 -8l4 -8h32l8 -4v-24l-8 -4h-96l-8 4v24l8 4h24l-4 8l-4 8l-4 8l-4 8l-4 8h-200l-4 -8l-4 -8l-4 -8l-4 -8l-4 -8h24l8 -4v-24l-8 -4h-96zM104 344v4l4 4l4 4
l4 4l4 4l4 4l4 4l4 4l4 4l4 4l4 4l4 4l4 4l4 4l4 4l4 4l4 4l4 4l4 4l4 4l4 4l4 4l4 4l4 4h8l4 -4v-1l4 -3l4 -4v-1l4 -3l4 -4v-1l4 -3l4 -4v-1l4 -3l4 -4v-1l4 -3l4 -4v-1l4 -3l4 -4v-1l4 -3l4 -4v-1l4 -3l4 -4v-1l4 -3l4 -4v-1l4 -3l4 -4v-1l4 -3l4 -4v-4h-32l-8 8l-8 8
l-8 8l-8 8l-8 8l-8 8l-8 8l-8 8l-8 -8l-8 -8l-8 -8l-8 -8l-8 -8l-8 -8l-8 -8l-8 -8h-32z" />
    <glyph glyph-name="Atilde" unicode="&#xc3;" horiz-adv-x="432" 
d="M284 104l-4 8l-4 8l-4 8l-4 8l-4 8l-4 8l-4 8l-4 8l-4 8l-4 8l-4 8l-4 8l-4 8l-4 8l-4 8l-4 8l-4 8l-4 8l-4 8l-4 8l-4 8l-4 -8l-4 -8l-4 -8l-4 -8l-4 -8l-4 -8l-4 -8l-4 -8l-4 -8l-4 -8l-4 -8l-4 -8l-4 -8l-4 -8l-4 -8l-4 -8l-4 -8l-4 -8l-4 -8l-4 -8l-4 -8h168zM8 0
l-8 4v24l8 4h32l4 8l4 8l4 8l4 8l4 8l4 8l4 8l4 8l4 8l4 8l4 8l4 8l4 8l4 8l4 8l4 8l4 8l4 8l4 8l4 8l4 8l4 8l4 8l4 8l4 8l4 8l4 8l4 8l4 8l4 8l4 8l4 8l4 8l4 8l4 8l4 8l4 8l4 4l8 4l8 -4v-1l4 -3l4 -8l4 -8l4 -8l4 -8l4 -8l4 -8l4 -8l4 -8l4 -8l4 -8l4 -8l4 -8l4 -8l4 -8
l4 -8l4 -8l4 -8l4 -8l4 -8l4 -8l4 -8l4 -8l4 -8l4 -8l4 -8l4 -8l4 -8l4 -8l4 -8l4 -8l4 -8l4 -8l4 -8l4 -8l4 -8l4 -8l4 -8h32l8 -4v-24l-8 -4h-96l-8 4v24l8 4h24l-4 8l-4 8l-4 8l-4 8l-4 8h-200l-4 -8l-4 -8l-4 -8l-4 -8l-4 -8h24l8 -4v-24l-8 -4h-96zM240 344l-8 4l-8 4
l-8 4v0l-4 4l-4 4v0l-4 4l-4 4v0l-4 4l-4 4l-8 4l-8 4h-16l-8 -4l-8 -4l-4 -4l-4 -8l-4 -8l-4 -8h-24l-4 8v8l4 8l4 8l4 8l8 8l8 8l8 4l8 4h48l8 -4l8 -4l8 -8l8 -8l8 -8l8 -8l8 -4h16l8 4l8 4l4 4l4 8l4 8l4 8h24l4 -8v-8l-4 -8l-4 -8l-4 -8l-8 -8l-8 -8l-8 -4l-8 -4h-40z
" />
    <glyph glyph-name="Adieresis" unicode="&#xc4;" horiz-adv-x="432" 
d="M284 104l-4 8l-4 8l-4 8l-4 8l-4 8l-4 8l-4 8l-4 8l-4 8l-4 8l-4 8l-4 8l-4 8l-4 8l-4 8l-4 8l-4 8l-4 8l-4 8l-4 8l-4 8l-4 -8l-4 -8l-4 -8l-4 -8l-4 -8l-4 -8l-4 -8l-4 -8l-4 -8l-4 -8l-4 -8l-4 -8l-4 -8l-4 -8l-4 -8l-4 -8l-4 -8l-4 -8l-4 -8l-4 -8l-4 -8h168zM8 0
l-8 4v24l8 4h32l4 8l4 8l4 8l4 8l4 8l4 8l4 8l4 8l4 8l4 8l4 8l4 8l4 8l4 8l4 8l4 8l4 8l4 8l4 8l4 8l4 8l4 8l4 8l4 8l4 8l4 8l4 8l4 8l4 8l4 8l4 8l4 8l4 8l4 8l4 8l4 8l4 8l4 4l8 4l8 -4v-1l4 -3l4 -8l4 -8l4 -8l4 -8l4 -8l4 -8l4 -8l4 -8l4 -8l4 -8l4 -8l4 -8l4 -8l4 -8
l4 -8l4 -8l4 -8l4 -8l4 -8l4 -8l4 -8l4 -8l4 -8l4 -8l4 -8l4 -8l4 -8l4 -8l4 -8l4 -8l4 -8l4 -8l4 -8l4 -8l4 -8l4 -8l4 -8h32l8 -4v-24l-8 -4h-96l-8 4v24l8 4h24l-4 8l-4 8l-4 8l-4 8l-4 8h-200l-4 -8l-4 -8l-4 -8l-4 -8l-4 -8h24l8 -4v-24l-8 -4h-96zM136 344l-8 4l-8 4
l-4 8l-4 8v8l4 8l4 8l8 4l8 4h8l8 -4l8 -4l4 -8l4 -8v-8l-4 -8l-4 -8l-8 -4l-8 -4h-8zM256 344l-8 4l-8 4l-4 8l-4 8v8l4 8l4 8l8 4l8 4h8l8 -4l8 -4l4 -8l4 -8v-8l-4 -8l-4 -8l-8 -4l-8 -4h-8z" />
    <glyph glyph-name="Aring" unicode="&#xc5;" horiz-adv-x="432" 
d="M284 104l-4 8l-4 8l-4 8l-4 8l-4 8l-4 8l-4 8l-4 8l-4 8l-4 8l-4 8l-4 8l-4 8l-4 8l-4 8l-4 8l-4 8l-4 8l-4 8l-4 8l-4 8l-4 -8l-4 -8l-4 -8l-4 -8l-4 -8l-4 -8l-4 -8l-4 -8l-4 -8l-4 -8l-4 -8l-4 -8l-4 -8l-4 -8l-4 -8l-4 -8l-4 -8l-4 -8l-4 -8l-4 -8l-4 -8h168zM8 0
l-8 4v24l8 4h32l4 8l4 8l4 8l4 8l4 8l4 8l4 8l4 8l4 8l4 8l4 8l4 8l4 8l4 8l4 8l4 8l4 8l4 8l4 8l4 8l4 8l4 8l4 8l4 8l4 8l4 8l4 8l4 8l4 8l4 8l4 8l4 8l4 8l4 8l4 8l4 8l4 8l4 4l8 4l8 -4v-1l4 -3l4 -8l4 -8l4 -8l4 -8l4 -8l4 -8l4 -8l4 -8l4 -8l4 -8l4 -8l4 -8l4 -8l4 -8
l4 -8l4 -8l4 -8l4 -8l4 -8l4 -8l4 -8l4 -8l4 -8l4 -8l4 -8l4 -8l4 -8l4 -8l4 -8l4 -8l4 -8l4 -8l4 -8l4 -8l4 -8l4 -8l4 -8h32l8 -4v-24l-8 -4h-96l-8 4v24l8 4h24l-4 8l-4 8l-4 8l-4 8l-4 8h-200l-4 -8l-4 -8l-4 -8l-4 -8l-4 -8h24l8 -4v-24l-8 -4h-96zM200 368l8 4l4 4
l4 8v24l-4 8l-4 4l-8 4l-8 -4l-4 -4l-4 -8v-24l4 -8l4 -4l8 -4v0zM184 344l-8 4l-8 4l-8 8l-4 8l-4 8v40l4 8l4 8l8 8l8 4l8 4h32l8 -4l8 -4l8 -8l4 -8l4 -8v-40l-4 -8l-4 -8l-8 -8l-8 -4l-8 -4h-32z" />
    <glyph glyph-name="AE" unicode="&#xc6;" horiz-adv-x="456" 
d="M200 104v168l-4 -8l-4 -8l-4 -8l-4 -8l-4 -8l-4 -8l-4 -8l-4 -8l-4 -8l-4 -8l-4 -8l-4 -8l-4 -8l-4 -8l-4 -8l-4 -8l-4 -8l-4 -8l-4 -8l-4 -8l-4 -8h84zM8 0l-8 4v24l8 4h32l4 8l4 8l4 8l4 8l4 8l4 8l4 8l4 8l4 8l4 8l4 8l4 8l4 8l4 8l4 8l4 8l4 8l4 8l4 8l4 8l4 8l4 8
l4 8l4 8l4 8l4 8l4 8l4 8l4 8l4 8l4 8l4 8l4 8l4 8h-16l-8 4v24l8 4h256c2 0 3.66699 -1 5 -3c2 -1.33301 3 -3 3 -5v-112l-4 -8h-32l-4 8v88h-144v-112h48v32l4 8h32l4 -8v-96l-4 -8h-32l-4 8v32h-48v-128h144v88l4 8h32l4 -8v-112c0 -2.66699 -1 -4.66699 -3 -6
c-1.33301 -1.33301 -3 -2 -5 -2h-256l-8 4v24l8 4h40v40h-100l-4 -8l-4 -8l-4 -8l-4 -8l-4 -8h24l8 -4v-24l-8 -4h-96z" />
    <glyph glyph-name="Ccedilla" unicode="&#xc7;" horiz-adv-x="280" 
d="M108 -120l-8 4l-8 4l-8 8l-4 8v8l4 8h8l8 -4v0l4 -4l4 -4l8 -4h8l8 4l4 4l4 8v24l-4 8l-4 4l-8 4h-8l-4 8v28h-20l-8 4l-8 4l-8 4l-8 4l-8 4l-8 8l-8 8l-8 8l-8 8l-4 8l-4 8l-4 8l-4 8l-4 8l-4 8l-4 8v128l4 8l4 8l4 8l4 8l4 8l4 8l4 8l8 8l8 8l8 8l8 8l8 4l8 4l8 4l8 4
l8 4h72l8 -4l8 -4l8 -4l8 -4l8 -4l8 -8l4 -4v20l4 8h32l4 -8v-112l-4 -8h-32l-4 8v24l-4 8l-4 8l-4 8l-4 8l-4 4v0l-4 4l-4 4v0l-4 4l-4 4l-8 4l-8 4l-8 4l-8 4h-40l-8 -4l-8 -4l-8 -4l-8 -4l-4 -4h-1l-3 -4l-4 -4h-1l-3 -4l-4 -4l-4 -8l-4 -8l-4 -8l-4 -8l-4 -8l-4 -8v-112
l4 -8l4 -8l4 -8l4 -8l4 -8l4 -8l4 -4v-1l4 -3l4 -4v-1l4 -3l4 -4l8 -4l8 -4l8 -4l8 -4h40l8 4l8 4l8 4l8 4l4 4l4 4l4 4l4 4l4 4l4 8l4 8l4 8l8 4h24l8 -4v-8l-4 -8l-4 -8l-4 -8l-4 -8l-8 -8l-8 -8l-8 -8l-8 -8l-8 -4l-8 -4l-8 -4l-8 -4l-8 -4h-20v-12l4 -4l8 -4l8 -8l4 -8
l4 -8v-40l-4 -8l-4 -8l-8 -8l-8 -4l-8 -4h-32z" />
    <glyph glyph-name="Egrave" unicode="&#xc8;" horiz-adv-x="304" 
d="M8 0l-8 4v24l8 4h40v272h-40l-8 4v24l8 4h256c2 0 3.66699 -1 5 -3c2 -1.33301 3 -3 3 -5v-112l-4 -8h-32l-4 8v88h-144v-112h48v32l4 8h32l4 -8v-96l-4 -8h-32l-4 8v32h-48v-128h144v88l4 8h32l4 -8v-112c0 -2.66699 -1 -4.66699 -3 -6c-1.33301 -1.33301 -3 -2 -5 -2
h-256zM176 344l-8 8l-8 8l-8 8l-8 8l-8 8l-8 8l-8 8l-8 8l-8 8l-8 8l-4 8l4 8l8 4h8v-1l4 -3l4 -4v-1l4 -3l4 -4v-1l4 -3l4 -4v-1l4 -3l4 -4v-1l4 -3l4 -4v-1l4 -3l4 -4v-1l4 -3l4 -4v-1l4 -3l4 -4v-1l4 -3l4 -4v-1l4 -3l4 -4v-1l4 -3l-4 -8l-8 -8h-8z" />
    <glyph glyph-name="Eacute" unicode="&#xc9;" horiz-adv-x="304" 
d="M8 0l-8 4v24l8 4h40v272h-40l-8 4v24l8 4h256c2 0 3.66699 -1 5 -3c2 -1.33301 3 -3 3 -5v-112l-4 -8h-32l-4 8v88h-144v-112h48v32l4 8h32l4 -8v-96l-4 -8h-32l-4 8v32h-48v-128h144v88l4 8h32l4 -8v-112c0 -2.66699 -1 -4.66699 -3 -6c-1.33301 -1.33301 -3 -2 -5 -2
h-256zM112 344l-8 8l-4 8l4 4l4 4l4 4l4 4l4 4l4 4l4 4l4 4l4 4l4 4l4 4l4 4l4 4l4 4l4 4l4 4l4 4l4 4l4 4l4 4l4 4h8l8 -4l4 -8l-4 -8l-8 -8l-8 -8l-8 -8l-8 -8l-8 -8l-8 -8l-8 -8l-8 -8l-8 -8l-8 -8h-8z" />
    <glyph glyph-name="Ecircumflex" unicode="&#xca;" horiz-adv-x="304" 
d="M8 0l-8 4v24l8 4h40v272h-40l-8 4v24l8 4h256c2 0 3.66699 -1 5 -3c2 -1.33301 3 -3 3 -5v-112l-4 -8h-32l-4 8v88h-144v-112h48v32l4 8h32l4 -8v-96l-4 -8h-32l-4 8v32h-48v-128h144v88l4 8h32l4 -8v-112c0 -2.66699 -1 -4.66699 -3 -6c-1.33301 -1.33301 -3 -2 -5 -2
h-256zM56 344v4l4 4l4 4l4 4l4 4l4 4l4 4l4 4l4 4l4 4l4 4l4 4l4 4l4 4l4 4l4 4l4 4l4 4l4 4l4 4l4 4l4 4l4 4l4 4h8l4 -4v-1l4 -3l4 -4v-1l4 -3l4 -4v-1l4 -3l4 -4v-1l4 -3l4 -4v-1l4 -3l4 -4v-1l4 -3l4 -4v-1l4 -3l4 -4v-1l4 -3l4 -4v-1l4 -3l4 -4v-1l4 -3l4 -4v-1l4 -3
l4 -4v-4h-32l-8 8l-8 8l-8 8l-8 8l-8 8l-8 8l-8 8l-8 8l-8 -8l-8 -8l-8 -8l-8 -8l-8 -8l-8 -8l-8 -8l-8 -8h-32z" />
    <glyph glyph-name="Edieresis" unicode="&#xcb;" horiz-adv-x="304" 
d="M8 0l-8 4v24l8 4h40v272h-40l-8 4v24l8 4h256c2 0 3.66699 -1 5 -3c2 -1.33301 3 -3 3 -5v-112l-4 -8h-32l-4 8v88h-144v-112h48v32l4 8h32l4 -8v-96l-4 -8h-32l-4 8v32h-48v-128h144v88l4 8h32l4 -8v-112c0 -2.66699 -1 -4.66699 -3 -6c-1.33301 -1.33301 -3 -2 -5 -2
h-256zM88 344l-8 4l-8 4l-4 8l-4 8v8l4 8l4 8l8 4l8 4h8l8 -4l8 -4l4 -8l4 -8v-8l-4 -8l-4 -8l-8 -4l-8 -4h-8zM208 344l-8 4l-8 4l-4 8l-4 8v8l4 8l4 8l8 4l8 4h8l8 -4l8 -4l4 -8l4 -8v-8l-4 -8l-4 -8l-8 -4l-8 -4h-8z" />
    <glyph glyph-name="Igrave" unicode="&#xcc;" horiz-adv-x="248" 
d="M8 0l-8 4v24l8 4h80v272h-80l-8 4v24l8 4h200l8 -4v-24l-8 -4h-80v-272h80l8 -4v-24l-8 -4h-200zM144 344l-8 8l-8 8l-8 8l-8 8l-8 8l-8 8l-8 8l-8 8l-8 8l-8 8l-4 8l4 8l8 4h8v-1l4 -3l4 -4v-1l4 -3l4 -4v-1l4 -3l4 -4v-1l4 -3l4 -4v-1l4 -3l4 -4v-1l4 -3l4 -4v-1l4 -3
l4 -4v-1l4 -3l4 -4v-1l4 -3l4 -4v-1l4 -3l4 -4v-1l4 -3l-4 -8l-8 -8h-8z" />
    <glyph glyph-name="Iacute" unicode="&#xcd;" horiz-adv-x="248" 
d="M8 0l-8 4v24l8 4h80v272h-80l-8 4v24l8 4h200l8 -4v-24l-8 -4h-80v-272h80l8 -4v-24l-8 -4h-200zM64 344l-8 8l-4 8l4 4l4 4l4 4l4 4l4 4l4 4l4 4l4 4l4 4l4 4l4 4l4 4l4 4l4 4l4 4l4 4l4 4l4 4l4 4l4 4l4 4h8l8 -4l4 -8l-4 -8l-8 -8l-8 -8l-8 -8l-8 -8l-8 -8l-8 -8
l-8 -8l-8 -8l-8 -8l-8 -8h-8z" />
    <glyph glyph-name="Icircumflex" unicode="&#xce;" horiz-adv-x="248" 
d="M8 0l-8 4v24l8 4h80v272h-80l-8 4v24l8 4h200l8 -4v-24l-8 -4h-80v-272h80l8 -4v-24l-8 -4h-200zM16 344v4l4 4l4 4l4 4l4 4l4 4l4 4l4 4l4 4l4 4l4 4l4 4l4 4l4 4l4 4l4 4l4 4l4 4l4 4l4 4l4 4l4 4l4 4l4 4h8l4 -4v-1l4 -3l4 -4v-1l4 -3l4 -4v-1l4 -3l4 -4v-1l4 -3l4 -4
v-1l4 -3l4 -4v-1l4 -3l4 -4v-1l4 -3l4 -4v-1l4 -3l4 -4v-1l4 -3l4 -4v-1l4 -3l4 -4v-1l4 -3l4 -4v-4h-32l-8 8l-8 8l-8 8l-8 8l-8 8l-8 8l-8 8l-8 8l-8 -8l-8 -8l-8 -8l-8 -8l-8 -8l-8 -8l-8 -8l-8 -8h-32z" />
    <glyph glyph-name="Idieresis" unicode="&#xcf;" horiz-adv-x="248" 
d="M8 0l-8 4v24l8 4h80v272h-80l-8 4v24l8 4h200l8 -4v-24l-8 -4h-80v-272h80l8 -4v-24l-8 -4h-200zM48 344l-8 4l-8 4l-4 8l-4 8v8l4 8l4 8l8 4l8 4h8l8 -4l8 -4l4 -8l4 -8v-8l-4 -8l-4 -8l-8 -4l-8 -4h-8zM168 344l-8 4l-8 4l-4 8l-4 8v8l4 8l4 8l8 4l8 4h8l8 -4l8 -4
l4 -8l4 -8v-8l-4 -8l-4 -8l-8 -4l-8 -4h-8z" />
    <glyph glyph-name="Eth" unicode="&#xd0;" horiz-adv-x="300" 
d="M168 32l8 4l8 4l8 4l4 4l4 4l4 4l4 4l4 4l4 8l4 8l4 8l4 8l4 8l4 8v112l-4 8l-4 8l-4 8l-4 8l-4 8l-4 8l-4 4v0l-4 4l-4 4v0l-4 4l-4 4l-8 4l-8 4l-8 4h-80v-112h32l8 -4v-24l-8 -4h-32v-128h80zM8 0l-8 4v24l8 4h40v128h-32l-8 4v24l8 4h32v112h-40l-8 4v24l8 4h176
l8 -4l8 -4l8 -4l8 -4l8 -8l8 -8l8 -8l8 -8l4 -8l4 -8l4 -8l4 -8l4 -8l4 -8l4 -8v-128l-4 -8l-4 -8l-4 -8l-4 -8l-4 -8l-4 -8l-4 -8l-8 -8l-8 -8l-8 -8l-8 -8l-8 -4l-8 -4l-8 -4l-8 -4h-176z" />
    <glyph glyph-name="Ntilde" unicode="&#xd1;" horiz-adv-x="376" 
d="M8 0l-8 4v24l8 4h40v272h-40l-8 4v24l8 4h104l4 -8l4 -8l4 -8l4 -8l4 -8l4 -8l4 -8l4 -8l4 -8l4 -8l4 -8l4 -8l4 -8l4 -8l4 -8l4 -8l4 -8l4 -8l4 -8l4 -8l4 -8l4 -8l4 -8l4 -8l4 -8l4 -8l4 -8l4 -8l4 -8l4 -8l4 -8l4 -8l4 -8l4 -8l4 -8l4 -8v256h-40l-8 4v24l8 4h120
l8 -4v-24l-8 -4h-40v-296l-4 -8h-52l-4 8l-4 8l-4 8l-4 8l-4 8l-4 8l-4 8l-4 8l-4 8l-4 8l-4 8l-4 8l-4 8l-4 8l-4 8l-4 8l-4 8l-4 8l-4 8l-4 8l-4 8l-4 8l-4 8l-4 8l-4 8l-4 8l-4 8l-4 8l-4 8l-4 8l-4 8l-4 8l-4 8l-4 8l-4 8l-4 8l-4 8l-4 8v-272h40l8 -4v-24l-8 -4h-120z
M176 344l-8 4l-8 4l-8 4v0l-4 4l-4 4v0l-4 4l-4 4v0l-4 4l-4 4l-8 4l-8 4h-16l-8 -4l-8 -4l-4 -4l-4 -8l-4 -8l-4 -8h-24l-4 8v8l4 8l4 8l4 8l8 8l8 8l8 4l8 4h48l8 -4l8 -4l8 -8l8 -8l8 -8l8 -8l8 -4h16l8 4l8 4l4 4l4 8l4 8l4 8h24l4 -8v-8l-4 -8l-4 -8l-4 -8l-8 -8l-8 -8
l-8 -4l-8 -4h-40z" />
    <glyph glyph-name="Ograve" unicode="&#xd2;" 
d="M148 28l8 4l8 4l8 4l8 4l4 4l4 4l4 4l4 4l4 4l4 8l4 8l4 8l4 8l4 8l4 8v112l-4 8l-4 8l-4 8l-4 8l-4 8l-4 8l-4 4v0l-4 4l-4 4v0l-4 4l-4 4l-8 4l-8 4l-8 4l-8 4h-40l-8 -4l-8 -4l-8 -4l-8 -4l-4 -4h-1l-3 -4l-4 -4h-1l-3 -4l-4 -4l-4 -8l-4 -8l-4 -8l-4 -8l-4 -8l-4 -8
v-112l4 -8l4 -8l4 -8l4 -8l4 -8l4 -8l4 -4v-1l4 -3l4 -4v-1l4 -3l4 -4l8 -4l8 -4l8 -4l8 -4h40zM92 -4l-8 4l-8 4l-8 4l-8 4l-8 4l-8 8l-8 8l-8 8l-8 8l-4 8l-4 8l-4 8l-4 8l-4 8l-4 8l-4 8v128l4 8l4 8l4 8l4 8l4 8l4 8l4 8l8 8l8 8l8 8l8 8l8 4l8 4l8 4l8 4l8 4h72l8 -4
l8 -4l8 -4l8 -4l8 -4l8 -8l8 -8l8 -8l8 -8l4 -8l4 -8l4 -8l4 -8l4 -8l4 -8l4 -8v-128l-4 -8l-4 -8l-4 -8l-4 -8l-4 -8l-4 -8l-4 -8l-8 -8l-8 -8l-8 -8l-8 -8l-8 -4l-8 -4l-8 -4l-8 -4l-8 -4h-72zM164 344l-8 8l-8 8l-8 8l-8 8l-8 8l-8 8l-8 8l-8 8l-8 8l-8 8l-4 8l4 8l8 4h8
v-1l4 -3l4 -4v-1l4 -3l4 -4v-1l4 -3l4 -4v-1l4 -3l4 -4v-1l4 -3l4 -4v-1l4 -3l4 -4v-1l4 -3l4 -4v-1l4 -3l4 -4v-1l4 -3l4 -4v-1l4 -3l4 -4v-1l4 -3l-4 -8l-8 -8h-8z" />
    <glyph glyph-name="Oacute" unicode="&#xd3;" 
d="M148 28l8 4l8 4l8 4l8 4l4 4l4 4l4 4l4 4l4 4l4 8l4 8l4 8l4 8l4 8l4 8v112l-4 8l-4 8l-4 8l-4 8l-4 8l-4 8l-4 4v0l-4 4l-4 4v0l-4 4l-4 4l-8 4l-8 4l-8 4l-8 4h-40l-8 -4l-8 -4l-8 -4l-8 -4l-4 -4h-1l-3 -4l-4 -4h-1l-3 -4l-4 -4l-4 -8l-4 -8l-4 -8l-4 -8l-4 -8l-4 -8
v-112l4 -8l4 -8l4 -8l4 -8l4 -8l4 -8l4 -4v-1l4 -3l4 -4v-1l4 -3l4 -4l8 -4l8 -4l8 -4l8 -4h40zM92 -4l-8 4l-8 4l-8 4l-8 4l-8 4l-8 8l-8 8l-8 8l-8 8l-4 8l-4 8l-4 8l-4 8l-4 8l-4 8l-4 8v128l4 8l4 8l4 8l4 8l4 8l4 8l4 8l8 8l8 8l8 8l8 8l8 4l8 4l8 4l8 4l8 4h72l8 -4
l8 -4l8 -4l8 -4l8 -4l8 -8l8 -8l8 -8l8 -8l4 -8l4 -8l4 -8l4 -8l4 -8l4 -8l4 -8v-128l-4 -8l-4 -8l-4 -8l-4 -8l-4 -8l-4 -8l-4 -8l-8 -8l-8 -8l-8 -8l-8 -8l-8 -4l-8 -4l-8 -4l-8 -4l-8 -4h-72zM84 344l-8 8l-4 8l4 4l4 4l4 4l4 4l4 4l4 4l4 4l4 4l4 4l4 4l4 4l4 4l4 4l4 4
l4 4l4 4l4 4l4 4l4 4l4 4l4 4h8l8 -4l4 -8l-4 -8l-8 -8l-8 -8l-8 -8l-8 -8l-8 -8l-8 -8l-8 -8l-8 -8l-8 -8l-8 -8h-8z" />
    <glyph glyph-name="Ocircumflex" unicode="&#xd4;" 
d="M148 28l8 4l8 4l8 4l8 4l4 4l4 4l4 4l4 4l4 4l4 8l4 8l4 8l4 8l4 8l4 8v112l-4 8l-4 8l-4 8l-4 8l-4 8l-4 8l-4 4v0l-4 4l-4 4v0l-4 4l-4 4l-8 4l-8 4l-8 4l-8 4h-40l-8 -4l-8 -4l-8 -4l-8 -4l-4 -4h-1l-3 -4l-4 -4h-1l-3 -4l-4 -4l-4 -8l-4 -8l-4 -8l-4 -8l-4 -8l-4 -8
v-112l4 -8l4 -8l4 -8l4 -8l4 -8l4 -8l4 -4v-1l4 -3l4 -4v-1l4 -3l4 -4l8 -4l8 -4l8 -4l8 -4h40zM92 -4l-8 4l-8 4l-8 4l-8 4l-8 4l-8 8l-8 8l-8 8l-8 8l-4 8l-4 8l-4 8l-4 8l-4 8l-4 8l-4 8v128l4 8l4 8l4 8l4 8l4 8l4 8l4 8l8 8l8 8l8 8l8 8l8 4l8 4l8 4l8 4l8 4h72l8 -4
l8 -4l8 -4l8 -4l8 -4l8 -8l8 -8l8 -8l8 -8l4 -8l4 -8l4 -8l4 -8l4 -8l4 -8l4 -8v-128l-4 -8l-4 -8l-4 -8l-4 -8l-4 -8l-4 -8l-4 -8l-8 -8l-8 -8l-8 -8l-8 -8l-8 -4l-8 -4l-8 -4l-8 -4l-8 -4h-72zM28 344v4l4 4l4 4l4 4l4 4l4 4l4 4l4 4l4 4l4 4l4 4l4 4l4 4l4 4l4 4l4 4l4 4
l4 4l4 4l4 4l4 4l4 4l4 4l4 4h8l4 -4v-1l4 -3l4 -4v-1l4 -3l4 -4v-1l4 -3l4 -4v-1l4 -3l4 -4v-1l4 -3l4 -4v-1l4 -3l4 -4v-1l4 -3l4 -4v-1l4 -3l4 -4v-1l4 -3l4 -4v-1l4 -3l4 -4v-1l4 -3l4 -4v-4h-32l-8 8l-8 8l-8 8l-8 8l-8 8l-8 8l-8 8l-8 8l-8 -8l-8 -8l-8 -8l-8 -8
l-8 -8l-8 -8l-8 -8l-8 -8h-32z" />
    <glyph glyph-name="Otilde" unicode="&#xd5;" 
d="M148 28l8 4l8 4l8 4l8 4l4 4l4 4l4 4l4 4l4 4l4 8l4 8l4 8l4 8l4 8l4 8v112l-4 8l-4 8l-4 8l-4 8l-4 8l-4 8l-4 4v0l-4 4l-4 4v0l-4 4l-4 4l-8 4l-8 4l-8 4l-8 4h-40l-8 -4l-8 -4l-8 -4l-8 -4l-4 -4h-1l-3 -4l-4 -4h-1l-3 -4l-4 -4l-4 -8l-4 -8l-4 -8l-4 -8l-4 -8l-4 -8
v-112l4 -8l4 -8l4 -8l4 -8l4 -8l4 -8l4 -4v-1l4 -3l4 -4v-1l4 -3l4 -4l8 -4l8 -4l8 -4l8 -4h40zM92 -4l-8 4l-8 4l-8 4l-8 4l-8 4l-8 8l-8 8l-8 8l-8 8l-4 8l-4 8l-4 8l-4 8l-4 8l-4 8l-4 8v128l4 8l4 8l4 8l4 8l4 8l4 8l4 8l8 8l8 8l8 8l8 8l8 4l8 4l8 4l8 4l8 4h72l8 -4
l8 -4l8 -4l8 -4l8 -4l8 -8l8 -8l8 -8l8 -8l4 -8l4 -8l4 -8l4 -8l4 -8l4 -8l4 -8v-128l-4 -8l-4 -8l-4 -8l-4 -8l-4 -8l-4 -8l-4 -8l-8 -8l-8 -8l-8 -8l-8 -8l-8 -4l-8 -4l-8 -4l-8 -4l-8 -4h-72zM164 344l-8 4l-8 4l-8 4v0l-4 4l-4 4v0l-4 4l-4 4v0l-4 4l-4 4l-8 4l-8 4h-16
l-8 -4l-8 -4l-4 -4l-4 -8l-4 -8l-4 -8h-24l-4 8v8l4 8l4 8l4 8l8 8l8 8l8 4l8 4h48l8 -4l8 -4l8 -8l8 -8l8 -8l8 -8l8 -4h16l8 4l8 4l4 4l4 8l4 8l4 8h24l4 -8v-8l-4 -8l-4 -8l-4 -8l-8 -8l-8 -8l-8 -4l-8 -4h-40z" />
    <glyph glyph-name="Odieresis" unicode="&#xd6;" 
d="M148 28l8 4l8 4l8 4l8 4l4 4l4 4l4 4l4 4l4 4l4 8l4 8l4 8l4 8l4 8l4 8v112l-4 8l-4 8l-4 8l-4 8l-4 8l-4 8l-4 4v0l-4 4l-4 4v0l-4 4l-4 4l-8 4l-8 4l-8 4l-8 4h-40l-8 -4l-8 -4l-8 -4l-8 -4l-4 -4h-1l-3 -4l-4 -4h-1l-3 -4l-4 -4l-4 -8l-4 -8l-4 -8l-4 -8l-4 -8l-4 -8
v-112l4 -8l4 -8l4 -8l4 -8l4 -8l4 -8l4 -4v-1l4 -3l4 -4v-1l4 -3l4 -4l8 -4l8 -4l8 -4l8 -4h40zM92 -4l-8 4l-8 4l-8 4l-8 4l-8 4l-8 8l-8 8l-8 8l-8 8l-4 8l-4 8l-4 8l-4 8l-4 8l-4 8l-4 8v128l4 8l4 8l4 8l4 8l4 8l4 8l4 8l8 8l8 8l8 8l8 8l8 4l8 4l8 4l8 4l8 4h72l8 -4
l8 -4l8 -4l8 -4l8 -4l8 -8l8 -8l8 -8l8 -8l4 -8l4 -8l4 -8l4 -8l4 -8l4 -8l4 -8v-128l-4 -8l-4 -8l-4 -8l-4 -8l-4 -8l-4 -8l-4 -8l-8 -8l-8 -8l-8 -8l-8 -8l-8 -4l-8 -4l-8 -4l-8 -4l-8 -4h-72zM60 344l-8 4l-8 4l-4 8l-4 8v8l4 8l4 8l8 4l8 4h8l8 -4l8 -4l4 -8l4 -8v-8
l-4 -8l-4 -8l-8 -4l-8 -4h-8zM188 344l-8 4l-8 4l-4 8l-4 8v8l4 8l4 8l8 4l8 4h8l8 -4l8 -4l4 -8l4 -8v-8l-4 -8l-4 -8l-8 -4l-8 -4h-8z" />
    <glyph glyph-name="multiply" unicode="&#xd7;" horiz-adv-x="208" 
d="M8 84l-8 4v16l8 8l8 8l8 8l8 8l8 8l8 8l8 8l8 8v0l4 4l-4 3v1l-8 8l-8 8l-8 8l-8 8l-8 8l-8 8l-8 8l-8 8v16l8 4h8l8 -4l8 -8l8 -8l8 -8l8 -8l8 -8l8 -8l8 -8l8 -8l8 8l8 8l8 8l8 8l8 8l8 8l8 8l8 8l8 4h8l8 -4v-16l-8 -8l-8 -8l-8 -8l-8 -8l-8 -8l-8 -8l-8 -8l-8 -8h-1
l-3 -4l4 -4v0l8 -8l8 -8l8 -8l8 -8l8 -8l8 -8l8 -8l8 -8v-16l-8 -4h-8l-8 4l-8 8l-8 8l-8 8l-8 8l-8 8l-8 8l-8 8l-8 8l-8 -8l-8 -8l-8 -8l-8 -8l-8 -8l-8 -8l-8 -8l-8 -8l-8 -4h-8z" />
    <glyph glyph-name="Oslash" unicode="&#xd8;" 
d="M148 28l8 4l8 4l8 4l8 4l4 4l4 4l4 4l4 4l4 4l4 8l4 8l4 8l4 8l4 8l4 8v112l-4 8l-4 8l-4 8l-4 8l-4 8l-4 8l-4 4v0l-4 4l-4 -8l-4 -8l-4 -8l-4 -8l-4 -8l-4 -8l-4 -8l-4 -8l-4 -8l-4 -8l-4 -8l-4 -8l-4 -8l-4 -8l-4 -8l-4 -8l-4 -8l-4 -8l-4 -8l-4 -8l-4 -8l-4 -8l-4 -8
l-4 -8l-4 -8l-4 -8l-4 -8l-4 -8l-4 -8v-4l8 -4l8 -4l8 -4l8 -4h40zM54 68l2 4l4 8l4 8l4 8l4 8l4 8l4 8l4 8l4 8l4 8l4 8l4 8l4 8l4 8l4 8l4 8l4 8l4 8l4 8l4 8l4 8l4 8l4 8l4 8l4 8l4 8l4 8l4 8l4 8v1l-4 3l-8 4l-8 4h-40l-8 -4l-8 -4l-8 -4l-8 -4l-4 -4h-1l-3 -4l-4 -4h-1
l-3 -4l-4 -4l-4 -8l-4 -8l-4 -8l-4 -8l-4 -8l-4 -8v-112l4 -8l4 -8l4 -8l4 -8l4 -8l2 -4v0zM92 -4l-8 4l-8 4l-8 4l-8 4h-2l-2 -4h-1l-3 -4l-4 -4h-20l-4 8l4 8l4 8l4 8l-8 8l-8 8l-4 8l-4 8l-4 8l-4 8l-4 8l-4 8l-4 8v128l4 8l4 8l4 8l4 8l4 8l4 8l4 8l8 8l8 8l8 8l8 8l8 4
l8 4l8 4l8 4l8 4h72l8 -4l8 -4l5 -3l3 3l4 4h20l4 -8l-4 -8l-3 -6l3 -2l8 -8l8 -8l8 -8l4 -8l4 -8l4 -8l4 -8l4 -8l4 -8l4 -8v-128l-4 -8l-4 -8l-4 -8l-4 -8l-4 -8l-4 -8l-4 -8l-8 -8l-8 -8l-8 -8l-8 -8l-8 -4l-8 -4l-8 -4l-8 -4l-8 -4h-72z" />
    <glyph glyph-name="Ugrave" unicode="&#xd9;" horiz-adv-x="352" 
d="M120 -4l-8 4l-8 4l-8 4l-8 8l-8 8l-8 8l-8 8l-4 8l-4 8l-4 8l-4 8v232h-40l-8 4v24l8 4h120l8 -4v-24l-8 -4h-40v-224l4 -8l4 -8l4 -8l4 -4v-1l4 -3l4 -4l8 -4l8 -4l8 -4l8 -4h32l8 4l8 4l8 4l8 4l4 4l4 4l4 4l4 8l4 8l4 8v224h-40l-8 4v24l8 4h120l8 -4v-24l-8 -4h-40
v-232l-4 -8l-4 -8l-4 -8l-4 -8l-8 -8l-8 -8l-8 -8l-8 -8l-8 -4l-8 -4l-8 -4h-80zM192 344l-8 8l-8 8l-8 8l-8 8l-8 8l-8 8l-8 8l-8 8l-8 8l-8 8l-4 8l4 8l8 4h8v-1l4 -3l4 -4v-1l4 -3l4 -4v-1l4 -3l4 -4v-1l4 -3l4 -4v-1l4 -3l4 -4v-1l4 -3l4 -4v-1l4 -3l4 -4v-1l4 -3l4 -4
v-1l4 -3l4 -4v-1l4 -3l4 -4v-1l4 -3l-4 -8l-8 -8h-8z" />
    <glyph glyph-name="Uacute" unicode="&#xda;" horiz-adv-x="352" 
d="M120 -4l-8 4l-8 4l-8 4l-8 8l-8 8l-8 8l-8 8l-4 8l-4 8l-4 8l-4 8v232h-40l-8 4v24l8 4h120l8 -4v-24l-8 -4h-40v-224l4 -8l4 -8l4 -8l4 -4v-1l4 -3l4 -4l8 -4l8 -4l8 -4l8 -4h32l8 4l8 4l8 4l8 4l4 4l4 4l4 4l4 8l4 8l4 8v224h-40l-8 4v24l8 4h120l8 -4v-24l-8 -4h-40
v-232l-4 -8l-4 -8l-4 -8l-4 -8l-8 -8l-8 -8l-8 -8l-8 -8l-8 -4l-8 -4l-8 -4h-80zM120 344l-8 8l-4 8l4 4l4 4l4 4l4 4l4 4l4 4l4 4l4 4l4 4l4 4l4 4l4 4l4 4l4 4l4 4l4 4l4 4l4 4l4 4l4 4l4 4h8l8 -4l4 -8l-4 -8l-8 -8l-8 -8l-8 -8l-8 -8l-8 -8l-8 -8l-8 -8l-8 -8l-8 -8
l-8 -8h-8z" />
    <glyph glyph-name="Ucircumflex" unicode="&#xdb;" horiz-adv-x="352" 
d="M120 -4l-8 4l-8 4l-8 4l-8 8l-8 8l-8 8l-8 8l-4 8l-4 8l-4 8l-4 8v232h-40l-8 4v24l8 4h120l8 -4v-24l-8 -4h-40v-224l4 -8l4 -8l4 -8l4 -4v-1l4 -3l4 -4l8 -4l8 -4l8 -4l8 -4h32l8 4l8 4l8 4l8 4l4 4l4 4l4 4l4 8l4 8l4 8v224h-40l-8 4v24l8 4h120l8 -4v-24l-8 -4h-40
v-232l-4 -8l-4 -8l-4 -8l-4 -8l-8 -8l-8 -8l-8 -8l-8 -8l-8 -4l-8 -4l-8 -4h-80zM64 344v4l4 4l4 4l4 4l4 4l4 4l4 4l4 4l4 4l4 4l4 4l4 4l4 4l4 4l4 4l4 4l4 4l4 4l4 4l4 4l4 4l4 4l4 4l4 4h8l4 -4v-1l4 -3l4 -4v-1l4 -3l4 -4v-1l4 -3l4 -4v-1l4 -3l4 -4v-1l4 -3l4 -4v-1
l4 -3l4 -4v-1l4 -3l4 -4v-1l4 -3l4 -4v-1l4 -3l4 -4v-1l4 -3l4 -4v-1l4 -3l4 -4v-4h-32l-8 8l-8 8l-8 8l-8 8l-8 8l-8 8l-8 8l-8 8l-8 -8l-8 -8l-8 -8l-8 -8l-8 -8l-8 -8l-8 -8l-8 -8h-32z" />
    <glyph glyph-name="Udieresis" unicode="&#xdc;" horiz-adv-x="352" 
d="M120 -4l-8 4l-8 4l-8 4l-8 8l-8 8l-8 8l-8 8l-4 8l-4 8l-4 8l-4 8v232h-40l-8 4v24l8 4h120l8 -4v-24l-8 -4h-40v-224l4 -8l4 -8l4 -8l4 -4v-1l4 -3l4 -4l8 -4l8 -4l8 -4l8 -4h32l8 4l8 4l8 4l8 4l4 4l4 4l4 4l4 8l4 8l4 8v224h-40l-8 4v24l8 4h120l8 -4v-24l-8 -4h-40
v-232l-4 -8l-4 -8l-4 -8l-4 -8l-8 -8l-8 -8l-8 -8l-8 -8l-8 -4l-8 -4l-8 -4h-80zM96 344l-8 4l-8 4l-4 8l-4 8v8l4 8l4 8l8 4l8 4h8l8 -4l8 -4l4 -8l4 -8v-8l-4 -8l-4 -8l-8 -4l-8 -4h-8zM216 344l-8 4l-8 4l-4 8l-4 8v8l4 8l4 8l8 4l8 4h8l8 -4l8 -4l4 -8l4 -8v-8l-4 -8
l-4 -8l-8 -4l-8 -4h-8z" />
    <glyph glyph-name="Yacute" unicode="&#xdd;" horiz-adv-x="328" 
d="M48 0l-8 4v24l8 4h80v96l-4 8l-4 8l-4 8l-4 8l-4 8l-4 8l-4 8l-4 8l-4 8l-4 8l-4 8l-4 8l-4 8l-4 8l-4 8l-4 8l-4 8l-4 8l-4 8l-4 8l-4 8l-4 8h-32l-8 4v24l8 4h104l8 -4v-24l-8 -4h-32l4 -8l4 -8l4 -8l4 -8l4 -8l4 -8l4 -8l4 -8l4 -8l4 -8l4 -8l4 -8l4 -8l4 -8l4 -8
l4 -8l4 -8l4 8l4 8l4 8l4 8l4 8l4 8l4 8l4 8l4 8l4 8l4 8l4 8l4 8l4 8l4 8l4 8l4 8h-32l-8 4v24l8 4h104l8 -4v-24l-8 -4h-32l-4 -8l-4 -8l-4 -8l-4 -8l-4 -8l-4 -8l-4 -8l-4 -8l-4 -8l-4 -8l-4 -8l-4 -8l-4 -8l-4 -8l-4 -8l-4 -8l-4 -8l-4 -8l-4 -8l-4 -8l-4 -8l-4 -8v-96
h80l8 -4v-24l-8 -4h-200zM96 344l-8 8l-4 8l4 4l4 4l4 4l4 4l4 4l4 4l4 4l4 4l4 4l4 4l4 4l4 4l4 4l4 4l4 4l4 4l4 4l4 4l4 4l4 4l4 4h8l8 -4l4 -8l-4 -8l-8 -8l-8 -8l-8 -8l-8 -8l-8 -8l-8 -8l-8 -8l-8 -8l-8 -8l-8 -8h-8z" />
    <glyph glyph-name="Thorn" unicode="&#xde;" horiz-adv-x="260" 
d="M144 80l8 4l8 4l8 8l8 8l8 8l8 8l4 8l4 8l4 8v48l-4 8l-4 8l-4 8l-8 8l-8 8l-8 8l-8 8l-8 4l-8 4h-40l-8 -4l-8 -4l-8 -4l-8 -4l-8 -4l-8 -4v-128l8 -4l8 -4l8 -4l8 -4l8 -4l8 -4h40zM-16 0l-8 4v20l8 4h40v280h-40l-8 4v20l8 4h64c2 0 3.66699 -1 5 -3
c2 -1.33301 3 -3 3 -5v-60l8 4l8 4l8 4l8 4h72l8 -4l8 -4l8 -4l8 -8l8 -8l8 -8l8 -8l4 -8l4 -8l4 -8l4 -8l4 -8v-64l-4 -8l-4 -8l-4 -8l-4 -8l-4 -8l-8 -8l-8 -8l-8 -8l-8 -8l-8 -4l-8 -4l-8 -4h-72l-8 4l-8 4l-8 4l-8 4v-60c0 -2.66699 -1 -4.66699 -3 -6
c-1.33301 -1.33301 -3 -2 -5 -2h-64z" />
    <glyph glyph-name="germandbls" unicode="&#xdf;" horiz-adv-x="264" 
d="M128 -4l-8 4l-8 4l-8 4l-8 4v0l-4 4v16l4 4h16l8 -4l8 -4l8 -4h8l8 4l8 4l8 8l8 8l8 8l4 8l4 8l4 8l4 8v32l-4 8l-4 8l-4 8l-4 8l-8 8l-8 8l-8 8l-4 8l-4 8l-4 8v16l4 8l4 8l4 8l4 8l4 8v8l-4 8l-4 8l-8 8l-8 4l-8 4h-16l-8 -4l-8 -4l-8 -8l-8 -8l-4 -8l-4 -8v-248
c0 -2.66699 -1 -4.66699 -3 -6c-1.33301 -1.33301 -3 -2 -5 -2h-64l-8 4v20l8 4h40v236l4 8l4 8l4 8l4 4l4 4l4 4l4 4l4 4l8 4l8 4l8 4l8 4h32l8 -4l8 -4l8 -4l8 -4v-1l4 -3l4 -4v-1l4 -3l4 -4v-1l4 -3l4 -8v-24l-4 -8l-4 -8l-4 -8l-4 -8l-4 -8v-8l4 -8l8 -8l8 -8l8 -8l4 -8
l4 -8l4 -8l4 -8l4 -8l4 -8v-48l-4 -8l-4 -8l-4 -8l-4 -8l-4 -8h-1l-3 -4l-4 -4h-1l-3 -4l-4 -4h-1l-3 -4l-4 -4h-1l-3 -4l-8 -4l-8 -4l-8 -4l-8 -4h-24z" />
    <glyph glyph-name="agrave" unicode="&#xe0;" horiz-adv-x="272" 
d="M112 16l8 4l8 4l8 8l8 8l4 8l4 8l4 8l4 8v36l-8 4l-8 4l-8 4h-56l-8 -4l-8 -4l-8 -4l-8 -4l-8 -8l-8 -8l-4 -8l-4 -8v-16l4 -8l4 -8l8 -8l8 -8l8 -4l8 -4h48zM64 -4l-8 4l-8 4l-8 4l-8 4l-8 4l-8 8l-8 8l-4 8l-4 8v32l4 8l4 8l8 8l8 8l8 8l8 4l8 4l8 4l8 4l8 4h72l8 4
l4 8l4 8v24l-4 8l-4 8l-8 8l-8 4l-8 4l-8 4h-48l-8 -4l-8 -4v-4l4 -8l4 -8v-8l-4 -8l-4 -8l-8 -4l-8 -4h-8l-8 4l-8 4l-4 8l-4 8v8l4 8l4 8l8 8l8 8l8 4l8 4l8 4l8 4h64l8 -4l8 -4l8 -4l8 -4l8 -8l8 -8l4 -8l4 -8v-152l4 -8l4 -8l8 -8h8l8 8v8l4 8h16l4 -8v-8l-4 -8l-4 -8
l-8 -4l-8 -4h-32l-8 4l-8 4l-4 8l-4 8l-8 -8l-8 -8l-8 -4l-8 -4l-8 -4h-56zM136 248l-8 8l-8 8l-8 8l-8 8l-8 8l-8 8l-8 8l-8 8l-8 8l-8 8l-4 8l4 8l8 4h8v-1l4 -3l4 -4v-1l4 -3l4 -4v-1l4 -3l4 -4v-1l4 -3l4 -4v-1l4 -3l4 -4v-1l4 -3l4 -4v-1l4 -3l4 -4v-1l4 -3l4 -4v-1
l4 -3l4 -4v-1l4 -3l4 -4v-1l4 -3l-4 -8l-8 -8h-8z" />
    <glyph glyph-name="aacute" unicode="&#xe1;" horiz-adv-x="272" 
d="M104 24l8 4l8 4l8 8l8 8l4 8l4 8l4 8l4 8v28l-8 4l-8 4l-8 4h-40l-8 -4l-8 -4l-8 -4l-8 -4l-8 -8l-8 -8l-4 -8l-4 -8v-8l4 -8l4 -8l8 -8l8 -8l8 -4l8 -4h32zM64 -4l-8 4l-8 4l-8 4l-8 4l-8 4l-8 8l-8 8l-4 8l-4 8v40l4 8l4 8l8 8l8 8l8 8l8 4l8 4l8 4l8 4l8 4h64l8 4l4 8
l4 8v8l-4 8l-4 8l-8 8l-8 4l-8 4l-8 4h-32l-8 -4l-8 -4l-4 -4l4 -8v-8l-4 -8l-4 -8l-8 -4l-8 -4h-8l-8 4l-8 4l-4 8l-4 8v8l4 8l4 8l8 8l8 8l8 4l8 4l8 4l8 4h64l8 -4l8 -4l8 -4l8 -4l8 -8l8 -8l4 -8l4 -8v-144l4 -8l4 -8l8 -8h8l8 8l8 8h12l4 -8v-8l-4 -8l-4 -8l-8 -4
l-8 -4h-32l-8 4l-8 4l-4 8l-4 8l-8 -8l-8 -8l-8 -4l-8 -4l-8 -4h-56zM64 248l-8 8l-4 8l4 4l4 4l4 4l4 4l4 4l4 4l4 4l4 4l4 4l4 4l4 4l4 4l4 4l4 4l4 4l4 4l4 4l4 4l4 4l4 4l4 4h8l8 -4l4 -8l-4 -8l-8 -8l-8 -8l-8 -8l-8 -8l-8 -8l-8 -8l-8 -8l-8 -8l-8 -8l-8 -8h-8z" />
    <glyph glyph-name="acircumflex" unicode="&#xe2;" horiz-adv-x="272" 
d="M104 24l8 4l8 4l8 8l8 8l4 8l4 8l4 8l4 8v28l-8 4l-8 4l-8 4h-40l-8 -4l-8 -4l-8 -4l-8 -4l-8 -8l-8 -8l-4 -8l-4 -8v-8l4 -8l4 -8l8 -8l8 -8l8 -4l8 -4h32zM64 -4l-8 4l-8 4l-8 4l-8 4l-8 4l-8 8l-8 8l-4 8l-4 8v40l4 8l4 8l8 8l8 8l8 8l8 4l8 4l8 4l8 4l8 4h64l8 4l4 8
l4 8v8l-4 8l-4 8l-8 8l-8 4l-8 4l-8 4h-32l-8 -4l-8 -4l-4 -4l4 -8v-8l-4 -8l-4 -8l-8 -4l-8 -4h-8l-8 4l-8 4l-4 8l-4 8v8l4 8l4 8l8 8l8 8l8 4l8 4l8 4l8 4h64l8 -4l8 -4l8 -4l8 -4l8 -8l8 -8l4 -8l4 -8v-144l4 -8l4 -8l8 -8h8l8 8l8 8h12l4 -8v-8l-4 -8l-4 -8l-8 -4
l-8 -4h-32l-8 4l-8 4l-4 8l-4 8l-8 -8l-8 -8l-8 -4l-8 -4l-8 -4h-56zM8 248v4l4 4l4 4l4 4l4 4l4 4l4 4l4 4l4 4l4 4l4 4l4 4l4 4l4 4l4 4l4 4l4 4l4 4l4 4l4 4l4 4l4 4l4 4l4 4h8l4 -4v-1l4 -3l4 -4v-1l4 -3l4 -4v-1l4 -3l4 -4v-1l4 -3l4 -4v-1l4 -3l4 -4v-1l4 -3l4 -4v-1
l4 -3l4 -4v-1l4 -3l4 -4v-1l4 -3l4 -4v-1l4 -3l4 -4v-1l4 -3l4 -4v-4h-32l-8 8l-8 8l-8 8l-8 8l-8 8l-8 8l-8 8l-8 8l-8 -8l-8 -8l-8 -8l-8 -8l-8 -8l-8 -8l-8 -8l-8 -8h-32z" />
    <glyph glyph-name="atilde" unicode="&#xe3;" horiz-adv-x="272" 
d="M104 24l8 4l8 4l8 8l8 8l4 8l4 8l4 8l4 8v28l-8 4l-8 4l-8 4h-40l-8 -4l-8 -4l-8 -4l-8 -4l-8 -8l-8 -8l-4 -8l-4 -8v-8l4 -8l4 -8l8 -8l8 -8l8 -4l8 -4h32zM64 -4l-8 4l-8 4l-8 4l-8 4l-8 4l-8 8l-8 8l-4 8l-4 8v40l4 8l4 8l8 8l8 8l8 8l8 4l8 4l8 4l8 4l8 4h64l8 4l4 8
l4 8v8l-4 8l-4 8l-8 8l-8 4l-8 4l-8 4h-32l-8 -4l-8 -4l-4 -4l4 -8v-8l-4 -8l-4 -8l-8 -4l-8 -4h-8l-8 4l-8 4l-4 8l-4 8v8l4 8l4 8l8 8l8 8l8 4l8 4l8 4l8 4h64l8 -4l8 -4l8 -4l8 -4l8 -8l8 -8l4 -8l4 -8v-144l4 -8l4 -8l8 -8h8l8 8l8 8h12l4 -8v-8l-4 -8l-4 -8l-8 -4
l-8 -4h-32l-8 4l-8 4l-4 8l-4 8l-8 -8l-8 -8l-8 -4l-8 -4l-8 -4h-56zM144 248l-8 4l-8 4l-8 4v0l-4 4l-4 4v0l-4 4l-4 4v0l-4 4l-4 4l-8 4l-8 4h-16l-8 -4l-8 -4l-4 -4l-4 -8l-4 -8l-4 -8h-24l-4 8v8l4 8l4 8l4 8l8 8l8 8l8 4l8 4h48l8 -4l8 -4l8 -8l8 -8l8 -8l8 -8l8 -4h16
l8 4l8 4l4 4l4 8l4 8l4 8h24l4 -8v-8l-4 -8l-4 -8l-4 -8l-8 -8l-8 -8l-8 -4l-8 -4h-40z" />
    <glyph glyph-name="adieresis" unicode="&#xe4;" horiz-adv-x="272" 
d="M104 24l8 4l8 4l8 8l8 8l4 8l4 8l4 8l4 8v28l-8 4l-8 4l-8 4h-40l-8 -4l-8 -4l-8 -4l-8 -4l-8 -8l-8 -8l-4 -8l-4 -8v-8l4 -8l4 -8l8 -8l8 -8l8 -4l8 -4h32zM64 -4l-8 4l-8 4l-8 4l-8 4l-8 4l-8 8l-8 8l-4 8l-4 8v40l4 8l4 8l8 8l8 8l8 8l8 4l8 4l8 4l8 4l8 4h64l8 4l4 8
l4 8v8l-4 8l-4 8l-8 8l-8 4l-8 4l-8 4h-32l-8 -4l-8 -4l-4 -4l4 -8v-8l-4 -8l-4 -8l-8 -4l-8 -4h-8l-8 4l-8 4l-4 8l-4 8v8l4 8l4 8l8 8l8 8l8 4l8 4l8 4l8 4h64l8 -4l8 -4l8 -4l8 -4l8 -8l8 -8l4 -8l4 -8v-144l4 -8l4 -8l8 -8h8l8 8l8 8h12l4 -8v-8l-4 -8l-4 -8l-8 -4
l-8 -4h-32l-8 4l-8 4l-4 8l-4 8l-8 -8l-8 -8l-8 -4l-8 -4l-8 -4h-56zM40 248l-8 4l-8 4l-4 8l-4 8v8l4 8l4 8l8 4l8 4h8l8 -4l8 -4l4 -8l4 -8v-8l-4 -8l-4 -8l-8 -4l-8 -4h-8zM152 248l-8 4l-8 4l-4 8l-4 8v8l4 8l4 8l8 4l8 4h8l8 -4l8 -4l4 -8l4 -8v-8l-4 -8l-4 -8l-8 -4
l-8 -4h-8z" />
    <glyph glyph-name="aring" unicode="&#xe5;" horiz-adv-x="272" 
d="M104 24l8 4l8 4l8 8l8 8l4 8l4 8l4 8l4 8v28l-8 4l-8 4l-8 4h-40l-8 -4l-8 -4l-8 -4l-8 -4l-8 -8l-8 -8l-4 -8l-4 -8v-8l4 -8l4 -8l8 -8l8 -8l8 -4l8 -4h32zM64 -4l-8 4l-8 4l-8 4l-8 4l-8 4l-8 8l-8 8l-4 8l-4 8v40l4 8l4 8l8 8l8 8l8 8l8 4l8 4l8 4l8 4l8 4h64l8 4l4 8
l4 8v8l-4 8l-4 8l-8 8l-8 4l-8 4l-8 4h-32l-8 -4l-8 -4l-4 -4l4 -8v-8l-4 -8l-4 -8l-8 -4l-8 -4h-8l-8 4l-8 4l-4 8l-4 8v8l4 8l4 8l8 8l8 8l8 4l8 4l8 4l8 4h64l8 -4l8 -4l8 -4l8 -4l8 -8l8 -8l4 -8l4 -8v-144l4 -8l4 -8l8 -8h8l8 8l8 8h12l4 -8v-8l-4 -8l-4 -8l-8 -4
l-8 -4h-32l-8 4l-8 4l-4 8l-4 8l-8 -8l-8 -8l-8 -4l-8 -4l-8 -4h-56zM96 272l8 4l4 4l4 8v24l-4 8l-4 4l-8 4l-8 -4l-4 -4l-4 -8v-24l4 -8l4 -4l8 -4v0zM80 248l-8 4l-8 4l-8 8l-4 8l-4 8v40l4 8l4 8l8 8l8 4l8 4h32l8 -4l8 -4l8 -8l4 -8l4 -8v-40l-4 -8l-4 -8l-8 -8l-8 -4
l-8 -4h-32z" />
    <glyph glyph-name="ae" unicode="&#xe6;" horiz-adv-x="420" 
d="M104 24l8 4l8 4l8 8l8 8l4 8l4 8l4 8l4 8v28l-8 4l-8 4l-8 4h-40l-8 -4l-8 -4l-8 -4l-8 -4l-8 -8l-8 -8l-4 -8l-4 -8v-8l4 -8l4 -8l8 -8l8 -8l8 -4l8 -4h32zM364 136l-4 8l-4 8l-4 8l-8 8l-8 8l-8 8l-8 8l-8 4l-8 4l-8 4l-8 4h-24l-8 -4l-8 -4l-8 -4l-8 -4l-8 -8l-8 -8
l-8 -8l-8 -8l-4 -8l-4 -8l-4 -8h176zM64 -4l-8 4l-8 4l-8 4l-8 4l-8 4l-8 8l-8 8l-4 8l-4 8v40l4 8l4 8l8 8l8 8l8 8l8 4l8 4l8 4l8 4l8 4h64l8 4l4 8l4 8v8l-4 8l-4 8l-8 8l-8 4l-8 4l-8 4h-32l-8 -4l-8 -4l-4 -4l4 -8v-8l-4 -8l-4 -8l-8 -4l-8 -4h-8l-8 4l-8 4l-4 8l-4 8
v8l4 8l4 8l8 8l8 8l8 4l8 4l8 4l8 4h64l8 -4l8 -4l8 -4l8 -4l8 -8l8 -8l4 -8l4 -8l8 8l8 8l8 8l8 4l8 4l8 4l8 4l8 4h56l8 -4l8 -4l8 -4l8 -4l8 -4l8 -8l8 -8l8 -8l8 -8l4 -8l4 -8l4 -8l4 -8l4 -8v-32h-1l-3 -4h-204v-12l4 -8l4 -8l4 -8l8 -8l8 -8l8 -8l8 -8l8 -4l8 -4l8 -4
l8 -4h40l8 4l8 4l8 4l8 4l8 4h8l8 -4l8 -8v-8l-8 -8l-8 -4l-8 -4l-8 -4l-8 -4l-8 -4h-72l-8 4l-8 4l-8 4l-8 4l-8 4l-8 8l-8 8l-8 8l-8 8l-4 -8l-4 -8l-8 -8l-8 -8l-8 -8l-8 -4l-8 -4l-8 -4h-56z" />
    <glyph glyph-name="ccedilla" unicode="&#xe7;" horiz-adv-x="236" 
d="M100 -120l-8 4l-8 4l-8 8l-4 8v8l4 8h8l8 -4v0l4 -4l4 -4l8 -4h8l8 4l4 4l4 8v24l-4 8l-4 4l-8 4h-8l-4 8v28h-20l-8 4l-8 4l-8 4l-8 4l-8 4l-8 8l-8 8l-8 8l-8 8l-4 8l-4 8l-4 8l-4 8l-4 8v56l4 8l4 8l4 8l4 8l4 8l8 8l8 8l8 8l8 8l8 4l8 4l8 4l8 4l8 4h56l8 -4l8 -4
l8 -4l8 -4l8 -4l8 -8l8 -8l4 -8l4 -8v-8l-4 -8l-4 -8l-8 -4l-8 -4h-8l-8 4l-8 4l-4 8l-4 8v8l4 8l-4 4l-8 4l-8 4l-8 4h-24l-8 -4l-8 -4l-8 -4l-8 -4l-8 -8l-8 -8l-8 -8l-8 -8l-4 -8l-4 -8l-4 -8v-40l4 -8l4 -8l4 -8l8 -8l8 -8l8 -8l8 -8l8 -4l8 -4l8 -4l8 -4h40l8 4l8 4
l8 4l8 4l8 4h8l8 -4l8 -8v-8l-8 -8l-8 -4l-8 -4l-8 -4l-8 -4l-8 -4h-20v-12l4 -4l8 -4l8 -8l4 -8l4 -8v-40l-4 -8l-4 -8l-8 -8l-8 -4l-8 -4h-32z" />
    <glyph glyph-name="egrave" unicode="&#xe8;" horiz-adv-x="256" 
d="M200 136l-4 8l-4 8l-4 8l-8 8l-8 8l-8 8l-8 8l-8 4l-8 4l-8 4l-8 4h-24l-8 -4l-8 -4l-8 -4l-8 -4l-8 -8l-8 -8l-8 -8l-8 -8l-4 -8l-4 -8l-4 -8h176zM84 -4l-8 4l-8 4l-8 4l-8 4l-8 4l-8 8l-8 8l-8 8l-8 8l-4 8l-4 8l-4 8l-4 8l-4 8v56l4 8l4 8l4 8l4 8l4 8l8 8l8 8l8 8
l8 8l8 4l8 4l8 4l8 4l8 4h56l8 -4l8 -4l8 -4l8 -4l8 -4l8 -8l8 -8l8 -8l8 -8l4 -8l4 -8l4 -8l4 -8l4 -8v-32h-1l-3 -4h-204v-12l4 -8l4 -8l4 -8l8 -8l8 -8l8 -8l8 -8l8 -4l8 -4l8 -4l8 -4h40l8 4l8 4l8 4l8 4l8 4h8l8 -4l8 -8v-8l-8 -8l-8 -4l-8 -4l-8 -4l-8 -4l-8 -4h-72z
M148 248l-8 8l-8 8l-8 8l-8 8l-8 8l-8 8l-8 8l-8 8l-8 8l-8 8l-4 8l4 8l8 4h8v-1l4 -3l4 -4v-1l4 -3l4 -4v-1l4 -3l4 -4v-1l4 -3l4 -4v-1l4 -3l4 -4v-1l4 -3l4 -4v-1l4 -3l4 -4v-1l4 -3l4 -4v-1l4 -3l4 -4v-1l4 -3l4 -4v-1l4 -3l-4 -8l-8 -8h-8z" />
    <glyph glyph-name="eacute" unicode="&#xe9;" horiz-adv-x="264" 
d="M208 136l-4 8l-4 8l-4 8l-8 8l-8 8l-8 8l-8 8l-8 4l-8 4l-8 4l-8 4h-24l-8 -4l-8 -4l-8 -4l-8 -4l-8 -8l-8 -8l-8 -8l-8 -8l-4 -8l-4 -8l-4 -8h176zM92 -4l-8 4l-8 4l-8 4l-8 4l-8 4l-8 8l-8 8l-8 8l-8 8l-4 8l-4 8l-4 8l-4 8l-4 8v56l4 8l4 8l4 8l4 8l4 8l8 8l8 8l8 8
l8 8l8 4l8 4l8 4l8 4l8 4h56l8 -4l8 -4l8 -4l8 -4l8 -4l8 -8l8 -8l8 -8l8 -8l4 -8l4 -8l4 -8l4 -8l4 -8v-32h-1l-3 -4h-204v-12l4 -8l4 -8l4 -8l8 -8l8 -8l8 -8l8 -8l8 -4l8 -4l8 -4l8 -4h40l8 4l8 4l8 4l8 4l8 4h8l8 -4l8 -8v-8l-8 -8l-8 -4l-8 -4l-8 -4l-8 -4l-8 -4h-72z
M68 248l-8 8l-4 8l4 4l4 4l4 4l4 4l4 4l4 4l4 4l4 4l4 4l4 4l4 4l4 4l4 4l4 4l4 4l4 4l4 4l4 4l4 4l4 4l4 4h8l8 -4l4 -8l-4 -8l-8 -8l-8 -8l-8 -8l-8 -8l-8 -8l-8 -8l-8 -8l-8 -8l-8 -8l-8 -8h-8z" />
    <glyph glyph-name="ecircumflex" unicode="&#xea;" horiz-adv-x="264" 
d="M208 136l-4 8l-4 8l-4 8l-8 8l-8 8l-8 8l-8 8l-8 4l-8 4l-8 4l-8 4h-24l-8 -4l-8 -4l-8 -4l-8 -4l-8 -8l-8 -8l-8 -8l-8 -8l-4 -8l-4 -8l-4 -8h176zM92 -4l-8 4l-8 4l-8 4l-8 4l-8 4l-8 8l-8 8l-8 8l-8 8l-4 8l-4 8l-4 8l-4 8l-4 8v56l4 8l4 8l4 8l4 8l4 8l8 8l8 8l8 8
l8 8l8 4l8 4l8 4l8 4l8 4h56l8 -4l8 -4l8 -4l8 -4l8 -4l8 -8l8 -8l8 -8l8 -8l4 -8l4 -8l4 -8l4 -8l4 -8v-32h-1l-3 -4h-204v-12l4 -8l4 -8l4 -8l8 -8l8 -8l8 -8l8 -8l8 -4l8 -4l8 -4l8 -4h40l8 4l8 4l8 4l8 4l8 4h8l8 -4l8 -8v-8l-8 -8l-8 -4l-8 -4l-8 -4l-8 -4l-8 -4h-72z
M20 248v4l4 4l4 4l4 4l4 4l4 4l4 4l4 4l4 4l4 4l4 4l4 4l4 4l4 4l4 4l4 4l4 4l4 4l4 4l4 4l4 4l4 4l4 4l4 4h8l4 -4v-1l4 -3l4 -4v-1l4 -3l4 -4v-1l4 -3l4 -4v-1l4 -3l4 -4v-1l4 -3l4 -4v-1l4 -3l4 -4v-1l4 -3l4 -4v-1l4 -3l4 -4v-1l4 -3l4 -4v-1l4 -3l4 -4v-1l4 -3l4 -4v-4
h-32l-8 8l-8 8l-8 8l-8 8l-8 8l-8 8l-8 8l-8 8l-8 -8l-8 -8l-8 -8l-8 -8l-8 -8l-8 -8l-8 -8l-8 -8h-32z" />
    <glyph glyph-name="edieresis" unicode="&#xeb;" horiz-adv-x="264" 
d="M208 136l-4 8l-4 8l-4 8l-8 8l-8 8l-8 8l-8 8l-8 4l-8 4l-8 4l-8 4h-24l-8 -4l-8 -4l-8 -4l-8 -4l-8 -8l-8 -8l-8 -8l-8 -8l-4 -8l-4 -8l-4 -8h176zM92 -4l-8 4l-8 4l-8 4l-8 4l-8 4l-8 8l-8 8l-8 8l-8 8l-4 8l-4 8l-4 8l-4 8l-4 8v56l4 8l4 8l4 8l4 8l4 8l8 8l8 8l8 8
l8 8l8 4l8 4l8 4l8 4l8 4h56l8 -4l8 -4l8 -4l8 -4l8 -4l8 -8l8 -8l8 -8l8 -8l4 -8l4 -8l4 -8l4 -8l4 -8v-32h-1l-3 -4h-204v-12l4 -8l4 -8l4 -8l8 -8l8 -8l8 -8l8 -8l8 -4l8 -4l8 -4l8 -4h40l8 4l8 4l8 4l8 4l8 4h8l8 -4l8 -8v-8l-8 -8l-8 -4l-8 -4l-8 -4l-8 -4l-8 -4h-72z
M60 248l-8 4l-8 4l-4 8l-4 8v8l4 8l4 8l8 4l8 4h8l8 -4l8 -4l4 -8l4 -8v-8l-4 -8l-4 -8l-8 -4l-8 -4h-8zM172 248l-8 4l-8 4l-4 8l-4 8v8l4 8l4 8l8 4l8 4h8l8 -4l8 -4l4 -8l4 -8v-8l-4 -8l-4 -8l-8 -4l-8 -4h-8z" />
    <glyph glyph-name="igrave" unicode="&#xec;" horiz-adv-x="176" 
d="M8 0l-8 4v20l8 4h48v176h-48l-8 4v20l8 4h72c2 0 3.66699 -1 5 -3c2 -1.33301 3 -3 3 -5v-196h48l8 -4v-20l-8 -4h-128zM96 248l-8 8l-8 8l-8 8l-8 8l-8 8l-8 8l-8 8l-8 8l-8 8l-8 8l-4 8l4 8l8 4h8v-1l4 -3l4 -4v-1l4 -3l4 -4v-1l4 -3l4 -4v-1l4 -3l4 -4v-1l4 -3l4 -4
v-1l4 -3l4 -4v-1l4 -3l4 -4v-1l4 -3l4 -4v-1l4 -3l4 -4v-1l4 -3l4 -4v-1l4 -3l-4 -8l-8 -8h-8z" />
    <glyph glyph-name="iacute" unicode="&#xed;" horiz-adv-x="176" 
d="M8 0l-8 4v20l8 4h48v176h-48l-8 4v20l8 4h72c2 0 3.66699 -1 5 -3c2 -1.33301 3 -3 3 -5v-196h48l8 -4v-20l-8 -4h-128zM24 248l-8 8l-4 8l4 4l4 4l4 4l4 4l4 4l4 4l4 4l4 4l4 4l4 4l4 4l4 4l4 4l4 4l4 4l4 4l4 4l4 4l4 4l4 4l4 4h8l8 -4l4 -8l-4 -8l-8 -8l-8 -8l-8 -8
l-8 -8l-8 -8l-8 -8l-8 -8l-8 -8l-8 -8l-8 -8h-8z" />
    <glyph glyph-name="icircumflex" unicode="&#xee;" horiz-adv-x="224" 
d="M32 0l-8 4v20l8 4h48v176h-48l-8 4v20l8 4h72c2 0 3.66699 -1 5 -3c2 -1.33301 3 -3 3 -5v-196h48l8 -4v-20l-8 -4h-128zM0 248v4l4 4l4 4l4 4l4 4l4 4l4 4l4 4l4 4l4 4l4 4l4 4l4 4l4 4l4 4l4 4l4 4l4 4l4 4l4 4l4 4l4 4l4 4l4 4h8l4 -4v-1l4 -3l4 -4v-1l4 -3l4 -4v-1
l4 -3l4 -4v-1l4 -3l4 -4v-1l4 -3l4 -4v-1l4 -3l4 -4v-1l4 -3l4 -4v-1l4 -3l4 -4v-1l4 -3l4 -4v-1l4 -3l4 -4v-1l4 -3l4 -4v-4h-32l-8 8l-8 8l-8 8l-8 8l-8 8l-8 8l-8 8l-8 8l-8 -8l-8 -8l-8 -8l-8 -8l-8 -8l-8 -8l-8 -8l-8 -8h-32z" />
    <glyph glyph-name="idieresis" unicode="&#xef;" horiz-adv-x="176" 
d="M8 0l-8 4v20l8 4h48v176h-48l-8 4v20l8 4h72c2 0 3.66699 -1 5 -3c2 -1.33301 3 -3 3 -5v-196h48l8 -4v-20l-8 -4h-128zM24 248l-8 4l-8 4l-4 8l-4 8v8l4 8l4 8l8 4l8 4h8l8 -4l8 -4l4 -8l4 -8v-8l-4 -8l-4 -8l-8 -4l-8 -4h-8zM112 248l-8 4l-8 4l-4 8l-4 8v8l4 8l4 8
l8 4l8 4h8l8 -4l8 -4l4 -8l4 -8v-8l-4 -8l-4 -8l-8 -4l-8 -4h-8z" />
    <glyph glyph-name="eth" unicode="&#xf0;" horiz-adv-x="256" 
d="M124 24l8 4l8 4l8 4l8 4l8 8l8 8l8 8l8 8l4 8l4 8l4 8v40l-4 8l-4 8l-4 8l-8 8l-8 8l-8 8l-8 8l-8 4l-8 4l-8 4l-8 4h-24l-8 -4l-8 -4l-8 -4l-8 -4l-8 -8l-8 -8l-8 -8l-8 -8l-4 -8l-4 -8l-4 -8v-40l4 -8l4 -8l4 -8l8 -8l8 -8l8 -8l8 -8l8 -4l8 -4l8 -4l8 -4h24zM84 -4
l-8 4l-8 4l-8 4l-8 4l-8 4l-8 8l-8 8l-8 8l-8 8l-4 8l-4 8l-4 8l-4 8l-4 8v56l4 8l4 8l4 8l4 8l4 8l8 8l8 8l8 8l8 8l8 4l8 4l8 4l8 4l8 4h56l8 -4l8 -4v4l-4 8l-4 8l-4 8l-4 8l-8 8l-8 -8l-8 -8l-8 -8l-8 -4l-8 4l-8 8l-4 8l4 8l8 8l8 8l8 8l-8 8l-8 8l-4 8l4 8l8 8h8l8 -8
l8 -8v-1l4 -3l3 4h1l8 8l8 8l8 4l8 -4l8 -8l4 -8l-4 -8l-8 -8l-8 -8h-1l-3 -4l4 -4v0l8 -8l4 -8l4 -8l4 -8l4 -8l4 -8l4 -8l4 -8l4 -8l4 -8l4 -8l4 -8l4 -8l4 -8l4 -8l4 -8l4 -8l4 -8v-56l-4 -8l-4 -8l-4 -8l-4 -8l-4 -8l-8 -8l-8 -8l-8 -8l-8 -8l-8 -4l-8 -4l-8 -4l-8 -4
l-8 -4h-56z" />
    <glyph glyph-name="ntilde" unicode="&#xf1;" 
d="M8 0l-8 4v20l8 4h24v176h-24l-8 4v20l8 4h40c2 0 3.66699 -1 5 -3c2 -1.33301 3 -3 3 -5v-36l4 4l4 4l4 4l4 4l4 4l4 4l8 4l8 4l8 4l8 4l8 4l8 4h40l8 -4l8 -4l8 -4l8 -8l8 -8l4 -8l4 -8l4 -8l4 -8v-148h24l8 -4v-20l-8 -4h-80l-8 4v20l8 4h24v148l-4 8l-4 8l-8 8l-8 4
l-8 4h-24l-8 -4l-8 -4l-8 -4l-4 -4h-1l-3 -4l-4 -4h-1l-3 -4l-4 -4h-1l-3 -4l-4 -4h-1l-3 -4l-4 -4l-4 -8l-4 -8l-4 -8v-108h24l8 -4v-20l-8 -4h-80zM152 248l-8 4l-8 4l-8 4v0l-4 4l-4 4v0l-4 4l-4 4v0l-4 4l-4 4l-8 4l-8 4h-16l-8 -4l-8 -4l-4 -4l-4 -8l-4 -8l-4 -8h-24
l-4 8v8l4 8l4 8l4 8l8 8l8 8l8 4l8 4h48l8 -4l8 -4l8 -8l8 -8l8 -8l8 -8l8 -4h16l8 4l8 4l4 4l4 8l4 8l4 8h24l4 -8v-8l-4 -8l-4 -8l-4 -8l-8 -8l-8 -8l-8 -4l-8 -4h-40z" />
    <glyph glyph-name="ograve" unicode="&#xf2;" horiz-adv-x="256" 
d="M124 24l8 4l8 4l8 4l8 4l8 8l8 8l8 8l8 8l4 8l4 8l4 8v40l-4 8l-4 8l-4 8l-8 8l-8 8l-8 8l-8 8l-8 4l-8 4l-8 4l-8 4h-24l-8 -4l-8 -4l-8 -4l-8 -4l-8 -8l-8 -8l-8 -8l-8 -8l-4 -8l-4 -8l-4 -8v-40l4 -8l4 -8l4 -8l8 -8l8 -8l8 -8l8 -8l8 -4l8 -4l8 -4l8 -4h24zM84 -4
l-8 4l-8 4l-8 4l-8 4l-8 4l-8 8l-8 8l-8 8l-8 8l-4 8l-4 8l-4 8l-4 8l-4 8v56l4 8l4 8l4 8l4 8l4 8l8 8l8 8l8 8l8 8l8 4l8 4l8 4l8 4l8 4h56l8 -4l8 -4l8 -4l8 -4l8 -4l8 -8l8 -8l8 -8l8 -8l4 -8l4 -8l4 -8l4 -8l4 -8v-56l-4 -8l-4 -8l-4 -8l-4 -8l-4 -8l-8 -8l-8 -8l-8 -8
l-8 -8l-8 -4l-8 -4l-8 -4l-8 -4l-8 -4h-56zM148 248l-8 8l-8 8l-8 8l-8 8l-8 8l-8 8l-8 8l-8 8l-8 8l-8 8l-4 8l4 8l8 4h8v-1l4 -3l4 -4v-1l4 -3l4 -4v-1l4 -3l4 -4v-1l4 -3l4 -4v-1l4 -3l4 -4v-1l4 -3l4 -4v-1l4 -3l4 -4v-1l4 -3l4 -4v-1l4 -3l4 -4v-1l4 -3l4 -4v-1l4 -3
l-4 -8l-8 -8h-8z" />
    <glyph glyph-name="oacute" unicode="&#xf3;" horiz-adv-x="256" 
d="M124 24l8 4l8 4l8 4l8 4l8 8l8 8l8 8l8 8l4 8l4 8l4 8v40l-4 8l-4 8l-4 8l-8 8l-8 8l-8 8l-8 8l-8 4l-8 4l-8 4l-8 4h-24l-8 -4l-8 -4l-8 -4l-8 -4l-8 -8l-8 -8l-8 -8l-8 -8l-4 -8l-4 -8l-4 -8v-40l4 -8l4 -8l4 -8l8 -8l8 -8l8 -8l8 -8l8 -4l8 -4l8 -4l8 -4h24zM84 -4
l-8 4l-8 4l-8 4l-8 4l-8 4l-8 8l-8 8l-8 8l-8 8l-4 8l-4 8l-4 8l-4 8l-4 8v56l4 8l4 8l4 8l4 8l4 8l8 8l8 8l8 8l8 8l8 4l8 4l8 4l8 4l8 4h56l8 -4l8 -4l8 -4l8 -4l8 -4l8 -8l8 -8l8 -8l8 -8l4 -8l4 -8l4 -8l4 -8l4 -8v-56l-4 -8l-4 -8l-4 -8l-4 -8l-4 -8l-8 -8l-8 -8l-8 -8
l-8 -8l-8 -4l-8 -4l-8 -4l-8 -4l-8 -4h-56zM68 248l-8 8l-4 8l4 4l4 4l4 4l4 4l4 4l4 4l4 4l4 4l4 4l4 4l4 4l4 4l4 4l4 4l4 4l4 4l4 4l4 4l4 4l4 4l4 4h8l8 -4l4 -8l-4 -8l-8 -8l-8 -8l-8 -8l-8 -8l-8 -8l-8 -8l-8 -8l-8 -8l-8 -8l-8 -8h-8z" />
    <glyph glyph-name="ocircumflex" unicode="&#xf4;" horiz-adv-x="256" 
d="M124 24l8 4l8 4l8 4l8 4l8 8l8 8l8 8l8 8l4 8l4 8l4 8v40l-4 8l-4 8l-4 8l-8 8l-8 8l-8 8l-8 8l-8 4l-8 4l-8 4l-8 4h-24l-8 -4l-8 -4l-8 -4l-8 -4l-8 -8l-8 -8l-8 -8l-8 -8l-4 -8l-4 -8l-4 -8v-40l4 -8l4 -8l4 -8l8 -8l8 -8l8 -8l8 -8l8 -4l8 -4l8 -4l8 -4h24zM84 -4
l-8 4l-8 4l-8 4l-8 4l-8 4l-8 8l-8 8l-8 8l-8 8l-4 8l-4 8l-4 8l-4 8l-4 8v56l4 8l4 8l4 8l4 8l4 8l8 8l8 8l8 8l8 8l8 4l8 4l8 4l8 4l8 4h56l8 -4l8 -4l8 -4l8 -4l8 -4l8 -8l8 -8l8 -8l8 -8l4 -8l4 -8l4 -8l4 -8l4 -8v-56l-4 -8l-4 -8l-4 -8l-4 -8l-4 -8l-8 -8l-8 -8l-8 -8
l-8 -8l-8 -4l-8 -4l-8 -4l-8 -4l-8 -4h-56zM20 248v4l4 4l4 4l4 4l4 4l4 4l4 4l4 4l4 4l4 4l4 4l4 4l4 4l4 4l4 4l4 4l4 4l4 4l4 4l4 4l4 4l4 4l4 4l4 4h8l4 -4v-1l4 -3l4 -4v-1l4 -3l4 -4v-1l4 -3l4 -4v-1l4 -3l4 -4v-1l4 -3l4 -4v-1l4 -3l4 -4v-1l4 -3l4 -4v-1l4 -3l4 -4
v-1l4 -3l4 -4v-1l4 -3l4 -4v-1l4 -3l4 -4v-4h-32l-8 8l-8 8l-8 8l-8 8l-8 8l-8 8l-8 8l-8 8l-8 -8l-8 -8l-8 -8l-8 -8l-8 -8l-8 -8l-8 -8l-8 -8h-32z" />
    <glyph glyph-name="otilde" unicode="&#xf5;" horiz-adv-x="256" 
d="M124 24l8 4l8 4l8 4l8 4l8 8l8 8l8 8l8 8l4 8l4 8l4 8v40l-4 8l-4 8l-4 8l-8 8l-8 8l-8 8l-8 8l-8 4l-8 4l-8 4l-8 4h-24l-8 -4l-8 -4l-8 -4l-8 -4l-8 -8l-8 -8l-8 -8l-8 -8l-4 -8l-4 -8l-4 -8v-40l4 -8l4 -8l4 -8l8 -8l8 -8l8 -8l8 -8l8 -4l8 -4l8 -4l8 -4h24zM84 -4
l-8 4l-8 4l-8 4l-8 4l-8 4l-8 8l-8 8l-8 8l-8 8l-4 8l-4 8l-4 8l-4 8l-4 8v56l4 8l4 8l4 8l4 8l4 8l8 8l8 8l8 8l8 8l8 4l8 4l8 4l8 4l8 4h56l8 -4l8 -4l8 -4l8 -4l8 -4l8 -8l8 -8l8 -8l8 -8l4 -8l4 -8l4 -8l4 -8l4 -8v-56l-4 -8l-4 -8l-4 -8l-4 -8l-4 -8l-8 -8l-8 -8l-8 -8
l-8 -8l-8 -4l-8 -4l-8 -4l-8 -4l-8 -4h-56zM148 248l-8 4l-8 4l-8 4v0l-4 4l-4 4v0l-4 4l-4 4v0l-4 4l-4 4l-8 4l-8 4h-16l-8 -4l-8 -4l-4 -4l-4 -8l-4 -8l-4 -8h-24l-4 8v8l4 8l4 8l4 8l8 8l8 8l8 4l8 4h48l8 -4l8 -4l8 -8l8 -8l8 -8l8 -8l8 -4h16l8 4l8 4l4 4l4 8l4 8l4 8
h24l4 -8v-8l-4 -8l-4 -8l-4 -8l-8 -8l-8 -8l-8 -4l-8 -4h-40z" />
    <glyph glyph-name="odieresis" unicode="&#xf6;" horiz-adv-x="256" 
d="M124 24l8 4l8 4l8 4l8 4l8 8l8 8l8 8l8 8l4 8l4 8l4 8v40l-4 8l-4 8l-4 8l-8 8l-8 8l-8 8l-8 8l-8 4l-8 4l-8 4l-8 4h-24l-8 -4l-8 -4l-8 -4l-8 -4l-8 -8l-8 -8l-8 -8l-8 -8l-4 -8l-4 -8l-4 -8v-40l4 -8l4 -8l4 -8l8 -8l8 -8l8 -8l8 -8l8 -4l8 -4l8 -4l8 -4h24zM84 -4
l-8 4l-8 4l-8 4l-8 4l-8 4l-8 8l-8 8l-8 8l-8 8l-4 8l-4 8l-4 8l-4 8l-4 8v56l4 8l4 8l4 8l4 8l4 8l8 8l8 8l8 8l8 8l8 4l8 4l8 4l8 4l8 4h56l8 -4l8 -4l8 -4l8 -4l8 -4l8 -8l8 -8l8 -8l8 -8l4 -8l4 -8l4 -8l4 -8l4 -8v-56l-4 -8l-4 -8l-4 -8l-4 -8l-4 -8l-8 -8l-8 -8l-8 -8
l-8 -8l-8 -4l-8 -4l-8 -4l-8 -4l-8 -4h-56zM52 248l-8 4l-8 4l-4 8l-4 8v8l4 8l4 8l8 4l8 4h8l8 -4l8 -4l4 -8l4 -8v-8l-4 -8l-4 -8l-8 -4l-8 -4h-8zM164 248l-8 4l-8 4l-4 8l-4 8v8l4 8l4 8l8 4l8 4h8l8 -4l8 -4l4 -8l4 -8v-8l-4 -8l-4 -8l-8 -4l-8 -4h-8z" />
    <glyph glyph-name="divide" unicode="&#xf7;" horiz-adv-x="200" 
d="M80 80l-8 4l-8 4l-4 8l-4 8v8l4 8l4 8l8 4l8 4h8l8 -4l8 -4l4 -8l4 -8v-8l-4 -8l-4 -8l-8 -4l-8 -4h-8zM8 156l-8 4v20l8 4h152l8 -4v-20l-8 -4h-152zM80 208l-8 4l-8 4l-4 8l-4 8v8l4 8l4 8l8 4l8 4h8l8 -4l8 -4l4 -8l4 -8v-8l-4 -8l-4 -8l-8 -4l-8 -4h-8z" />
    <glyph glyph-name="oslash" unicode="&#xf8;" horiz-adv-x="256" 
d="M124 24l8 4l8 4l8 4l8 4l8 8l8 8l8 8l8 8l4 8l4 8l4 8v40l-4 8l-4 8l-4 8l-8 8l-8 8l-8 8l-3 2l-1 -2l-4 -8l-4 -8l-4 -8l-4 -8l-4 -8l-4 -8l-4 -8l-4 -8l-4 -8l-4 -8l-4 -8l-4 -8l-4 -8l-4 -8l-4 -8l-4 -8l-4 -8l-4 -8l-4 -8l8 -4l8 -4h24zM60 48l4 8l4 8l4 8l4 8l4 8
l4 8l4 8l4 8l4 8l4 8l4 8l4 8l4 8l4 8l4 8l4 8l4 8l4 8l4 8v1l-4 3l-8 4h-24l-8 -4l-8 -4l-8 -4l-8 -4l-8 -8l-8 -8l-8 -8l-8 -8l-4 -8l-4 -8l-4 -8v-40l4 -8l4 -8l4 -8l8 -8l8 -8l8 -8v0zM84 -4l-8 4l-8 4l-4 -4h-20l-4 8l4 8l-8 8l-8 8l-8 8l-8 8l-4 8l-4 8l-4 8l-4 8
l-4 8v56l4 8l4 8l4 8l4 8l4 8l8 8l8 8l8 8l8 8l8 4l8 4l8 4l8 4l8 4h56l8 -4l3 -2l1 2l4 4l4 4h20l4 -8l-4 -8l-4 -7l4 -1l8 -8l8 -8l8 -8l8 -8l4 -8l4 -8l4 -8l4 -8l4 -8v-56l-4 -8l-4 -8l-4 -8l-4 -8l-4 -8l-8 -8l-8 -8l-8 -8l-8 -8l-8 -4l-8 -4l-8 -4l-8 -4l-8 -4h-56z
" />
    <glyph glyph-name="ugrave" unicode="&#xf9;" 
d="M88 -4l-8 4l-8 4l-8 4l-8 8l-8 8l-8 8l-4 8l-4 8v156h-24l-8 4v20l8 4h80l8 -4v-20l-8 -4h-24v-148l4 -8l4 -8l8 -8l8 -4l8 -4h24l8 4l8 4l8 4l4 4l4 4l4 4l4 4l4 4l4 4l4 4l4 4l4 4l4 8l4 8l4 8v108h-24l-8 4v20l8 4h80l8 -4v-20l-8 -4h-24v-176h24l8 -4v-20l-8 -4h-48
c-2.66699 0 -4.66699 0.666992 -6 2s-2 3.33301 -2 6v28l-4 -4h-1l-3 -4l-4 -4h-1l-3 -4l-8 -4l-8 -4l-8 -4l-8 -4l-8 -4l-8 -4h-40zM168 248l-8 8l-8 8l-8 8l-8 8l-8 8l-8 8l-8 8l-8 8l-8 8l-8 8l-4 8l4 8l8 4h8v-1l4 -3l4 -4v-1l4 -3l4 -4v-1l4 -3l4 -4v-1l4 -3l4 -4v-1
l4 -3l4 -4v-1l4 -3l4 -4v-1l4 -3l4 -4v-1l4 -3l4 -4v-1l4 -3l4 -4v-1l4 -3l4 -4v-1l4 -3l-4 -8l-8 -8h-8z" />
    <glyph glyph-name="uacute" unicode="&#xfa;" 
d="M88 -4l-8 4l-8 4l-8 4l-8 8l-8 8l-8 8l-4 8l-4 8v156h-24l-8 4v20l8 4h80l8 -4v-20l-8 -4h-24v-148l4 -8l4 -8l8 -8l8 -4l8 -4h24l8 4l8 4l8 4l4 4l4 4l4 4l4 4l4 4l4 4l4 4l4 4l4 4l4 8l4 8l4 8v108h-24l-8 4v20l8 4h80l8 -4v-20l-8 -4h-24v-176h24l8 -4v-20l-8 -4h-48
c-2.66699 0 -4.66699 0.666992 -6 2s-2 3.33301 -2 6v28l-4 -4h-1l-3 -4l-4 -4h-1l-3 -4l-8 -4l-8 -4l-8 -4l-8 -4l-8 -4l-8 -4h-40zM88 248l-8 8l-4 8l4 4l4 4l4 4l4 4l4 4l4 4l4 4l4 4l4 4l4 4l4 4l4 4l4 4l4 4l4 4l4 4l4 4l4 4l4 4l4 4l4 4h8l8 -4l4 -8l-4 -8l-8 -8
l-8 -8l-8 -8l-8 -8l-8 -8l-8 -8l-8 -8l-8 -8l-8 -8l-8 -8h-8z" />
    <glyph glyph-name="ucircumflex" unicode="&#xfb;" 
d="M88 -4l-8 4l-8 4l-8 4l-8 8l-8 8l-8 8l-4 8l-4 8v156h-24l-8 4v20l8 4h80l8 -4v-20l-8 -4h-24v-148l4 -8l4 -8l8 -8l8 -4l8 -4h24l8 4l8 4l8 4l4 4l4 4l4 4l4 4l4 4l4 4l4 4l4 4l4 4l4 8l4 8l4 8v108h-24l-8 4v20l8 4h80l8 -4v-20l-8 -4h-24v-176h24l8 -4v-20l-8 -4h-48
c-2.66699 0 -4.66699 0.666992 -6 2s-2 3.33301 -2 6v28l-4 -4h-1l-3 -4l-4 -4h-1l-3 -4l-8 -4l-8 -4l-8 -4l-8 -4l-8 -4l-8 -4h-40zM32 248v4l4 4l4 4l4 4l4 4l4 4l4 4l4 4l4 4l4 4l4 4l4 4l4 4l4 4l4 4l4 4l4 4l4 4l4 4l4 4l4 4l4 4l4 4l4 4h8l4 -4v-1l4 -3l4 -4v-1l4 -3
l4 -4v-1l4 -3l4 -4v-1l4 -3l4 -4v-1l4 -3l4 -4v-1l4 -3l4 -4v-1l4 -3l4 -4v-1l4 -3l4 -4v-1l4 -3l4 -4v-1l4 -3l4 -4v-1l4 -3l4 -4v-4h-32l-8 8l-8 8l-8 8l-8 8l-8 8l-8 8l-8 8l-8 8l-8 -8l-8 -8l-8 -8l-8 -8l-8 -8l-8 -8l-8 -8l-8 -8h-32z" />
    <glyph glyph-name="udieresis" unicode="&#xfc;" 
d="M88 -4l-8 4l-8 4l-8 4l-8 8l-8 8l-8 8l-4 8l-4 8v156h-24l-8 4v20l8 4h80l8 -4v-20l-8 -4h-24v-148l4 -8l4 -8l8 -8l8 -4l8 -4h24l8 4l8 4l8 4l4 4l4 4l4 4l4 4l4 4l4 4l4 4l4 4l4 4l4 8l4 8l4 8v108h-24l-8 4v20l8 4h80l8 -4v-20l-8 -4h-24v-176h24l8 -4v-20l-8 -4h-48
c-2.66699 0 -4.66699 0.666992 -6 2s-2 3.33301 -2 6v28l-4 -4h-1l-3 -4l-4 -4h-1l-3 -4l-8 -4l-8 -4l-8 -4l-8 -4l-8 -4l-8 -4h-40zM72 248l-8 4l-8 4l-4 8l-4 8v8l4 8l4 8l8 4l8 4h8l8 -4l8 -4l4 -8l4 -8v-8l-4 -8l-4 -8l-8 -4l-8 -4h-8zM184 248l-8 4l-8 4l-4 8l-4 8v8
l4 8l4 8l8 4l8 4h8l8 -4l8 -4l4 -8l4 -8v-8l-4 -8l-4 -8l-8 -4l-8 -4h-8z" />
    <glyph glyph-name="yacute" unicode="&#xfd;" horiz-adv-x="328" 
d="M40 -128l-8 4l-8 4l-8 4l-8 4l-8 8l-4 8l-4 8v8l4 8l4 8l8 4l8 4h8l8 -4l8 -4l4 -8l4 -8v-8l-4 -8l-2 -4h14l8 4l8 4l8 4l8 8l4 8l4 8l4 8l4 8l4 8l4 8l4 8l4 8l4 8l4 8l4 8l4 8l-4 8l-4 8l-4 8l-4 8l-4 8l-4 8l-4 8l-4 8l-4 8l-4 8l-4 8l-4 8l-4 8l-4 8l-4 8l-4 8l-4 8
l-4 8l-4 8l-4 8l-4 8l-4 8l-4 8l-2 4h-26l-8 4v20l8 4h80l8 -4v-20l-8 -4h-22l2 -4l4 -8l4 -8l4 -8l4 -8l4 -8l4 -8l4 -8l4 -8l4 -8l4 -8l4 -8l4 -8l4 -8l4 -8l4 -8l4 -8l4 -8l4 -8l4 -8l4 8l4 8l4 8l4 8l4 8l4 8l4 8l4 8l4 8l4 8l4 8l4 8l4 8l4 8l4 8l4 8l4 8l4 8l4 8l2 4
h-22l-8 4v20l8 4h80l8 -4v-20l-8 -4h-26l-2 -4l-4 -8l-4 -8l-4 -8l-4 -8l-4 -8l-4 -8l-4 -8l-4 -8l-4 -8l-4 -8l-4 -8l-4 -8l-4 -8l-4 -8l-4 -8l-4 -8l-4 -8l-4 -8l-4 -8l-4 -8l-4 -8l-4 -8l-4 -8l-4 -8l-4 -8l-4 -8l-4 -8l-4 -8l-4 -8l-4 -8l-4 -8l-4 -8l-4 -8l-4 -8l-4 -8
l-4 -8l-4 -8l-8 -8l-8 -8l-8 -4l-8 -4l-8 -4l-8 -4h-24zM112 248l-8 8l-4 8l4 4l4 4l4 4l4 4l4 4l4 4l4 4l4 4l4 4l4 4l4 4l4 4l4 4l4 4l4 4l4 4l4 4l4 4l4 4l4 4l4 4h8l8 -4l4 -8l-4 -8l-8 -8l-8 -8l-8 -8l-8 -8l-8 -8l-8 -8l-8 -8l-8 -8l-8 -8l-8 -8h-8z" />
    <glyph glyph-name="thorn" unicode="&#xfe;" horiz-adv-x="252" 
d="M136 24l8 4l8 4l8 8l8 8l8 8l8 8l4 8l4 8l4 8v56l-4 8l-4 8l-4 8l-8 8l-8 8l-8 8l-8 8l-8 4l-8 4h-24l-8 -4l-8 -4l-8 -8l-8 -8l-8 -8l-8 -8l-4 -8l-4 -8l-4 -8l-4 -8v-40l4 -8l4 -8l4 -8l4 -8l8 -8l8 -8l8 -8l8 -8l8 -4l8 -4h24zM-24 -104l-8 4v20l8 4h40v384h-40l-8 4
v20l8 4h64c2 0 3.66699 -1 5 -3c2 -1.33301 3 -3 3 -5v-128l8 8l8 8l8 8l8 4l8 4l8 4h56l8 -4l8 -4l8 -4l8 -8l8 -8l8 -8l8 -8l4 -8l4 -8l4 -8l4 -8l4 -8v-72l-4 -8l-4 -8l-4 -8l-4 -8l-4 -8l-8 -8l-8 -8l-8 -8l-8 -8l-8 -4l-8 -4l-8 -4h-56l-8 4l-8 4l-8 4l-8 8l-8 8l-8 8
v-108h40l8 -4v-20l-8 -4h-112z" />
    <glyph glyph-name="ydieresis" unicode="&#xff;" horiz-adv-x="328" 
d="M40 -128l-8 4l-8 4l-8 4l-8 4l-8 8l-4 8l-4 8v8l4 8l4 8l8 4l8 4h8l8 -4l8 -4l4 -8l4 -8v-8l-4 -8l-2 -4h14l8 4l8 4l8 4l8 8l4 8l4 8l4 8l4 8l4 8l4 8l4 8l4 8l4 8l4 8l4 8l4 8l-4 8l-4 8l-4 8l-4 8l-4 8l-4 8l-4 8l-4 8l-4 8l-4 8l-4 8l-4 8l-4 8l-4 8l-4 8l-4 8l-4 8
l-4 8l-4 8l-4 8l-4 8l-4 8l-4 8l-2 4h-26l-8 4v20l8 4h80l8 -4v-20l-8 -4h-22l2 -4l4 -8l4 -8l4 -8l4 -8l4 -8l4 -8l4 -8l4 -8l4 -8l4 -8l4 -8l4 -8l4 -8l4 -8l4 -8l4 -8l4 -8l4 -8l4 -8l4 8l4 8l4 8l4 8l4 8l4 8l4 8l4 8l4 8l4 8l4 8l4 8l4 8l4 8l4 8l4 8l4 8l4 8l4 8l2 4
h-22l-8 4v20l8 4h80l8 -4v-20l-8 -4h-26l-2 -4l-4 -8l-4 -8l-4 -8l-4 -8l-4 -8l-4 -8l-4 -8l-4 -8l-4 -8l-4 -8l-4 -8l-4 -8l-4 -8l-4 -8l-4 -8l-4 -8l-4 -8l-4 -8l-4 -8l-4 -8l-4 -8l-4 -8l-4 -8l-4 -8l-4 -8l-4 -8l-4 -8l-4 -8l-4 -8l-4 -8l-4 -8l-4 -8l-4 -8l-4 -8l-4 -8
l-4 -8l-4 -8l-8 -8l-8 -8l-8 -4l-8 -4l-8 -4l-8 -4h-24zM88 248l-8 4l-8 4l-4 8l-4 8v8l4 8l4 8l8 4l8 4h8l8 -4l8 -4l4 -8l4 -8v-8l-4 -8l-4 -8l-8 -4l-8 -4h-8zM200 248l-8 4l-8 4l-4 8l-4 8v8l4 8l4 8l8 4l8 4h8l8 -4l8 -4l4 -8l4 -8v-8l-4 -8l-4 -8l-8 -4l-8 -4h-8z" />
    <glyph glyph-name="Ydieresis" unicode="&#x178;" horiz-adv-x="328" 
d="M48 0l-8 4v24l8 4h80v96l-4 8l-4 8l-4 8l-4 8l-4 8l-4 8l-4 8l-4 8l-4 8l-4 8l-4 8l-4 8l-4 8l-4 8l-4 8l-4 8l-4 8l-4 8l-4 8l-4 8l-4 8l-4 8h-32l-8 4v24l8 4h104l8 -4v-24l-8 -4h-32l4 -8l4 -8l4 -8l4 -8l4 -8l4 -8l4 -8l4 -8l4 -8l4 -8l4 -8l4 -8l4 -8l4 -8l4 -8
l4 -8l4 -8l4 8l4 8l4 8l4 8l4 8l4 8l4 8l4 8l4 8l4 8l4 8l4 8l4 8l4 8l4 8l4 8l4 8h-32l-8 4v24l8 4h104l8 -4v-24l-8 -4h-32l-4 -8l-4 -8l-4 -8l-4 -8l-4 -8l-4 -8l-4 -8l-4 -8l-4 -8l-4 -8l-4 -8l-4 -8l-4 -8l-4 -8l-4 -8l-4 -8l-4 -8l-4 -8l-4 -8l-4 -8l-4 -8l-4 -8v-96
h80l8 -4v-24l-8 -4h-200zM80 344l-8 4l-8 4l-4 8l-4 8v8l4 8l4 8l8 4l8 4h8l8 -4l8 -4l4 -8l4 -8v-8l-4 -8l-4 -8l-8 -4l-8 -4h-8zM200 344l-8 4l-8 4l-4 8l-4 8v8l4 8l4 8l8 4l8 4h8l8 -4l8 -4l4 -8l4 -8v-8l-4 -8l-4 -8l-8 -4l-8 -4h-8z" />
    <glyph glyph-name="emdash" unicode="&#x2014;" horiz-adv-x="368" 
d="M8 156l-8 4v20l8 4h320l8 -4v-20l-8 -4h-320z" />
    <glyph glyph-name="quoteleft" unicode="&#x2018;" horiz-adv-x="92" 
d="M28 264l-8 4l-8 4l-4 8l-4 8l-4 8v16l4 8l4 8l4 8l8 8l8 8l8 8l8 4l8 4l8 4v-8l-8 -4l-8 -8l-4 -8l-4 -8v-16l8 -4l8 -4l4 -8l4 -8v-8l-4 -8l-4 -8l-8 -4l-8 -4h-8z" />
    <glyph glyph-name="quoteright" unicode="&#x2019;" horiz-adv-x="84" 
d="M0 260v8l8 4l8 8l4 8l4 8v16l-8 4l-8 4l-4 8l-4 8v8l4 8l4 8l8 4l8 4h8l8 -4l8 -4l4 -8l4 -8l4 -8v-16l-4 -8l-4 -8l-4 -8l-8 -8l-8 -8l-8 -8l-8 -4l-8 -4l-8 -4v0z" />
    <glyph glyph-name="quotesinglbase" unicode="&#x201a;" horiz-adv-x="84" 
d="M0 -52v8l8 4l8 8l4 8l4 8v16l-8 4l-8 4l-4 8l-4 8v8l4 8l4 8l8 4l8 4h8l8 -4l8 -4l4 -8l4 -8l4 -8v-16l-4 -8l-4 -8l-4 -8l-8 -8l-8 -8l-8 -8l-8 -4l-8 -4l-8 -4v0z" />
    <glyph glyph-name="quotereversed" unicode="&#x201b;" horiz-adv-x="92" 
d="M60 260l-8 4l-8 4l-8 4l-8 8l-8 8l-8 8l-4 8l-4 8l-4 8v16l4 8l4 8l4 8l8 4l8 4h8l8 -4l8 -4l4 -8l4 -8v-8l-4 -8l-4 -8l-8 -4l-8 -4v-16l4 -8l4 -8l8 -8l8 -4v-8v0z" />
    <glyph glyph-name="quotedblleft" unicode="&#x201c;" horiz-adv-x="164" 
d="M28 264l-8 4l-8 4l-4 8l-4 8l-4 8v16l4 8l4 8l4 8l8 8l8 8l8 8l8 4l8 4l8 4v-8l-8 -4l-8 -8l-4 -8l-4 -8v-16l8 -4l8 -4l4 -8l4 -8v-8l-4 -8l-4 -8l-8 -4l-8 -4h-8zM100 264l-8 4l-8 4l-4 8l-4 8l-4 8v16l4 8l4 8l4 8l8 8l8 8l8 8l8 4l8 4l8 4v-8l-8 -4l-8 -8l-4 -8
l-4 -8v-16l8 -4l8 -4l4 -8l4 -8v-8l-4 -8l-4 -8l-8 -4l-8 -4h-8z" />
    <glyph glyph-name="quotedblright" unicode="&#x201d;" horiz-adv-x="156" 
d="M0 260v8l8 4l8 8l4 8l4 8v16l-8 4l-8 4l-4 8l-4 8v8l4 8l4 8l8 4l8 4h8l8 -4l8 -4l4 -8l4 -8l4 -8v-16l-4 -8l-4 -8l-4 -8l-8 -8l-8 -8l-8 -8l-8 -4l-8 -4l-8 -4v0zM72 260v8l8 4l8 8l4 8l4 8v16l-8 4l-8 4l-4 8l-4 8v8l4 8l4 8l8 4l8 4h8l8 -4l8 -4l4 -8l4 -8l4 -8v-16
l-4 -8l-4 -8l-4 -8l-8 -8l-8 -8l-8 -8l-8 -4l-8 -4l-8 -4v0z" />
    <glyph glyph-name="quotedblbase" unicode="&#x201e;" horiz-adv-x="156" 
d="M0 -52v8l8 4l8 8l4 8l4 8v16l-8 4l-8 4l-4 8l-4 8v8l4 8l4 8l8 4l8 4h8l8 -4l8 -4l4 -8l4 -8l4 -8v-16l-4 -8l-4 -8l-4 -8l-8 -8l-8 -8l-8 -8l-8 -4l-8 -4l-8 -4v0zM72 -52v8l8 4l8 8l4 8l4 8v16l-8 4l-8 4l-4 8l-4 8v8l4 8l4 8l8 4l8 4h8l8 -4l8 -4l4 -8l4 -8l4 -8v-16
l-4 -8l-4 -8l-4 -8l-8 -8l-8 -8l-8 -8l-8 -4l-8 -4l-8 -4v0z" />
    <glyph glyph-name="dagger" unicode="&#x2020;" horiz-adv-x="144" 
d="M44 0l-4 8v196h-32l-8 4v20l8 4h32v56l4 8h24l4 -8v-56h32l8 -4v-20l-8 -4h-32v-196l-4 -8h-24z" />
    <glyph glyph-name="ellipsis" unicode="&#x2026;" horiz-adv-x="312" 
d="M24 0l-8 4l-8 4l-4 8l-4 8v8l4 8l4 8l8 4l8 4h8l8 -4l8 -4l4 -8l4 -8v-8l-4 -8l-4 -8l-8 -4l-8 -4h-8zM136 0l-8 4l-8 4l-4 8l-4 8v8l4 8l4 8l8 4l8 4h8l8 -4l8 -4l4 -8l4 -8v-8l-4 -8l-4 -8l-8 -4l-8 -4h-8zM248 0l-8 4l-8 4l-4 8l-4 8v8l4 8l4 8l8 4l8 4h8l8 -4l8 -4
l4 -8l4 -8v-8l-4 -8l-4 -8l-8 -4l-8 -4h-8z" />
    <glyph glyph-name="guilsinglleft" unicode="&#x2039;" horiz-adv-x="124" 
d="M84 84l-8 4l-8 8l-8 8l-8 8l-8 8l-8 8l-8 8l-8 8l-8 8l-8 8l-4 8l4 8l8 8l8 8l8 8l8 8l8 8l8 8l8 8l8 8l8 8l8 4l8 -4v-24l-8 -8l-8 -8l-8 -8l-8 -8l-8 -8l-8 -8l-8 -8l8 -8l8 -8l8 -8l8 -8l8 -8l8 -8l8 -8v-24l-8 -4v0z" />
    <glyph glyph-name="guilsinglright" unicode="&#x203a;" horiz-adv-x="116" 
d="M8 84l-8 4v24l8 8l8 8l8 8l8 8l8 8l8 8l8 8l-8 8l-8 8l-8 8l-8 8l-8 8l-8 8l-8 8v24l8 4l8 -4l8 -8l8 -8l8 -8l8 -8l8 -8l8 -8l8 -8l8 -8l8 -8l4 -8l-4 -8l-8 -8l-8 -8l-8 -8l-8 -8l-8 -8l-8 -8l-8 -8l-8 -8l-8 -8l-8 -4v0z" />
    <glyph glyph-name="Euro" unicode="&#x20ac;" horiz-adv-x="216" 
d="M96 -4l-8 4l-8 4l-8 4l-8 4l-8 4l-8 8l-8 8l-8 8l-8 8l-4 8l-4 8l-4 8l-4 8l-4 8l-4 8l-4 8v20h-28l-8 4v20l8 4h28v36h-28l-8 4v20l8 4h28v16l4 8l4 8l4 8l4 8l4 8l4 8l4 8l8 8l8 8l8 8l8 8l8 4l8 4l8 4l8 4l8 4h40l8 -4l8 -4l8 -4l8 -4l8 -4l8 -8v-8l-8 -8l-8 -4h-8
l-8 4l-8 4l-8 4l-8 4l-8 4h-8l-8 -4l-8 -4l-8 -4l-8 -4l-8 -4l-4 -4h-1l-3 -4l-4 -4h-1l-3 -4l-4 -4l-4 -8l-4 -8l-4 -8l-4 -8l-4 -8l-4 -8v-8h20l8 -4v-20l-8 -4h-20v-36h20l8 -4v-20l-8 -4h-20v-12l4 -8l4 -8l4 -8l4 -8l4 -8l4 -8l4 -4v-1l4 -3l4 -4v-1l4 -3l4 -4l8 -4
l8 -4l8 -4l8 -4l8 -4h8l8 4l8 4l8 4l8 4l8 4h8l8 -4l8 -8v-8l-8 -8l-8 -4l-8 -4l-8 -4l-8 -4l-8 -4h-40z" />
    <glyph glyph-name="trademark" unicode="&#x2122;" horiz-adv-x="320" 
d="M24 188l-8 4v12l8 4h20v104h-20v-24l-4 -8h-16l-4 8v40l8 4h96l8 -4v-40l-4 -8h-16l-4 8v24h-20v-104h20l8 -4v-12l-8 -4h-64zM136 188l-8 4v12l8 4h8v104h-8l-8 4v12l8 4h40l8 -4l4 -8l4 -8l4 -8l4 -8l4 -8l4 -8l4 8l4 8l4 8l4 8l4 8l4 8l8 4h40l8 -4v-12l-8 -4h-8v-104
h8l8 -4v-12l-8 -4h-40l-8 4v12l8 4h8v104l-4 -8l-4 -8l-4 -8l-4 -8l-4 -8l-4 -8l-4 -8l-4 -8l-4 -8h-8l-4 8l-4 8l-4 8l-4 8l-4 8l-4 8l-4 8l-4 8l-4 8v-104h8l8 -4v-12l-8 -4h-40z" />
    <glyph glyph-name="uniFB01" unicode="&#xfb01;" horiz-adv-x="304" 
d="M128 24l8 4h48v176h-48l-8 4l-8 -4h-40v-176h40l8 -4v0zM8 0l-8 4v20l8 4h40v176h-40l-8 4v20l8 4h40v40l4 8l4 8l4 8l4 8l8 8l8 8l8 4l8 4l8 4l8 4h48l8 -4l8 -4l8 -4l8 -4l8 -8l8 -8l4 -8l4 -8v-8l-4 -8l-4 -8l-8 -4l-8 -4h-8l-8 4l-8 4l-4 8l-4 8v8l4 8l-4 4l-8 4
l-8 4h-16l-8 -4l-8 -4l-8 -4l-8 -8l-4 -8l-4 -8l-4 -8l-4 -8v-24h40l8 -4l8 4h72c2 0 3.66699 -1 5 -3c2 -1.33301 3 -3 3 -5v-196h48l8 -4v-20l-8 -4h-128l-8 4l-8 -4h-112z" />
    <glyph glyph-name="uniFB02" unicode="&#xfb02;" horiz-adv-x="392" 
d="M8 0l-8 4v20l8 4h40v176h-40l-8 4v20l8 4h40v40l4 8l4 8l4 8l4 8l8 8l8 8l8 4l8 4l8 4l8 4h48l8 -4l8 -4l8 -4v8l8 4h88c2 0 3.66699 -1 5 -3c2 -1.33301 3 -3 3 -5v-300h64l8 -4v-20l-8 -4h-160l-8 4v20l8 4h64v280h-56l8 -4l4 -8l4 -8v-8l-4 -8l-4 -8l-8 -4l-8 -4h-8
l-8 4l-8 4l-4 8l-4 8v8l4 8l-4 4l-8 4l-8 4h-16l-8 -4l-8 -4l-8 -4l-8 -8l-4 -8l-4 -8l-4 -8l-4 -8v-24h40l8 -4v-20l-8 -4h-40v-176h40l8 -4v-20l-8 -4h-112z" />
  </font>
</defs>
</svg>
